G04 ================== begin FILE IDENTIFICATION RECORD ==================*
G04 Layout Name:  LAY-29102_C1.brd*
G04 Film Name:    GBR-29102_C_L3_INT*
G04 File Format:  Gerber RS274X*
G04 File Origin:  Cadence Allegro 16.6-2015-S058*
G04 Origin Date:  Fri Oct 13 11:06:05 2017*
G04 *
G04 Layer:  VIA CLASS/INT_1*
G04 Layer:  PIN/INT_1*
G04 Layer:  ETCH/INT_1*
G04 Layer:  DRAWING FORMAT/FILM_TITLE_BLOCK*
G04 Layer:  BOARD GEOMETRY/OUTLINE*
G04 *
G04 Offset:    (0.0000 0.0000)*
G04 Mirror:    No*
G04 Mode:      Positive*
G04 Rotation:  0*
G04 FullContactRelief:  No*
G04 UndefLineWidth:     0.0000*
G04 ================== end FILE IDENTIFICATION RECORD ====================*
%FSLAX55Y55*MOIN*%
%IR0*IPPOS*OFA0.00000B0.00000*MIA0B0*SFA1.00000B1.00000*%
%ADD13C,.01*%
%ADD10C,.02*%
%ADD15C,.04*%
%ADD19C,.014*%
%ADD11C,.06*%
%ADD14C,.018*%
%ADD18C,.091*%
%ADD20C,.038*%
%ADD16C,.065*%
%ADD17C,.067*%
%ADD12C,.098*%
%ADD21C,.03*%
%ADD22C,.015*%
%ADD23C,.025*%
%ADD24C,.006*%
%ADD25C,.008*%
%ADD31C,.042*%
%ADD27C,.07*%
%ADD29C,.026*%
%ADD36C,.028*%
%ADD30C,.055*%
%ADD28C,.056*%
%ADD34C,.057*%
%ADD32C,.075*%
%ADD33C,.077*%
%ADD35C,.101*%
%ADD26C,.11*%
G75*
%LPD*%
G75*
G36*
G01X7400Y-12200D02*
G02X-16000Y11300I100J23500D01*
G01Y134692D01*
G02X-15119Y135015I500J0D01*
G03X-13250Y134150I1869J1585D01*
G01X-10550D01*
G03Y139050I0J2450D01*
G01X-13250D01*
G03X-15119Y138185I0J-2450D01*
G02X-16000Y138508I-381J323D01*
G01Y166892D01*
G02X-15119Y167215I500J0D01*
G03X-13250Y166350I1869J1585D01*
G01X-10550D01*
G03Y171250I0J2450D01*
G01X-13250D01*
G03X-15119Y170385I0J-2450D01*
G02X-16000Y170708I-381J323D01*
G01Y171300D01*
G02X-8948Y188084I23500J0D01*
G02X-8099Y187747I350J-357D01*
G03X-7626Y186796I1299J53D01*
G02X-7590Y186056I-318J-386D01*
G01X-10300Y183346D01*
Y173954D01*
X-5746Y169400D01*
X-3500D01*
Y169254D01*
X9254Y156500D01*
X25554D01*
X31654Y150400D01*
X47854D01*
X51800Y146454D01*
Y136146D01*
X48627Y132973D01*
G03X48100Y131700I1273J-1273D01*
G01Y121400D01*
G03X51700I1800J0D01*
G01Y130954D01*
X55400Y134654D01*
Y147200D01*
G03X54873Y148473I-1800J0D01*
G01X49346Y154000D01*
X33146D01*
X27046Y160100D01*
X24065D01*
G02X23722Y160964I0J500D01*
G03X19878I-1922J2036D01*
G02X19535Y160100I-343J-364D01*
G01X14065D01*
G02X13722Y160964I0J500D01*
G03X9000Y163044I-1922J2036D01*
G02X8147Y162699I-500J8D01*
G01X100Y170746D01*
Y171200D01*
G03X-44Y171904I-1800J0D01*
G02X417Y172600I460J196D01*
G01X10454D01*
X16354Y166700D01*
X28928D01*
G02X29262Y165828I0J-500D01*
G03X35383Y161733I2538J-2828D01*
G01X35442Y161900D01*
X43656D01*
X44880Y163124D01*
G02X45713Y162912I354J-354D01*
G03X50228Y165821I2687J788D01*
G02X50554Y166700I326J379D01*
G01X54901D01*
G02X55308Y165909I0J-500D01*
G03X61983Y162433I3092J-2209D01*
G01X62042Y162600D01*
X65544D01*
X75600Y152544D01*
Y142725D01*
G03X77800I1100J-1425D01*
G01Y153456D01*
X76709Y154546D01*
G02X77063Y155400I354J354D01*
G01X94544D01*
X100044Y149900D01*
X105344D01*
X106604Y148640D01*
G02X106305Y147789I-354J-354D01*
G03X104700Y146000I195J-1789D01*
G01Y87446D01*
X103927Y86673D01*
G03X106473Y84127I1273J-1273D01*
G01X108300Y85954D01*
Y119151D01*
G02X109170Y119488I500J0D01*
G03X110813Y118927I1330J1212D01*
G02X111400Y118435I87J-492D01*
G01Y85000D01*
G03X114139Y83464I1800J0D01*
G02X114900Y83038I261J-427D01*
G01Y82856D01*
X113844Y81800D01*
X100756D01*
X96200Y86356D01*
Y105875D01*
G03X94865Y109085I-1100J1425D01*
G02X94300Y109580I-65J496D01*
G01Y118354D01*
X97573Y121627D01*
G03X95027Y124173I-1273J1273D01*
G01X91854Y120999D01*
G02X91012Y121244I-354J354D01*
G01X89000Y123256D01*
Y141671D01*
G02X89639Y142151I500J0D01*
G03X90506Y142202I361J1249D01*
G02X91200Y141742I194J-461D01*
G01Y139344D01*
X96712Y133833D01*
X96704Y133720D01*
G03X98970Y131862I1796J-120D01*
G02X99600Y131380I130J-483D01*
G01Y88100D01*
G03X103200I1800J0D01*
G01Y144446D01*
X101800Y145846D01*
Y147300D01*
G03X98200I-1800J0D01*
G01Y144354D01*
X99600Y142954D01*
Y135820D01*
G02X98970Y135338I-500J0D01*
G03X98380Y135396I-470J-1738D01*
G01X98267Y135388D01*
X93400Y140256D01*
Y144756D01*
X89588Y148567D01*
X89596Y148680D01*
G03X86497Y150042I-1796J120D01*
G02X85736Y150085I-362J345D01*
G03X83001Y150247I-1436J-1085D01*
G02X82328Y150203I-361J346D01*
G03X81320Y147004I-1128J-1403D01*
G01X81433Y147012D01*
X84900Y143544D01*
Y132463D01*
G02X84046Y132109I-500J0D01*
G01X79688Y136467D01*
X79696Y136580D01*
G03X76100Y136743I-1796J120D01*
G02X75844Y136499I-250J6D01*
G03X74004Y134580I-44J-1799D01*
G01X74012Y134467D01*
X66000Y126456D01*
Y126344D01*
G02X65174Y125965I-500J0D01*
G03X63217Y126221I-1174J-1365D01*
G02X62500Y126671I-217J450D01*
G01Y127356D01*
X62000Y127856D01*
Y151702D01*
G02X62478Y152202I500J0D01*
G03X60606Y154146I-78J1798D01*
G01X60598Y154054D01*
X60149Y153605D01*
X59902Y153852D01*
X59899Y153951D01*
G03X56359Y154356I-1799J-51D01*
G02X55663Y154030I-484J127D01*
G03X55020Y150604I-763J-1630D01*
G01X55133Y150612D01*
X56000Y149744D01*
Y123556D01*
X50900Y118456D01*
Y111691D01*
G02X50443Y111193I-500J0D01*
G03X52009Y108279I157J-1793D01*
G02X52900Y107968I391J-311D01*
G01Y104756D01*
X52183Y104039D01*
X52052Y104065D01*
G03X53494Y102154I-352J-1765D01*
G01X53502Y102246D01*
X55100Y103844D01*
Y116844D01*
X56455Y118199D01*
G02X57167Y118194I354J-354D01*
G03X59006Y120033I933J906D01*
G02X59000Y120745I348J359D01*
G01X59446Y121191D01*
G02X60300Y120837I354J-354D01*
G01Y115044D01*
X61416Y113929D01*
G02X61136Y113080I-354J-354D01*
G03X61520Y109504I264J-1780D01*
G01X61633Y109512D01*
X62300Y108844D01*
Y108089D01*
G02X61744Y107592I-500J0D01*
G03Y105008I-144J-1292D01*
G02X62300Y104511I56J-497D01*
G01Y102144D01*
X65000Y99444D01*
Y81944D01*
X67212Y79733D01*
X67204Y79620D01*
G03X69761Y81131I1796J-120D01*
G02X69696Y82001I211J453D01*
G03X70500Y83500I-996J1499D01*
G01Y92754D01*
G02X71424Y93018I500J0D01*
G03X72484Y92028I2376J1482D01*
G02X72548Y91186I-235J-441D01*
G03X75638Y88485I1252J-1686D01*
G02X76530Y88453I438J-242D01*
G03X77418Y87417I2270J1047D01*
G02Y86583I-276J-417D01*
G03X76530Y85547I1382J-2083D01*
G02X75638Y85515I-454J209D01*
G03Y83485I-1838J-1015D01*
G02X76530Y83453I438J-242D01*
G03X77753Y82230I2270J1047D01*
G02X77785Y81338I-209J-454D01*
G03X79815I1015J-1838D01*
G02X79847Y82230I242J438D01*
G03X80182Y86583I-1047J2270D01*
G02Y87417I276J417D01*
G03X79847Y91770I-1382J2083D01*
G02X79815Y92662I209J454D01*
G03X77114Y95752I-1015J1838D01*
G02X76272Y95816I-401J298D01*
G03X75116Y96972I-2472J-1316D01*
G02X75052Y97814I235J441D01*
G03X72912Y101403I-1252J1686D01*
G02X72200Y101856I-212J453D01*
G01Y104280D01*
G02X72939Y104719I500J0D01*
G03X74900Y107725I861J1581D01*
G01Y110256D01*
X68200Y116956D01*
Y125544D01*
X75567Y132912D01*
X75680Y132904D01*
G03X77600Y134657I120J1796D01*
G02X77856Y134901I250J-6D01*
G03X78020Y134904I44J1799D01*
G01X78133Y134912D01*
X83100Y129944D01*
Y121125D01*
G03X84357Y117907I1100J-1425D01*
G02X84900Y117409I43J-498D01*
G01Y107963D01*
G02X84046Y107609I-500J0D01*
G01X75488Y116167D01*
X75496Y116280D01*
G03X73820Y114604I-1796J120D01*
G01X73933Y114612D01*
X83000Y105544D01*
Y75744D01*
X87844Y70900D01*
X110144D01*
X111412Y69633D01*
X111404Y69520D01*
G03X113080Y71196I1796J-120D01*
G01X112967Y71188D01*
X111056Y73100D01*
X103897D01*
G02X103485Y73883I0J500D01*
G03X100207Y75057I-1485J1017D01*
G02X99709Y74600I-498J43D01*
G01X89856D01*
X87100Y77356D01*
Y107068D01*
G02X87991Y107379I500J0D01*
G03X90026Y106812I1409J1121D01*
G02X90700Y106344I174J-469D01*
G01Y79500D01*
G03X94300I1800J0D01*
G01Y83937D01*
G02X95154Y84291I500J0D01*
G01X99844Y79600D01*
X114756D01*
X117100Y81944D01*
Y87837D01*
G02X117954Y88191I500J0D01*
G01X120804Y85340D01*
G02X120759Y84593I-354J-354D01*
G03X121833Y78017I2341J-2993D01*
G01X122000Y77958D01*
Y75242D01*
X121833Y75183D01*
G03X125707Y68835I1267J-3583D01*
G02X126550Y68471I343J-364D01*
G01Y68242D01*
X123858Y65550D01*
X116858D01*
X110950Y59642D01*
Y53642D01*
X107858Y50550D01*
X95915D01*
G03X93243Y48609I-915J-1550D01*
G02X92755Y48000I-488J-109D01*
G01X68946D01*
X61700Y55246D01*
Y63946D01*
X45546Y80100D01*
X43000D01*
G03Y76500I0J-1800D01*
G01X44054D01*
X58100Y62454D01*
Y53754D01*
X67454Y44400D01*
X118672D01*
G03Y48000I3628J1800D01*
G01X110899D01*
G02X110546Y48854I0J500D01*
G01X114050Y52358D01*
Y58358D01*
X118142Y62450D01*
X125142D01*
X129650Y66958D01*
Y97958D01*
X133350Y101658D01*
Y103968D01*
G03X133423Y108582I-1550J2332D01*
G02X133394Y109374I290J407D01*
G03X133182Y113383I-1594J1926D01*
G02Y114217I276J417D01*
G03X132847Y118570I-1382J2083D01*
G02X132815Y119462I209J454D01*
G03X130785I-1015J1838D01*
G02X130753Y118570I-242J-438D01*
G03X129530Y117347I1047J-2270D01*
G02X128638Y117315I-454J209D01*
G03Y115285I-1838J-1015D01*
G02X129530Y115253I438J-242D01*
G03X130418Y114217I2270J1047D01*
G02Y113383I-276J-417D01*
G03X129530Y112347I1382J-2083D01*
G02X128638Y112315I-454J209D01*
G03X125548Y109614I-1838J-1015D01*
G02X125484Y108772I-298J-401D01*
G03X124148Y105401I1316J-2472D01*
G01X124198Y105254D01*
X120654Y101709D01*
G02X119800Y102063I-354J354D01*
G01Y106875D01*
G03X118543Y110093I-1100J1425D01*
G02X118000Y110591I-43J498D01*
G01Y132554D01*
X129400Y143954D01*
Y146700D01*
G03X128873Y147973I-1800J0D01*
G01X125200Y151646D01*
Y164846D01*
X118046Y172000D01*
X91954D01*
X85027Y165073D01*
G03X87573Y162527I1273J-1273D01*
G01X93446Y168400D01*
X116554D01*
X116804Y168150D01*
G02X116428Y167297I-354J-354D01*
G03X119097Y164628I-128J-2797D01*
G02X119950Y165004I499J23D01*
G01X121600Y163354D01*
Y150154D01*
X125800Y145954D01*
Y145446D01*
X115854Y135499D01*
G02X115000Y135853I-354J354D01*
G01Y137154D01*
X117973Y140127D01*
G03X115427Y142673I-1273J1273D01*
G01X111400Y138646D01*
Y130389D01*
G02X110844Y129892I-500J0D01*
G03X110556I-144J-1292D01*
G02X110000Y130389I-56J497D01*
G01Y148356D01*
X106256Y152100D01*
X105598D01*
G02X105189Y152888I0J500D01*
G03X105653Y155011I-2289J1612D01*
G02X106498Y155456I492J91D01*
G01X107900Y154054D01*
Y153300D01*
G03X111500I1800J0D01*
G01Y155546D01*
X105646Y161400D01*
X104932D01*
G02X104624Y162294I0J500D01*
G03X101176I-1724J2206D01*
G02X100868Y161400I-308J-394D01*
G01X77646D01*
X66646Y172400D01*
X45654D01*
X43554Y170300D01*
X42748D01*
G02X42508Y171238I0J500D01*
G03X39648Y194297I-6008J10962D01*
G01X39711Y194789D01*
X249713Y194717D01*
X249713Y194276D01*
X249528Y194226D01*
G03X255980Y194224I3222J-12026D01*
G01X256045Y194715D01*
X300300Y194700D01*
X309800D01*
X310100Y194400D01*
Y-12200D01*
X261964D01*
G02X261608Y-11349I0J500D01*
G03X243892I-8858J8749D01*
G02X243536Y-12200I-356J-351D01*
G01X157453D01*
G02X157099Y-11346I0J500D01*
G01X161027Y-7419D01*
X161171Y-7464D01*
G03X158436Y-4729I1229J3964D01*
G01X158481Y-4873D01*
X154854Y-8500D01*
X76446D01*
X53646Y14300D01*
X45697D01*
G02X45226Y14967I0J500D01*
G03X42774I-1226J433D01*
G02X42303Y14300I-471J-167D01*
G01X31754D01*
X21096Y3641D01*
X20957Y3677D01*
G03X19043I-957J-3677D01*
G01X18904Y3641D01*
X5400Y17146D01*
Y35554D01*
X10800Y40954D01*
Y99100D01*
G03X7200I-1800J0D01*
G01Y42446D01*
X1800Y37046D01*
Y15654D01*
X16359Y1096D01*
X16323Y957D01*
G03X23677I3677J-957D01*
G01X23641Y1096D01*
X33246Y10700D01*
X52154D01*
X74201Y-11346D01*
G02X73847Y-12200I-354J-354D01*
G01X50584D01*
G02X50227Y-11350I0J500D01*
G03X32373I-8927J8750D01*
G02X32016Y-12200I-357J-350D01*
G01X7400D01*
G37*
G36*
G01X17846Y170300D02*
X12473Y175673D01*
G03X11200Y176200I-1273J-1273D01*
G01X-1754D01*
X-4027Y178473D01*
G03X-6004Y178857I-1273J-1273D01*
G02X-6700Y179317I-196J460D01*
G01Y181854D01*
X846Y189400D01*
X6200D01*
G03Y193000I0J1800D01*
G01X1486D01*
G02X1355Y193983I0J500D01*
G02X7400Y194800I6145J-22683D01*
G01X33297Y194791D01*
X33360Y194299D01*
G03X30492Y171238I3140J-12099D01*
G02X30252Y170300I-240J-438D01*
G01X17846D01*
G37*
G36*
G01X122500Y95899D02*
Y100444D01*
X125754Y103698D01*
X125901Y103648D01*
G03X128921Y104472I899J2652D01*
G02X129679I379J-326D01*
G03X130250Y103968I2121J1828D01*
G01Y102942D01*
X126550Y99242D01*
Y94729D01*
G02X125707Y94365I-500J0D01*
G03X123012Y95399I-2607J-2765D01*
G02X122500Y95899I-12J500D01*
G37*
%LPC*%
G75*
G36*
G01X-500Y159400D02*
G02Y163600I0J2100D01*
G01X300D01*
G02Y159400I0J-2100D01*
G01X-500D01*
G37*
G36*
G01Y141800D02*
G02Y146000I0J2100D01*
G01X300D01*
G02Y141800I0J-2100D01*
G01X-500D01*
G37*
G36*
G01X227250Y159106D02*
X230847Y162703D01*
X230771Y162862D01*
G02X232562Y161071I3429J1638D01*
G01X232403Y161147D01*
X229450Y158194D01*
Y144937D01*
G03X230135Y144473I500J0D01*
G02X230710Y144598I665J-1673D01*
G03X231144Y145293I-25J499D01*
G02X233900Y144575I1656J707D01*
G01Y101156D01*
X237267Y97788D01*
X237380Y97796D01*
G02X236130Y94832I120J-1796D01*
G03X235370I-380J-324D01*
G02X232630I-1370J1168D01*
G03X231870I-380J-324D01*
G02X229130I-1370J1168D01*
G03X228370I-380J-324D01*
G02X225600Y97131I-1370J1168D01*
G01Y140944D01*
X219700Y146844D01*
Y150858D01*
X219533Y150917D01*
G02X222067I1267J3583D01*
G01X221900Y150858D01*
Y147756D01*
X226396Y143259D01*
G03X227250Y143613I354J354D01*
G01Y159106D01*
G37*
G36*
G01X172054Y89200D02*
X181554Y98700D01*
X181400Y98854D01*
Y111354D01*
X178100Y114654D01*
Y144100D01*
G02X181700I1800J0D01*
G01Y140712D01*
G03X182422Y140265I500J0D01*
G02Y137935I578J-1165D01*
G03X181700Y137488I-222J-448D01*
G01Y116146D01*
X185000Y112846D01*
Y100346D01*
X185373Y99973D01*
G02Y97427I-1273J-1273D01*
G01X173546Y85600D01*
X155700D01*
G02Y89200I0J1800D01*
G01X172054D01*
G37*
G36*
G01X23800Y53515D02*
G02X19200I-2300J-5215D01*
G01Y119942D01*
G03X18506Y120402I-500J0D01*
G02Y122798I-506J1198D01*
G03X19200Y123258I194J461D01*
G01Y126185D01*
G02X23800I2300J5215D01*
G01Y53515D01*
G37*
G36*
G01X265975Y41322D02*
X268100Y39197D01*
Y23297D01*
X268397Y23000D01*
X268501Y23000D01*
G02X266700Y21199I-1J-1800D01*
G01X266700Y21303D01*
X265700Y22303D01*
Y38203D01*
X264278Y39625D01*
X264174Y39625D01*
G02X265975Y41426I1J1800D01*
G01X265975Y41322D01*
G37*
G36*
G01X74046Y33300D02*
X87573Y19773D01*
G02X87968Y17824I-1273J-1273D01*
G01X87950Y17779D01*
Y13396D01*
X100953Y393D01*
X101099Y441D01*
G02X98414Y-2343I1301J-3941D01*
G01X98456Y-2201D01*
X84350Y11904D01*
Y17904D01*
X72554Y29700D01*
X40554D01*
X35896Y34359D01*
X35757Y34323D01*
G02X32750Y41200I-957J3677D01*
G01Y47249D01*
X46350Y60850D01*
G02X49250Y57950I1450J-1450D01*
G01X36850Y45551D01*
Y41200D01*
G02X38477Y37043I-2050J-3200D01*
G01X38441Y36904D01*
X42046Y33300D01*
X74046D01*
G37*
G36*
G01X243274Y95363D02*
G02X241598Y95424I-874J-963D01*
G03X241626Y96187I-308J394D01*
G02X243302Y96126I874J963D01*
G03X243274Y95363I308J-394D01*
G37*
G36*
G01X450Y26900D02*
G02X-3650I-2050J0D01*
G01Y41449D01*
X1950Y47049D01*
Y83771D01*
G03X1186Y84196I-500J0D01*
G02Y86404I-686J1104D01*
G03X1950Y86829I264J425D01*
G01Y105400D01*
G02X6050I2050J0D01*
G01Y45351D01*
X450Y39751D01*
Y26900D01*
G37*
G36*
G01X222106Y8100D02*
X192744D01*
X187833Y13012D01*
X187720Y13004D01*
G02X189396Y14680I-120J1796D01*
G01X189388Y14567D01*
X193656Y10300D01*
X196637D01*
G03X196991Y11154I0J500D01*
G01X196133Y12012D01*
X196020Y12004D01*
G02X197086Y15154I-120J1796D01*
G03X197439Y15179I165J188D01*
G02X198920Y15796I1361J-1179D01*
G01X199033Y15788D01*
X199344Y16100D01*
X221294D01*
X221841Y16646D01*
G03X221487Y17500I-354J354D01*
G01X218125D01*
G02X215119Y19461I-1425J1100D01*
G03X214680Y20200I-439J239D01*
G01X144546D01*
X135346Y11000D01*
X112500D01*
G02Y14600I0J1800D01*
G01X133854D01*
X143054Y23800D01*
X218304D01*
X230500Y35996D01*
Y39454D01*
X224700Y45254D01*
Y74246D01*
X228727Y78273D01*
G02X231273Y75727I1273J-1273D01*
G01X228300Y72754D01*
Y46746D01*
X234100Y40946D01*
Y39625D01*
X234384D01*
X234417Y39634D01*
G02X234538Y39663I483J-1734D01*
G03X234733Y39956I-50J245D01*
G02X238065Y41189I1767J344D01*
G03X238935I435J247D01*
G02X240891Y42057I1565J-889D01*
G03X241500Y42545I109J488D01*
G01Y49056D01*
X245200Y52756D01*
Y60956D01*
X248975Y64731D01*
G03X248916Y65488I-354J354D01*
G02X248857Y65533I884J1212D01*
G03X248543I-157J-194D01*
G02X246657I-943J1167D01*
G03X246343I-157J-194D01*
G02X244350Y65629I-943J1167D01*
G02X242250I-1050J1071D01*
G02X240150I-1050J1071D01*
G02X238050I-1050J1071D01*
G02X235900Y67720I-1050J1071D01*
G01Y76044D01*
X227733Y84212D01*
X227620Y84204D01*
G02X228870Y87168I-120J1796D01*
G03X229630I380J324D01*
G02X232174Y87365I1370J-1168D01*
G03X232826I326J379D01*
G02X235174I1174J-1365D01*
G03X235826I326J379D01*
G02X238796Y85880I1174J-1365D01*
G01X238789Y85767D01*
X239903Y84653D01*
G03X240744Y84896I354J354D01*
G02X243940Y83420I1756J-396D01*
G01X243810Y83246D01*
X246073Y80982D01*
G03X246500Y81159I177J177D01*
G01Y81503D01*
X246463Y81562D01*
G02X246635Y83674I1537J938D01*
G03Y84326I-379J326D01*
G02X249796Y85380I1365J1174D01*
G01X249788Y85267D01*
X249973Y85082D01*
G03X250400Y85259I177J177D01*
G01Y88456D01*
X251712Y89767D01*
X251704Y89880D01*
G02X253380Y88204I1796J120D01*
G01X253267Y88212D01*
X252600Y87544D01*
Y65244D01*
X247400Y60044D01*
Y51844D01*
X243700Y48144D01*
Y31044D01*
X233999Y21343D01*
X234063Y21189D01*
G02X234115Y19952I-1663J-689D01*
G03X234591Y19300I476J-152D01*
G01X242544D01*
X250500Y27256D01*
Y34875D01*
G02X250563Y37772I1100J1425D01*
G03X250624Y38119I-144J204D01*
G02X253525Y40250I1476J1031D01*
G01X255144D01*
X256450Y41556D01*
Y41920D01*
G03X256066Y42131I-250J0D01*
G02X254424Y41982I-966J1519D01*
G01X254379Y42000D01*
X251246D01*
X248400Y39154D01*
Y28154D01*
X244265Y24019D01*
X242050D01*
G02Y27619I0J1800D01*
G01X242774D01*
X244800Y29646D01*
Y40646D01*
X249754Y45600D01*
X255696D01*
X256023Y45272D01*
G03X256450Y45449I177J177D01*
G01Y48006D01*
X258400Y49956D01*
Y64544D01*
X257291Y65653D01*
X257160Y65626D01*
G02X256828Y65602I-260J1274D01*
G03X256300Y65103I-28J-499D01*
G01Y54462D01*
X251302Y49464D01*
X251295Y49371D01*
G02X249371Y51295I-1795J129D01*
G01X249464Y51302D01*
X253700Y55538D01*
Y69538D01*
X255301Y71139D01*
Y71439D01*
X262650Y78788D01*
Y85212D01*
X252411Y95451D01*
G03X251625Y95348I-354J-354D01*
G02X249288Y96469I-1125J652D01*
G03X248821Y97150I-466J181D01*
G01X246512D01*
X244050Y99612D01*
Y102127D01*
G03X243126Y102391I-500J0D01*
G02X238700Y108006I-3226J2009D01*
G01Y130458D01*
G02X241100I1200J1342D01*
G01Y108006D01*
G02X243126Y106409I-1200J-3606D01*
G03X244050Y106673I424J264D01*
G01Y164612D01*
X229962Y178700D01*
X92338D01*
X88102Y174464D01*
X88095Y174371D01*
G02X86171Y176295I-1795J129D01*
G01X86264Y176302D01*
X91262Y181300D01*
X231038D01*
X246650Y165688D01*
Y107706D01*
G03X247470Y107321I500J0D01*
G02X249933Y108200I2430J-2921D01*
G03X250291Y109053I4J500D01*
G01X249150Y110194D01*
Y132478D01*
X248998Y132543D01*
G02X251368Y133524I702J1657D01*
G01X251350Y133479D01*
Y111106D01*
X255500Y106956D01*
Y100206D01*
X265806Y89900D01*
X270956D01*
X275600Y85256D01*
Y79444D01*
X271256Y75100D01*
X267656D01*
X261200Y68644D01*
Y67356D01*
X262100Y66456D01*
Y47044D01*
X260200Y45144D01*
Y39694D01*
X257439Y36933D01*
X257446Y36820D01*
G02X256750Y35275I-1796J-120D01*
G01Y25694D01*
X244856Y13800D01*
X231425D01*
G02X228585Y13788I-1425J1100D01*
G03X227838Y13832I-393J-309D01*
G01X222106Y8100D01*
G37*
G36*
G01X110345Y110D02*
X110507Y193D01*
G02X108707Y-1607I1893J-3693D01*
G01X108790Y-1445D01*
X104150Y3194D01*
Y34656D01*
X109694Y40200D01*
X133344D01*
X136350Y43206D01*
Y60956D01*
X145494Y70100D01*
X145608D01*
X145736Y70409D01*
X139800Y76344D01*
Y98388D01*
G03X139078Y98835I-500J0D01*
G02Y101165I-578J1165D01*
G03X139800Y101612I222J448D01*
G01Y104144D01*
X135700Y108244D01*
Y127194D01*
X134444Y128450D01*
X133809D01*
G03X133423Y127633I0J-500D01*
G02X130114Y125048I-1623J-1333D01*
G03X129272Y124984I-401J-298D01*
G02X128116Y123828I-2472J1316D01*
G03X128052Y122986I235J-441D01*
G02X125548I-1252J-1686D01*
G03X125484Y123828I-298J401D01*
G02X127699Y128952I1316J2472D01*
G01X127846Y128902D01*
X129594Y130650D01*
X134957D01*
G03X135441Y131275I0J500D01*
G02X136700Y132900I1259J325D01*
G03X137200Y133400I0J500D01*
G01Y136888D01*
G03X136478Y137335I-500J0D01*
G02Y139665I-578J1165D01*
G03X137200Y140112I222J448D01*
G01Y147464D01*
G03X136492Y147918I-500J0D01*
G02Y150282I-542J1182D01*
G03X137200Y150736I208J455D01*
G01Y152044D01*
X133933Y155312D01*
X133820Y155304D01*
G02X135496Y156980I-120J1796D01*
G01X135488Y156867D01*
X137946Y154409D01*
G03X138800Y154763I354J354D01*
G01Y155375D01*
G02X140213Y158573I1100J1425D01*
G03X140800Y159065I87J492D01*
G01Y167495D01*
X140599Y167535D01*
G02X142746Y169180I351J1765D01*
G01X142738Y169067D01*
X143000Y168806D01*
Y163813D01*
G03X143854Y163459I500J0D01*
G01X149062Y168667D01*
X149054Y168780D01*
G02X150730Y167104I1796J120D01*
G01X150617Y167112D01*
X146858Y163353D01*
G03X147198Y162499I354J-354D01*
G02X148500Y159509I-48J-1799D01*
G01Y150875D01*
G03X149083Y150382I500J0D01*
G02Y147818I217J-1282D01*
G03X148500Y147325I-83J-493D01*
G01Y145875D01*
G03X149083Y145382I500J0D01*
G02Y142818I217J-1282D01*
G03X148500Y142325I-83J-493D01*
G01Y140829D01*
G03X149139Y140349I500J0D01*
G02Y137851I361J-1249D01*
G03X148500Y137371I-139J-480D01*
G01Y118956D01*
X152100Y115356D01*
Y95344D01*
X149100Y92344D01*
Y87845D01*
G03X149709Y87357I500J0D01*
G02X151896Y85480I391J-1757D01*
G01X151888Y85367D01*
X161856Y75400D01*
X187221D01*
G03X187688Y76081I0J500D01*
G02X190112I1212J469D01*
G03X190579Y75400I466J-181D01*
G01X193737D01*
G03X194091Y76254I0J500D01*
G01X188594Y81750D01*
G03X187796Y82072I-494J-75D01*
G02X186393Y85274I-1096J1428D01*
G01X186600Y85310D01*
Y140844D01*
X169744Y157700D01*
X165144D01*
X162633Y160212D01*
X162520Y160204D01*
G02X164196Y161880I-120J1796D01*
G01X164188Y161767D01*
X164852Y161104D01*
G03X165704Y161423I354J354D01*
G02X168855Y162485I1796J-123D01*
G01X168929Y162400D01*
X169237D01*
G03X169591Y163254I0J500D01*
G01X167020Y165825D01*
X166900Y165811D01*
G02X165566Y168998I-200J1789D01*
G03X165605Y169740I-315J388D01*
G01X161944Y173400D01*
X92056D01*
X88056Y169400D01*
X79644D01*
X71444Y177600D01*
X69025D01*
G02Y179800I-1425J1100D01*
G01X72356D01*
X80556Y171600D01*
X87144D01*
X91144Y175600D01*
X162856D01*
X174346Y164109D01*
G03X175200Y164463I354J354D01*
G01Y165675D01*
G02X177400I1100J1425D01*
G01Y163856D01*
X185257Y155998D01*
G02X187851Y153520I1193J-1348D01*
G01X187710Y153345D01*
X191061Y149995D01*
G03X191799Y150030I354J354D01*
G02X193594Y150229I1001J-830D01*
G03X194400Y150625I306J396D01*
G01Y152775D01*
G02X193704Y154320I1100J1425D01*
G01X193712Y154433D01*
X189700Y158444D01*
Y165375D01*
G02X191900I1100J1425D01*
G01Y159356D01*
X195267Y155988D01*
X195380Y155996D01*
G02X196600Y152775I120J-1796D01*
G01Y148056D01*
X200600Y144056D01*
Y117017D01*
G03X201296Y116557I500J0D01*
G02X202391Y116657I704J-1656D01*
G03X203000Y117145I109J488D01*
G01Y121356D01*
X204550Y122906D01*
Y145906D01*
X210311Y151667D01*
X210304Y151780D01*
G02X211769Y153669I1796J120D01*
G03X212030Y154514I-92J491D01*
G01X208733Y157812D01*
X208620Y157804D01*
G02X210296Y159480I-120J1796D01*
G01X210288Y159367D01*
X215000Y154656D01*
Y150444D01*
X208300Y143744D01*
Y122591D01*
G03X208843Y122093I500J0D01*
G02X210800Y120300I157J-1793D01*
G01Y106700D01*
G02X207904Y105272I-1800J0D01*
G03X207100Y104875I-304J-397D01*
G01Y89306D01*
X208950Y87456D01*
Y81856D01*
X211006Y79800D01*
X220075D01*
G02Y77600I1425J-1100D01*
G01X215056D01*
G03X214565Y77002I0J-500D01*
G02X213157Y74886I-1765J-352D01*
G03X212766Y74299I99J-490D01*
G02X212639Y73207I-1766J-349D01*
G03X213095Y72500I455J-207D01*
G01X216106D01*
X223600Y65006D01*
Y49044D01*
X221950Y47394D01*
Y35352D01*
G03X222575Y34868I500J0D01*
G02X224298Y31852I450J-1743D01*
G01X218796Y26350D01*
X132146D01*
X129165Y23369D01*
X129226Y23216D01*
G02X126144Y25574I-3526J-1416D01*
G01X126264Y25560D01*
X130654Y29950D01*
X187314D01*
G03X187740Y30711I0J500D01*
G02X189960I1110J677D01*
G03X190386Y29950I427J-261D01*
G01X205459D01*
G03X205957Y30493I0J500D01*
G02X209175Y31750I1793J157D01*
G01X216294D01*
X219750Y35206D01*
Y47287D01*
G03X218896Y47641I-500J0D01*
G01X208156Y36900D01*
X173675D01*
G03X173182Y36317I0J-500D01*
G02X170618I-1282J-217D01*
G03X170125Y36900I-493J83D01*
G01X166156D01*
X162456Y33200D01*
X158425D01*
G02X155663Y33095I-1425J1100D01*
G03X154850Y32993I-371J-335D01*
G02X154504Y34621I-1150J607D01*
G03X155289Y34859I309J393D01*
G02X158355Y35485I1711J-559D01*
G01X158429Y35400D01*
X158777D01*
G03X159271Y35976I0J500D01*
G02X161170Y38046I1779J274D01*
G01X161283Y38038D01*
X163594Y40350D01*
X206094D01*
X217800Y52056D01*
Y52504D01*
G03X217413Y52713I-250J0D01*
G02X217133Y55026I-713J1087D01*
G03X217800Y55497I167J471D01*
G01Y57295D01*
X217654Y57362D01*
G02X216866Y59942I746J1638D01*
G01X216903Y60003D01*
X216887Y62365D01*
X213599Y65606D01*
X205543Y65550D01*
X154594D01*
X151297Y68847D01*
G03X150456Y68604I-354J-354D01*
G02X147275Y67900I-1756J396D01*
G01X146406D01*
X138550Y60044D01*
Y48939D01*
G03X139432Y48616I500J0D01*
G02Y43784I2868J-2416D01*
G03X138550Y43461I-382J-322D01*
G01Y42294D01*
X134256Y38000D01*
X110606D01*
X106350Y33744D01*
Y4106D01*
X110345Y110D01*
G37*
G54D31*
X78800Y99500D03*
X73800Y79500D03*
G54D27*
X-10800Y28600D03*
X10000Y0D03*
X279000Y10000D03*
G54D29*
X-6300Y143700D03*
X-6100Y161600D03*
X13500Y141500D03*
X-3900Y132300D03*
X28500Y106400D03*
X22300Y148500D03*
Y154500D03*
X64000Y-5500D03*
X58900Y18450D03*
X46200Y118800D03*
X54100Y124600D03*
X46600Y136700D03*
X62500Y158600D03*
X77100Y-3200D03*
X71500Y17600D03*
X72600Y8200D03*
X78200Y120800D03*
X67500Y155300D03*
X77500Y166700D03*
X95300Y142000D03*
X92000Y163600D03*
X127400Y133000D03*
X153800Y14200D03*
X154000Y158800D03*
X175700Y172500D03*
X185850Y43150D03*
X190250Y42650D03*
X187400Y163800D03*
X182500Y172300D03*
X217100Y35700D03*
X209000Y60100D03*
X213550Y60850D03*
X249500Y59400D03*
X254400Y126500D03*
X4000Y184700D03*
X11700Y179150D03*
X6200Y179100D03*
G54D36*
X265900Y92522D03*
Y159422D03*
G54D30*
X67900Y54000D03*
X77900D03*
X87900D03*
X67900Y64000D03*
X77900D03*
X87900D03*
X132300Y46200D03*
X122300Y56200D03*
X132300D03*
X157300Y48700D03*
X142300Y56200D03*
X177300Y48700D03*
X167300D03*
X177300Y58700D03*
X167300D03*
G54D28*
X-10800Y38600D03*
X0Y0D03*
X19600Y25400D03*
X9600D03*
X34800Y28000D03*
X49300Y38700D03*
X59300D03*
X56800Y186400D03*
X66800D03*
X84000Y38700D03*
X74000D03*
X76800Y186400D03*
X92400Y-3500D03*
X111200Y31800D03*
Y21800D03*
X97200Y25700D03*
Y15700D03*
X103400Y54000D03*
X94000Y38700D03*
X103400Y64000D03*
X96800Y186400D03*
X106800D03*
X132400Y-3500D03*
X122400D03*
X125700Y31800D03*
X133100Y71600D03*
Y91600D03*
Y81600D03*
X116300Y154500D03*
X116800Y186400D03*
X126800D03*
X136800D03*
X146800D03*
X162500D03*
X172500D03*
X182500D03*
X192500D03*
X202500D03*
X220800Y164500D03*
X212500Y186400D03*
X222500D03*
X234200Y154500D03*
X232500Y186400D03*
X269000Y10000D03*
X258100Y82400D03*
G54D34*
X182600Y-3700D03*
X202600D03*
X192600D03*
X222600D03*
X212600D03*
X232600D03*
G54D32*
X86800Y186400D03*
X157300Y58700D03*
G54D33*
X152400Y-3500D03*
X142400D03*
G54D35*
X219600Y112800D03*
G54D26*
X287200Y38400D03*
%LPD*%
G75*
G54D10*
G01X336700Y-59100D02*
Y-159100D01*
X-63300D01*
G01D02*
Y-59100D01*
X336700D01*
G01X6200Y191200D02*
X100D01*
X-8500Y182600D01*
Y174700D01*
X-5000Y171200D01*
X-1700D01*
G01X-5300Y177200D02*
X-2500Y174400D01*
X11200D01*
G01X9000Y99100D02*
Y41700D01*
X3600Y36300D01*
Y16400D01*
X20000Y0D01*
G01X53600Y147200D02*
X48600Y152200D01*
X32400D01*
X26300Y158300D01*
X10000D01*
X-1700Y170000D01*
Y171200D01*
G01X109700Y153300D02*
Y154800D01*
X104900Y159600D01*
X76900D01*
X65900Y170600D01*
X46400D01*
X44300Y168500D01*
X17100D01*
X11200Y174400D01*
G01X162400Y-3500D02*
X155600Y-10300D01*
X75700D01*
X52900Y12500D01*
X32500D01*
X20000Y0D01*
G01X86300Y18500D02*
X73300Y31500D01*
X41300D01*
X34800Y38000D01*
G01X43000Y78300D02*
X44800D01*
X59900Y63200D01*
Y54500D01*
X68200Y46200D01*
X122300D01*
G01X49900Y131700D02*
Y121400D01*
G01X53600Y147200D02*
Y135400D01*
X49900Y131700D01*
G01X86300Y18500D02*
X86150Y18350D01*
Y12650D01*
X102300Y-3500D01*
X102400D01*
G01X66500Y110700D02*
X68700Y108500D01*
Y83500D01*
G01X127600Y146700D02*
X123400Y150900D01*
Y164100D01*
X117300Y170200D01*
X92700D01*
X86300Y163800D01*
G01X101400Y88100D02*
Y107700D01*
G01X105200Y85400D02*
X106500Y86700D01*
Y107600D01*
G01X92500Y79500D02*
Y119100D01*
X96300Y122900D01*
G01X100000Y147300D02*
Y145100D01*
X101400Y143700D01*
Y119500D01*
G01D02*
Y107700D01*
G01X106500Y146000D02*
Y118800D01*
G01D02*
Y107600D01*
G01X112500Y12800D02*
X134600D01*
X143800Y22000D01*
X219050D01*
X232300Y35250D01*
G01X125700Y21800D02*
Y22450D01*
X131400Y28150D01*
X218050D01*
X223025Y33125D01*
G01X113200Y85000D02*
Y106300D01*
G01D02*
Y137900D01*
X116700Y141400D01*
G01X116200Y102600D02*
Y133300D01*
X127600Y144700D01*
Y146700D01*
G01X155700Y87400D02*
X172800D01*
X184100Y98700D01*
G01D02*
X183200Y99600D01*
Y112100D01*
X179900Y115400D01*
Y124100D01*
G01Y144100D02*
Y124100D01*
G01X232300Y35250D02*
Y40200D01*
X226500Y46000D01*
Y73500D01*
X230000Y77000D01*
G01X209000Y111600D02*
Y106700D01*
G01Y120300D02*
Y111600D01*
G01X255100Y43650D02*
X254950Y43800D01*
X250500D01*
X246600Y39900D01*
Y28900D01*
X243519Y25819D01*
X242050D01*
X-11000Y2100D03*
X-14600Y25100D03*
X-5700Y15500D03*
X-8400Y24500D03*
X-9500Y20400D03*
X-14500Y20700D03*
X-14400Y49000D03*
Y52500D03*
X-14900Y74700D03*
X-14500Y57300D03*
X-14400Y64700D03*
X-14900Y81500D03*
X-13000Y115800D03*
X-7050Y128250D03*
X-13750Y128300D03*
X-11700Y182300D03*
X-5300Y177200D03*
X-2700Y-8000D03*
X5400Y-10900D03*
X13600Y-11000D03*
X17400Y-8800D03*
X9400D03*
X12000Y-4900D03*
X6100Y-5000D03*
X9400Y30700D03*
X6800Y20000D03*
X10900Y17900D03*
X-1600Y26900D03*
X10500Y38200D03*
X12000Y48900D03*
X11900Y53700D03*
X14950Y75800D03*
X11900Y58700D03*
X12700Y80350D03*
X17600Y99700D03*
X11500Y89200D03*
X13500Y99800D03*
X-1000Y93800D03*
X9000Y99100D03*
X18000Y112100D03*
Y117900D03*
X17600Y105800D03*
X4000Y105400D03*
X10600Y126500D03*
X200Y127200D03*
X5500D03*
X15850Y124600D03*
X14700Y136600D03*
X10600Y131000D03*
X6700Y136400D03*
X15900Y145000D03*
X16900Y163400D03*
X5900Y167800D03*
X5200Y154600D03*
X12700Y167900D03*
X9600Y182100D03*
X18400Y183400D03*
X10700Y193400D03*
X3000Y180000D03*
X9500Y189600D03*
X4300Y194000D03*
X1500Y188600D03*
X-1700Y171200D03*
X6200Y191200D03*
X11200Y174400D03*
X21500Y-11000D03*
X25400Y-8800D03*
X34200Y20200D03*
X20500D03*
X27100Y20400D03*
X21700Y31900D03*
X27000Y38000D03*
X29800Y32000D03*
X31150Y58300D03*
X30350Y75850D03*
X26500Y77600D03*
X37500Y59100D03*
X40800Y63600D03*
X40700Y74600D03*
X33300Y61600D03*
X32650Y97600D03*
X36900Y94500D03*
X41600Y92050D03*
X41200Y96800D03*
X25800Y100000D03*
X40400Y87200D03*
X33900Y79400D03*
X41600Y111000D03*
X31600Y111700D03*
X38450Y125500D03*
X24200Y138000D03*
X31700Y131700D03*
X20600Y144600D03*
X35400Y136000D03*
X27000Y162500D03*
X35300Y156000D03*
X26000Y154800D03*
X22550Y179150D03*
X22500Y191200D03*
X25200Y193800D03*
X20700Y186600D03*
X55100Y1700D03*
X49800Y7900D03*
X59400Y-5500D03*
X64200Y4900D03*
X60000Y21950D03*
X44900Y19500D03*
X48100Y22700D03*
X64750Y11100D03*
X60200Y50600D03*
X55000Y43900D03*
X53100Y76200D03*
X45600Y63900D03*
X56300Y61300D03*
X53000Y59200D03*
X42000Y59400D03*
X56100Y72600D03*
X47800Y59400D03*
X60550Y79450D03*
X54050Y88100D03*
X50700Y94100D03*
X57200Y84100D03*
X61600Y93100D03*
X57200Y97700D03*
X49100Y80600D03*
X63900Y87700D03*
X47000Y97500D03*
X57300Y92600D03*
X43000Y78300D03*
X61400Y111300D03*
X46800Y123150D03*
X57400Y110400D03*
X57300Y103200D03*
Y116200D03*
X49900Y121400D03*
X50600Y109400D03*
X51700Y102300D03*
X64000Y124600D03*
X46900Y127650D03*
X63000Y137700D03*
X50100Y142600D03*
X54000Y128100D03*
X53600Y147200D03*
X49900Y131700D03*
X64600Y156050D03*
X48200Y158800D03*
X64800Y161700D03*
X42500Y158900D03*
X53800Y159300D03*
X62400Y154000D03*
X54900Y152400D03*
X58100Y153900D03*
X62600Y181100D03*
X51600Y192100D03*
X59600D03*
X48800Y174700D03*
X53800Y173100D03*
X87200Y3800D03*
X86200Y-7000D03*
X67900Y-10500D03*
X69650Y50D03*
X73800Y-4000D03*
X83700Y-600D03*
X81300Y-4750D03*
X79350Y20850D03*
X74000Y22100D03*
X75900Y13000D03*
X86300Y18500D03*
X65900Y76200D03*
X82300Y76500D03*
X69000Y79500D03*
X82100Y92200D03*
X82300Y86800D03*
Y97300D03*
X88300Y88200D03*
X68700Y83500D03*
X82000Y102200D03*
X76700Y109200D03*
X73800Y106300D03*
X84200Y119700D03*
X73700Y116400D03*
X65600Y103400D03*
X66500Y110700D03*
X81150Y142450D03*
X68000Y132500D03*
X68250Y142550D03*
X83850Y139950D03*
X79150Y139450D03*
X73000Y127900D03*
X77200Y127300D03*
X79100Y131300D03*
X75800Y134700D03*
X77900Y136700D03*
X76700Y141300D03*
X78400Y162200D03*
X77600Y169800D03*
X84300Y149000D03*
X87800Y148800D03*
X81200D03*
X86300Y163800D03*
X76600Y181100D03*
X67600Y192100D03*
X75600D03*
X83600D03*
X85700Y180600D03*
X67600Y178700D03*
X86300Y174500D03*
X103250Y4900D03*
X97600D03*
X110050Y4850D03*
X92100Y2700D03*
X107000Y-7000D03*
X94900Y10300D03*
X90450Y12650D03*
X110100Y10100D03*
X101750D03*
X102750Y19850D03*
X104100Y38450D03*
X102750Y34400D03*
X103000Y42800D03*
X95000Y49000D03*
X95350Y67650D03*
Y63500D03*
X94650Y76600D03*
X105350Y69600D03*
X91000Y75300D03*
X102000Y74900D03*
X98750Y97450D03*
X110100Y87900D03*
X98000Y90800D03*
Y78900D03*
X101400Y88100D03*
X105200Y85400D03*
X92500Y79500D03*
X103900Y113150D03*
X91950Y123000D03*
X109200Y113200D03*
X97800Y119600D03*
X98000Y103700D03*
X88800Y105050D03*
X89400Y108500D03*
X101400Y107700D03*
Y119500D03*
X106500Y107600D03*
Y118800D03*
X95100Y107300D03*
X110500Y120700D03*
X96300Y122900D03*
X90300Y129000D03*
X90150Y133650D03*
X95700Y127000D03*
X98400Y142700D03*
X110700Y132600D03*
X103900Y136000D03*
X98500Y133600D03*
X100000Y147300D03*
X106500Y146000D03*
X96300Y163300D03*
X110200Y162950D03*
X92800Y154000D03*
X97800Y150500D03*
X109700Y153300D03*
X91600Y192100D03*
X99600D03*
X107600D03*
X93400Y182500D03*
X102300D03*
X99800Y176700D03*
X134700Y5650D03*
X129000Y4900D03*
X123400D03*
X116950D03*
X127600Y10100D03*
X122550Y10150D03*
X116750Y10200D03*
X117250Y25600D03*
X111700Y15900D03*
X121200Y25300D03*
X121750Y18150D03*
X131500Y24700D03*
X118150Y19500D03*
X131900Y15350D03*
X112500Y12800D03*
X134100Y36200D03*
X131100Y65900D03*
X117600Y68000D03*
X116800Y73500D03*
X113200Y69400D03*
X118250Y85700D03*
X125200Y96900D03*
X115800Y79200D03*
X132100Y98800D03*
X113200Y85000D03*
X116000Y94000D03*
X123750Y113850D03*
X118800Y112000D03*
Y121200D03*
Y116700D03*
X118700Y108300D03*
X113200Y106300D03*
X116200Y102600D03*
X128650Y137700D03*
X124000Y145450D03*
X117550Y146050D03*
X120600Y142000D03*
X123000Y134900D03*
X116700Y141400D03*
X127600Y146700D03*
X133400Y160700D03*
X127700Y157650D03*
X123200Y168100D03*
X130500Y164800D03*
X120500Y149100D03*
X133700Y157100D03*
X133950Y172700D03*
X115600Y192100D03*
X123600D03*
X131600D03*
X121100Y176700D03*
X132100D03*
X142000Y5450D03*
X147700Y-7000D03*
X137600D03*
X147700Y550D03*
X157500Y1500D03*
X151400Y16550D03*
X140300Y14500D03*
X139100Y21500D03*
X141300Y24650D03*
X138150Y9100D03*
X146100Y19200D03*
X150550Y44150D03*
X146350Y41200D03*
X153500Y42200D03*
X142400Y33450D03*
X152000Y54200D03*
X157000Y34300D03*
X143600Y70450D03*
X138850Y74950D03*
X151300Y67150D03*
X140400Y66600D03*
X148700Y69000D03*
X156400Y98600D03*
X138300Y90050D03*
X150000Y89100D03*
X146400Y98400D03*
X155700Y87400D03*
X150100Y85600D03*
X136500Y105000D03*
X156350Y112500D03*
X155800Y124200D03*
X141900Y121700D03*
X136150Y134700D03*
X153800Y169200D03*
X143700Y167300D03*
X139900Y156800D03*
X150850Y168900D03*
X147150Y160700D03*
X145500Y153100D03*
X140950Y169300D03*
X142950Y171350D03*
X139600Y192100D03*
X147600D03*
X155600D03*
X154700Y176700D03*
X141700D03*
X154500Y182300D03*
X155600Y187100D03*
X172400Y-10200D03*
X174200Y1850D03*
X167200Y-10000D03*
X173000Y-3000D03*
X172900Y6800D03*
X179900Y4000D03*
X176000Y-6900D03*
X167900Y1500D03*
X166350Y25600D03*
X177500Y8400D03*
X179500Y13500D03*
X173000Y18500D03*
X159900Y18200D03*
X180500Y25000D03*
X175000Y13500D03*
X168500Y8400D03*
X168400Y17750D03*
X175000Y25650D03*
X159100Y41850D03*
X162750Y45200D03*
X176450Y41250D03*
X164300Y41800D03*
X168000Y33200D03*
X161050Y36250D03*
X172000Y63150D03*
X161100Y63300D03*
X161750Y92450D03*
X174300Y92900D03*
X179550Y97850D03*
X171400Y79500D03*
X178750Y81000D03*
X165700Y79400D03*
X159900Y79300D03*
X179650Y109900D03*
X174600Y116150D03*
X161800Y116350D03*
X179900Y124100D03*
X176750Y129650D03*
X179900Y144100D03*
X181300Y166900D03*
X162400Y162000D03*
X167500Y161300D03*
X176300Y167100D03*
X166700Y167600D03*
X165500Y175950D03*
X179200Y172000D03*
X163600Y192100D03*
X171600D03*
X179600D03*
X179000Y182100D03*
X168500Y182300D03*
X173050Y174200D03*
X167700Y171900D03*
X203100Y-10850D03*
X192700Y-10750D03*
X195600Y3600D03*
X200400Y3650D03*
X197750Y-450D03*
X197800Y6700D03*
X197700Y-8300D03*
X187400Y-8600D03*
X199500Y18900D03*
X190100Y8250D03*
X191050Y19050D03*
X198450Y24550D03*
X185600Y8700D03*
X189600Y25100D03*
X203700Y19000D03*
X195900Y13800D03*
X198800Y14000D03*
X187600Y14800D03*
X195500Y32150D03*
X196450Y43700D03*
X202800Y44000D03*
X199150Y31800D03*
X199900Y42000D03*
X189800Y63000D03*
X182350D03*
X183600Y55400D03*
X190900Y57000D03*
X196800Y56900D03*
X201450Y56950D03*
X192350Y76350D03*
X198150Y71100D03*
X184650Y72500D03*
X189550Y70600D03*
X195550Y73000D03*
X182750Y80850D03*
X183800Y94200D03*
X187800Y80550D03*
X185000Y89300D03*
X186700Y83500D03*
X184100Y98700D03*
X201300Y79900D03*
X202000Y83300D03*
Y121700D03*
X201950Y118000D03*
X184300Y116100D03*
X202000Y114900D03*
X194400Y106700D03*
X184450Y165350D03*
X197850Y151850D03*
X200700Y163000D03*
X203800Y155200D03*
X201600Y148050D03*
X181700Y161700D03*
X186450Y154650D03*
X195500Y154200D03*
X190800Y166800D03*
X187600Y192100D03*
X195600D03*
X203600D03*
X204100Y174200D03*
X198700Y174600D03*
X187500Y182400D03*
X222600Y-10550D03*
X212800Y-10750D03*
X205500Y3900D03*
X223150Y3300D03*
X207100Y-250D03*
X214600Y6500D03*
X215900Y2300D03*
X226600Y5700D03*
X227100Y-100D03*
X217700Y-1600D03*
X207550Y6850D03*
X227300Y-7900D03*
X217700Y-8400D03*
X208000D03*
X207000Y24900D03*
X216700Y18600D03*
X206650Y12850D03*
X223450Y21300D03*
X207750Y30650D03*
X211250Y50900D03*
X212800Y40250D03*
X216250Y42900D03*
X212000Y33250D03*
X223025Y33125D03*
X219825Y61475D03*
X218400Y59000D03*
X204800Y76550D03*
X211000Y73950D03*
X212800Y76650D03*
X224000Y84000D03*
X219500Y81500D03*
X217050Y92900D03*
X222000Y93000D03*
X219000Y85000D03*
X220650Y97550D03*
X227000Y96000D03*
X221500Y78700D03*
X227500Y86000D03*
X220750Y122900D03*
X224000Y101200D03*
X216300Y119600D03*
X219500Y104600D03*
X212700Y115300D03*
X208800Y102100D03*
X209000Y106700D03*
Y111600D03*
Y120300D03*
X212850Y138600D03*
X217400Y142900D03*
X224400Y129400D03*
X216600Y127600D03*
X217100Y169750D03*
X224750Y169150D03*
X225500Y161850D03*
X208250Y151700D03*
X216100Y150900D03*
X210000Y162600D03*
X205900Y164400D03*
X216100Y165100D03*
X208500Y159600D03*
X212100Y151900D03*
X211600Y192100D03*
X219600D03*
X227600D03*
X218550Y174600D03*
X209800Y174300D03*
X217000Y182200D03*
X238500Y-2750D03*
X232800Y-10600D03*
X229650Y3250D03*
X239200Y3100D03*
X236400Y5800D03*
X238200Y-8200D03*
X235500Y20450D03*
X249800Y31200D03*
X245200Y23600D03*
X229800Y9600D03*
X239200Y11700D03*
X245000Y12600D03*
X239250Y23050D03*
X242400Y20550D03*
X242050Y25819D03*
X232400Y20500D03*
X230000Y14900D03*
X236500Y40300D03*
X238700Y37800D03*
X240500Y40300D03*
X234900Y37900D03*
X232300Y35250D03*
X249500Y49500D03*
X230000Y77000D03*
X245200Y83500D03*
X236900Y100600D03*
X246800Y96300D03*
X234000Y96000D03*
X230500D03*
X237500D03*
X248000Y85500D03*
Y82500D03*
X242500Y84500D03*
X237000Y86000D03*
X234000D03*
X231000D03*
X242700Y112050D03*
X236900Y116450D03*
X242650Y123050D03*
X247900Y122950D03*
X236400Y122500D03*
X236200Y109550D03*
X242900Y115900D03*
X230800Y117800D03*
X247900Y130050D03*
X236200Y129400D03*
X242000Y145700D03*
X234800Y141100D03*
X230800Y142800D03*
X232800Y146000D03*
X249700Y134200D03*
X239900Y131800D03*
X230750Y150850D03*
X248600Y159200D03*
X239200Y150600D03*
X236000Y178700D03*
X257300Y10500D03*
X264600Y29900D03*
X252550Y12000D03*
X268500Y21200D03*
X264900Y44100D03*
X251600Y36300D03*
X255100Y43650D03*
X255650Y36700D03*
X252100Y39150D03*
X264175Y41425D03*
X270950Y74400D03*
X256300Y90000D03*
X253000Y93000D03*
X258750Y87400D03*
X253500Y90000D03*
X260400Y106850D03*
X254000Y110800D03*
X257700Y103500D03*
X258250Y123500D03*
X260750Y127050D03*
X260500Y133300D03*
X258250Y130100D03*
X258500Y136800D03*
X275450Y87300D03*
X280100Y105900D03*
G54D20*
X309100Y38000D03*
G54D11*
X-10800Y28600D03*
X20000Y0D03*
X10000D03*
X34800Y38000D03*
X31800Y163000D03*
X58400Y163700D03*
X125700Y21800D03*
X123100Y71600D03*
Y91600D03*
Y81600D03*
X220800Y154500D03*
X249900Y104400D03*
X239900D03*
X234200Y164500D03*
X279000Y10000D03*
G54D21*
G01X21500Y48300D02*
Y131400D01*
G54D12*
Y48300D03*
Y131400D03*
G54D22*
G01X-10800Y24850D02*
Y28600D01*
G01D02*
Y32350D01*
G01X-14550Y28600D02*
X-10800D01*
G01D02*
X-7050D01*
G01X10000Y-3750D02*
Y0D01*
G01D02*
Y3750D01*
G01X6250Y0D02*
X10000D01*
G01D02*
X13750D01*
G01X78800Y84500D02*
X81550D01*
G01X78800Y89500D02*
X81550D01*
G01X86800Y182400D02*
Y186400D01*
G01D02*
Y190400D01*
G01X82800Y186400D02*
X86800D01*
G01D02*
X90800D01*
G01X131800Y106300D02*
Y102300D01*
X128100Y98600D01*
Y67600D01*
X124500Y64000D01*
X117500D01*
X112500Y59000D01*
Y53000D01*
X108500Y49000D01*
X95000D01*
G01X131800Y111300D02*
X134550D01*
G01X131800Y116300D02*
X134550D01*
G01X142400Y-7600D02*
Y-3500D01*
G01D02*
Y600D01*
G01X138300Y-3500D02*
X142400D01*
G01D02*
X146500D01*
G01X152400Y-7600D02*
Y-3500D01*
G01D02*
Y600D01*
G01X148300Y-3500D02*
X152400D01*
G01D02*
X156500D01*
G01X142300Y42200D02*
Y46200D01*
G01D02*
Y50200D01*
G01Y46200D02*
X146300D01*
G01X157300Y54700D02*
Y58700D01*
G01D02*
Y62700D01*
G01X153300Y58700D02*
X157300D01*
G01D02*
X161300D01*
G01X219600Y107500D02*
Y112800D01*
G01D02*
Y118100D01*
G01X214300Y112800D02*
X219600D01*
G01D02*
X224900D01*
G01X279000Y6250D02*
Y10000D01*
G01D02*
Y13750D01*
G01X275250Y10000D02*
X279000D01*
G01D02*
X282750D01*
G54D13*
G01X-63300Y-139100D02*
X336700D01*
G01X-63300Y-109100D02*
Y-89100D01*
X336700D01*
G01X-13300Y-159100D02*
Y-139100D01*
G01X86300Y174500D02*
X91800Y180000D01*
X230500D01*
X245350Y165150D01*
Y100150D01*
X247050Y98450D01*
X251250D01*
X263950Y85750D01*
Y78250D01*
X256601Y70901D01*
Y70601D01*
X255000Y69000D01*
Y55000D01*
X249500Y49500D01*
G01X112200Y-159100D02*
Y-139100D01*
G01X111700Y-89100D02*
Y-59100D01*
G01X161700Y-159100D02*
Y-139100D01*
X41300Y-2600D03*
X36500Y182200D03*
X252800Y-2600D03*
Y182200D03*
G54D23*
G01X-1600Y26900D02*
Y40600D01*
X4000Y46200D01*
Y105400D01*
G01X34800Y38000D02*
Y46400D01*
X47800Y59400D01*
G54D14*
X25000Y103500D03*
X41150Y104200D03*
X34600Y104250D03*
X35800Y118400D03*
X57100Y24650D03*
X63600Y24700D03*
X53700Y34100D03*
X52750Y99450D03*
X58450Y159100D03*
X60000Y176900D03*
X52900Y178300D03*
X64100Y174800D03*
X71100Y92100D03*
X70850Y81750D03*
X71100Y86950D03*
X82450Y110650D03*
X83900Y176400D03*
X112000Y182500D03*
X111500Y176600D03*
X131600Y134500D03*
X120600Y160500D03*
X121300Y182200D03*
X156400Y7500D03*
X148300Y6400D03*
X154050Y31000D03*
X146800Y65500D03*
X153500Y85400D03*
X150200Y122900D03*
X151300Y117800D03*
X150100Y133700D03*
X155400Y129700D03*
X154300Y133700D03*
X150100Y129600D03*
X158150Y163350D03*
X181000Y-10600D03*
X178900Y17000D03*
X177350Y33700D03*
X180850Y33550D03*
X179900Y86600D03*
X163700Y133800D03*
X172400Y133600D03*
X160600Y129800D03*
X165000D03*
X168750Y133650D03*
X159450D03*
X179200Y146700D03*
X177100Y133700D03*
X172100Y129800D03*
X178550Y164500D03*
X174450Y165000D03*
X176350Y169800D03*
X170700Y177800D03*
X179000Y177600D03*
X186050Y1700D03*
X189800Y3950D03*
X187700Y17550D03*
X185650Y12950D03*
X195600Y19400D03*
X183100Y41800D03*
X205550Y42000D03*
X192150Y33600D03*
X193100Y42200D03*
X184200Y122000D03*
X203850Y133600D03*
X203950Y138650D03*
X201800Y144350D03*
X183800Y129800D03*
X183600Y133500D03*
X184800Y141600D03*
X197950Y148300D03*
X192300Y170900D03*
X192100Y153400D03*
X194500Y163100D03*
X204400Y177650D03*
X195950Y177900D03*
X187700Y177000D03*
X199000Y182100D03*
X216600Y25300D03*
X208200Y44150D03*
X227750Y40700D03*
X222550Y43350D03*
X216250Y38750D03*
X215150Y56400D03*
X216250Y60900D03*
X217700Y72200D03*
X215600Y84500D03*
X210500Y89500D03*
X214600Y89100D03*
X213200Y98700D03*
X221500Y88500D03*
X208400Y93600D03*
X214800Y107900D03*
X224500Y121600D03*
X224800Y107500D03*
X208900Y142950D03*
X212100Y125800D03*
X224800Y138100D03*
X222400Y142400D03*
X218500Y138600D03*
X208900Y129700D03*
X225150Y150500D03*
X215500Y158100D03*
X223650Y177850D03*
X214550Y177550D03*
X225500Y174200D03*
X226700Y182100D03*
X241400Y8200D03*
X249700Y27800D03*
X247400Y9700D03*
X248550Y16000D03*
X235500Y12800D03*
X242850Y28950D03*
X248300Y46750D03*
X248800Y52550D03*
X245000Y47500D03*
X239900D03*
X235000Y47350D03*
X229600Y50300D03*
X229400Y54850D03*
X235200Y52550D03*
X239900D03*
X243700Y52600D03*
X229350Y64600D03*
X229400Y59350D03*
X248900Y56400D03*
X235200Y60450D03*
X239900D03*
X243700Y56600D03*
X239900Y56550D03*
X235200Y56450D03*
X234850Y64950D03*
X242800Y100250D03*
X243000Y108550D03*
X248200Y111150D03*
X237900Y138600D03*
X250100Y138200D03*
X242100Y129300D03*
Y139100D03*
X238550Y168950D03*
X238900Y158800D03*
X229600Y165600D03*
X230050Y157000D03*
X233400Y170700D03*
X248300Y149100D03*
X241700Y163300D03*
X243100Y154500D03*
X243800Y170300D03*
X248500Y166900D03*
X229600Y177300D03*
X240900Y175000D03*
X238700Y192400D03*
X269800Y4000D03*
X267000Y600D03*
X273800Y8000D03*
Y4000D03*
X274000Y600D03*
X265800Y4000D03*
X261150Y29900D03*
X266100Y14950D03*
X255600Y22800D03*
X261800Y12800D03*
X258000Y20200D03*
X260500Y18000D03*
X264800Y26400D03*
X273800Y20000D03*
X269800Y28000D03*
Y24000D03*
X273800Y16000D03*
Y12000D03*
X262500Y8700D03*
X267050Y41450D03*
X258250Y35850D03*
X264900Y33750D03*
X271000Y51500D03*
X273700Y43400D03*
X273800Y40000D03*
Y36000D03*
X269800Y44000D03*
X269900Y39700D03*
X269800Y36000D03*
Y32000D03*
X270250Y47350D03*
X261425Y44475D03*
X258900Y32450D03*
X268100Y49900D03*
X267500Y64500D03*
X258900Y77000D03*
X272500Y68000D03*
X273000Y58500D03*
X269500D03*
X271500Y55000D03*
X271000Y64500D03*
X264000D03*
X262000Y68200D03*
X268000Y55500D03*
X257450Y64000D03*
X264200Y58350D03*
X270600Y70800D03*
X267800Y68300D03*
X258900Y99900D03*
X257400Y110250D03*
X260750Y113500D03*
X252800Y115150D03*
X254300Y145500D03*
X259450Y154950D03*
X259100Y167100D03*
X254300Y152600D03*
X260700Y150000D03*
X254000Y168000D03*
Y163100D03*
X264000Y192450D03*
X288600Y4000D03*
Y8000D03*
Y-4000D03*
Y0D03*
Y-8000D03*
X277800Y4000D03*
Y0D03*
Y-4000D03*
Y-8000D03*
X281800Y4000D03*
Y-4000D03*
Y0D03*
Y-8000D03*
X292600Y4000D03*
Y8000D03*
Y-8000D03*
Y-4000D03*
Y0D03*
X296600Y4000D03*
Y0D03*
Y-4000D03*
Y-8000D03*
Y8000D03*
X288600Y20000D03*
X287500Y24000D03*
Y28000D03*
Y31600D03*
X288600Y12000D03*
Y16000D03*
X277800Y20000D03*
Y16000D03*
X281800Y20000D03*
X282900Y24000D03*
Y28000D03*
X281800Y16000D03*
X292600Y20000D03*
X291700Y24100D03*
Y28100D03*
X292600Y12000D03*
Y16000D03*
X296600Y20000D03*
Y16000D03*
Y12000D03*
X289500Y45000D03*
Y48500D03*
Y52000D03*
X285000Y45000D03*
Y48500D03*
Y52000D03*
X278000Y43600D03*
X277500Y40000D03*
X277400Y35800D03*
X282000Y46500D03*
Y50000D03*
Y53500D03*
X282900Y32000D03*
X281500Y35000D03*
X280500Y38500D03*
X282000Y43000D03*
X292500Y47000D03*
Y50500D03*
X291700Y32100D03*
X293200Y35300D03*
X293500Y40000D03*
X293000Y43500D03*
X292500Y54000D03*
X296400Y43400D03*
X297000Y40000D03*
X296600Y36000D03*
X298000Y68000D03*
X289500Y55500D03*
X285000D03*
X298000Y58500D03*
X294500D03*
X291000D03*
X283500D03*
X279000Y55000D03*
X280000Y58500D03*
X276500D03*
X298000Y64500D03*
X291000D03*
X287000D03*
X283500Y64000D03*
X280000D03*
X276500D03*
X294500Y68500D03*
X275500Y55000D03*
X287000Y68000D03*
X291000D03*
X280000Y67500D03*
X276500D03*
X283500D03*
X288000Y71400D03*
X292000D03*
X280000D03*
X276000D03*
X284000D03*
X275000Y75000D03*
X288000Y75400D03*
X292000D03*
X280000D03*
X284000D03*
X296100Y71800D03*
X296000Y55500D03*
Y75400D03*
X276050Y78650D03*
X279800Y87000D03*
X276900Y82800D03*
X288000Y82700D03*
X283900Y82800D03*
X291700D03*
X288000Y86900D03*
X292000Y91400D03*
X288000Y79400D03*
X292000D03*
X280000D03*
X284000D03*
X280200Y82800D03*
X292000Y87000D03*
X283800Y86900D03*
X296000Y79400D03*
Y83400D03*
Y87400D03*
Y91400D03*
Y95400D03*
Y99400D03*
X283000Y119000D03*
X279200Y113200D03*
X296000Y103400D03*
Y107400D03*
Y111400D03*
Y115400D03*
Y119400D03*
Y123400D03*
X279100Y147900D03*
X279300Y135100D03*
X283000Y142000D03*
X279100Y125400D03*
X296000Y127400D03*
Y131400D03*
Y135400D03*
Y139400D03*
Y143400D03*
Y147400D03*
Y155400D03*
Y159400D03*
Y163400D03*
Y167400D03*
Y151400D03*
Y191400D03*
Y179400D03*
Y183400D03*
Y187400D03*
Y171400D03*
Y175400D03*
X304600Y4000D03*
Y8000D03*
Y-8000D03*
Y-4000D03*
Y0D03*
X300600Y8000D03*
X308600D03*
X300600Y4000D03*
Y0D03*
Y-4000D03*
Y-8000D03*
X308600D03*
Y-4000D03*
Y0D03*
Y4000D03*
X300600Y20000D03*
Y16000D03*
Y12000D03*
X304600Y28000D03*
Y24000D03*
Y20000D03*
Y16000D03*
Y12000D03*
X308600D03*
Y16000D03*
Y20000D03*
Y24000D03*
Y28000D03*
X300600Y43400D03*
Y40000D03*
Y36000D03*
X304600Y52000D03*
Y48000D03*
Y44000D03*
Y40000D03*
Y36000D03*
X308600Y48000D03*
Y52000D03*
X304600Y32000D03*
X309000Y58500D03*
X305000D03*
X301500D03*
X309000Y64500D03*
X305000D03*
X301450Y64450D03*
X300000Y71400D03*
X301500Y68000D03*
X304000Y71400D03*
X305000Y68000D03*
X308500D03*
X308000Y71400D03*
X303000Y55500D03*
X307500D03*
X299500D03*
X300000Y75400D03*
X304000D03*
X308000D03*
X300000Y79400D03*
Y83400D03*
Y87400D03*
Y91400D03*
Y95400D03*
Y99400D03*
X304000Y79400D03*
Y83400D03*
Y87400D03*
Y91400D03*
Y95400D03*
Y99400D03*
X308000Y79400D03*
Y83400D03*
Y87400D03*
Y91400D03*
Y95400D03*
Y99400D03*
X300000Y107400D03*
Y111400D03*
Y115400D03*
Y119400D03*
Y123400D03*
Y103400D03*
X304000D03*
Y107400D03*
Y111400D03*
Y115400D03*
Y119400D03*
Y123400D03*
X308000Y103400D03*
Y107400D03*
Y111400D03*
Y115400D03*
Y119400D03*
Y123400D03*
X300000Y131400D03*
Y135400D03*
Y139400D03*
Y143400D03*
Y147400D03*
Y127400D03*
X304000D03*
Y131400D03*
Y135400D03*
Y139400D03*
Y143400D03*
Y147400D03*
X308000Y127400D03*
Y131400D03*
Y135400D03*
Y139400D03*
Y143400D03*
Y147400D03*
X300000Y155400D03*
Y159400D03*
Y163400D03*
Y167400D03*
Y151400D03*
X304000Y155400D03*
Y159400D03*
Y163400D03*
Y167400D03*
Y151400D03*
X308000D03*
Y155400D03*
Y159400D03*
Y163400D03*
Y167400D03*
X304000Y191400D03*
X300000Y179400D03*
Y183400D03*
Y187400D03*
Y191400D03*
Y171400D03*
Y175400D03*
X304000Y179400D03*
Y183400D03*
Y187400D03*
Y171400D03*
Y175400D03*
X308000Y171400D03*
Y175400D03*
Y179400D03*
Y183400D03*
Y187400D03*
Y191400D03*
G54D24*
G01X-59875Y-153325D02*
X-59350Y-152800D01*
X-58900Y-152500D01*
X-58300Y-152350D01*
X-57775Y-152500D01*
X-57400Y-152800D01*
X-57100Y-153250D01*
X-57025Y-153775D01*
X-57100Y-154225D01*
X-57400Y-154675D01*
X-57850Y-155050D01*
X-58375Y-155200D01*
X-58975Y-155050D01*
X-59500Y-154600D01*
X-59800Y-153925D01*
X-59875Y-153175D01*
X-59725Y-152200D01*
X-59500Y-151675D01*
X-59125Y-151150D01*
X-58600Y-150775D01*
X-58075Y-150700D01*
X-57550Y-150850D01*
X-57175Y-151225D01*
G01X-46850Y-155200D02*
X-47450Y-155125D01*
X-47975Y-154825D01*
X-48425Y-154375D01*
X-48725Y-153850D01*
X-48875Y-153250D01*
Y-152650D01*
X-48725Y-152050D01*
X-48425Y-151525D01*
X-47975Y-151075D01*
X-47450Y-150775D01*
X-46850Y-150700D01*
X-46250Y-150775D01*
X-45725Y-151075D01*
X-45275Y-151525D01*
X-44975Y-152050D01*
X-44825Y-152650D01*
Y-153250D01*
X-44975Y-153850D01*
X-45275Y-154375D01*
X-45725Y-154825D01*
X-46250Y-155125D01*
X-46850Y-155200D01*
G01X-42475D02*
Y-150700D01*
X-39625D01*
G01X-40675Y-152875D02*
X-42475D01*
G01X-29450Y-155200D02*
Y-150700D01*
X-30350Y-151600D01*
G01Y-155200D02*
X-28550D01*
G01X-23650Y-150700D02*
X-24250Y-150850D01*
X-24700Y-151225D01*
X-25000Y-151675D01*
X-25225Y-152275D01*
X-25300Y-152950D01*
X-25225Y-153625D01*
X-25000Y-154225D01*
X-24700Y-154675D01*
X-24250Y-155050D01*
X-23650Y-155200D01*
X-23050Y-155050D01*
X-22600Y-154675D01*
X-22300Y-154225D01*
X-22075Y-153625D01*
X-22000Y-152950D01*
X-22075Y-152275D01*
X-22300Y-151675D01*
X-22600Y-151225D01*
X-23050Y-150850D01*
X-23650Y-150700D01*
G01X-59775Y-146567D02*
X-59308Y-146900D01*
X-58783Y-147100D01*
X-58317D01*
X-57850Y-146900D01*
X-57500Y-146567D01*
X-57325Y-146100D01*
X-57442Y-145633D01*
X-57733Y-145233D01*
X-58258Y-144967D01*
X-58958Y-144833D01*
X-59367Y-144567D01*
X-59542Y-144100D01*
X-59425Y-143633D01*
X-59133Y-143300D01*
X-58725Y-143100D01*
X-58317D01*
X-57908Y-143233D01*
X-57558Y-143567D01*
G01X-54975Y-147100D02*
Y-143100D01*
G01X-52525D02*
Y-147100D01*
G01Y-145100D02*
X-54975D01*
G01X-47783Y-147100D02*
X-50117D01*
Y-143100D01*
X-47783D01*
G01X-48717Y-145033D02*
X-50117D01*
G01X-42983Y-147100D02*
X-45317D01*
Y-143100D01*
X-42983D01*
G01X-43917Y-145033D02*
X-45317D01*
G01X-39350Y-143100D02*
Y-147100D01*
G01X-40692Y-143100D02*
X-38008D01*
G01X-51550Y-128100D02*
X-52017Y-128033D01*
X-52425Y-127767D01*
X-52775Y-127367D01*
X-53008Y-126900D01*
X-53125Y-126367D01*
Y-125833D01*
X-53008Y-125300D01*
X-52775Y-124833D01*
X-52425Y-124433D01*
X-52017Y-124167D01*
X-51550Y-124100D01*
X-51083Y-124167D01*
X-50675Y-124433D01*
X-50325Y-124833D01*
X-50092Y-125300D01*
X-49975Y-125833D01*
Y-126367D01*
X-50092Y-126900D01*
X-50325Y-127367D01*
X-50675Y-127767D01*
X-51083Y-128033D01*
X-51550Y-128100D01*
G01X-47917D02*
Y-124100D01*
X-46458D01*
X-45992Y-124300D01*
X-45700Y-124567D01*
X-45583Y-125100D01*
X-45700Y-125633D01*
X-46050Y-125967D01*
X-46458Y-126167D01*
X-47917D01*
G01X-46458D02*
X-45583Y-128100D01*
G01X-37850Y-124100D02*
X-36450D01*
G01X-37150D02*
Y-128100D01*
G01X-37850D02*
X-36450D01*
G01X-33692D02*
Y-124100D01*
X-31008Y-128100D01*
Y-124100D01*
G01X-23917Y-128100D02*
Y-124100D01*
X-22517D01*
X-22050Y-124300D01*
X-21700Y-124767D01*
X-21583Y-125300D01*
X-21700Y-125833D01*
X-21992Y-126233D01*
X-22517Y-126433D01*
X-23917D01*
G01X-19408Y-128100D02*
X-17950Y-124100D01*
X-16492Y-128100D01*
G01X-17017Y-126700D02*
X-18883D01*
G01X-14317Y-128100D02*
Y-124100D01*
X-12858D01*
X-12392Y-124300D01*
X-12100Y-124567D01*
X-11983Y-125100D01*
X-12100Y-125633D01*
X-12450Y-125967D01*
X-12858Y-126167D01*
X-14317D01*
G01X-12858D02*
X-11983Y-128100D01*
G01X-8350Y-124100D02*
Y-128100D01*
G01X-9692Y-124100D02*
X-7008D01*
G01X-500D02*
X317Y-128100D01*
X1250Y-124100D01*
X2183Y-128100D01*
X3000Y-124100D01*
G01X5350D02*
X6750D01*
G01X6050D02*
Y-128100D01*
G01X5350D02*
X6750D01*
G01X10850Y-124100D02*
Y-128100D01*
G01X9508Y-124100D02*
X12192D01*
G01X14425Y-128100D02*
Y-124100D01*
G01X16875D02*
Y-128100D01*
G01Y-126100D02*
X14425D01*
G01X20450Y-128100D02*
X19983Y-128033D01*
X19575Y-127767D01*
X19225Y-127367D01*
X18992Y-126900D01*
X18875Y-126367D01*
Y-125833D01*
X18992Y-125300D01*
X19225Y-124833D01*
X19575Y-124433D01*
X19983Y-124167D01*
X20450Y-124100D01*
X20917Y-124167D01*
X21325Y-124433D01*
X21675Y-124833D01*
X21908Y-125300D01*
X22025Y-125833D01*
Y-126367D01*
X21908Y-126900D01*
X21675Y-127367D01*
X21325Y-127767D01*
X20917Y-128033D01*
X20450Y-128100D01*
G01X23967Y-124100D02*
Y-126967D01*
X24200Y-127567D01*
X24667Y-127967D01*
X25250Y-128100D01*
X25833Y-127967D01*
X26300Y-127567D01*
X26533Y-126967D01*
Y-124100D01*
G01X30050D02*
Y-128100D01*
G01X28708Y-124100D02*
X31392D01*
G01X39650D02*
Y-128100D01*
G01X38308Y-124100D02*
X40992D01*
G01X43225Y-128100D02*
Y-124100D01*
G01X45675D02*
Y-128100D01*
G01Y-126100D02*
X43225D01*
G01X50417Y-128100D02*
X48083D01*
Y-124100D01*
X50417D01*
G01X49483Y-126033D02*
X48083D01*
G01X60133Y-124433D02*
X59783Y-124233D01*
X59375Y-124100D01*
X58908D01*
X58383Y-124300D01*
X57975Y-124633D01*
X57683Y-125033D01*
X57450Y-125700D01*
X57392Y-126300D01*
X57508Y-126900D01*
X57683Y-127300D01*
X58033Y-127700D01*
X58442Y-127967D01*
X58850Y-128100D01*
X59258D01*
X59667Y-127967D01*
X60017Y-127767D01*
X60308Y-127500D01*
G01X63650Y-128100D02*
X63183Y-128033D01*
X62775Y-127767D01*
X62425Y-127367D01*
X62192Y-126900D01*
X62075Y-126367D01*
Y-125833D01*
X62192Y-125300D01*
X62425Y-124833D01*
X62775Y-124433D01*
X63183Y-124167D01*
X63650Y-124100D01*
X64117Y-124167D01*
X64525Y-124433D01*
X64875Y-124833D01*
X65108Y-125300D01*
X65225Y-125833D01*
Y-126367D01*
X65108Y-126900D01*
X64875Y-127367D01*
X64525Y-127767D01*
X64117Y-128033D01*
X63650Y-128100D01*
G01X67108D02*
Y-124100D01*
X69792Y-128100D01*
Y-124100D01*
G01X72025Y-127567D02*
X72492Y-127900D01*
X73017Y-128100D01*
X73483D01*
X73950Y-127900D01*
X74300Y-127567D01*
X74475Y-127100D01*
X74358Y-126633D01*
X74067Y-126233D01*
X73542Y-125967D01*
X72842Y-125833D01*
X72433Y-125567D01*
X72258Y-125100D01*
X72375Y-124633D01*
X72667Y-124300D01*
X73075Y-124100D01*
X73483D01*
X73892Y-124233D01*
X74242Y-124567D01*
G01X79217Y-128100D02*
X76883D01*
Y-124100D01*
X79217D01*
G01X78283Y-126033D02*
X76883D01*
G01X81508Y-128100D02*
Y-124100D01*
X84192Y-128100D01*
Y-124100D01*
G01X87650D02*
Y-128100D01*
G01X86308Y-124100D02*
X88992D01*
G01X97250Y-128100D02*
X96783Y-128033D01*
X96375Y-127767D01*
X96025Y-127367D01*
X95792Y-126900D01*
X95675Y-126367D01*
Y-125833D01*
X95792Y-125300D01*
X96025Y-124833D01*
X96375Y-124433D01*
X96783Y-124167D01*
X97250Y-124100D01*
X97717Y-124167D01*
X98125Y-124433D01*
X98475Y-124833D01*
X98708Y-125300D01*
X98825Y-125833D01*
Y-126367D01*
X98708Y-126900D01*
X98475Y-127367D01*
X98125Y-127767D01*
X97717Y-128033D01*
X97250Y-128100D01*
G01X100942D02*
Y-124100D01*
X103158D01*
G01X102342Y-126033D02*
X100942D01*
G01X-52717Y-120100D02*
Y-116100D01*
X-51317D01*
X-50850Y-116300D01*
X-50500Y-116767D01*
X-50383Y-117300D01*
X-50500Y-117833D01*
X-50792Y-118233D01*
X-51317Y-118433D01*
X-52717D01*
G01X-47917Y-120100D02*
Y-116100D01*
X-46458D01*
X-45992Y-116300D01*
X-45700Y-116567D01*
X-45583Y-117100D01*
X-45700Y-117633D01*
X-46050Y-117967D01*
X-46458Y-118167D01*
X-47917D01*
G01X-46458D02*
X-45583Y-120100D01*
G01X-41950D02*
X-42417Y-120033D01*
X-42825Y-119767D01*
X-43175Y-119367D01*
X-43408Y-118900D01*
X-43525Y-118367D01*
Y-117833D01*
X-43408Y-117300D01*
X-43175Y-116833D01*
X-42825Y-116433D01*
X-42417Y-116167D01*
X-41950Y-116100D01*
X-41483Y-116167D01*
X-41075Y-116433D01*
X-40725Y-116833D01*
X-40492Y-117300D01*
X-40375Y-117833D01*
Y-118367D01*
X-40492Y-118900D01*
X-40725Y-119367D01*
X-41075Y-119767D01*
X-41483Y-120033D01*
X-41950Y-120100D01*
G01X-35867Y-116433D02*
X-36217Y-116233D01*
X-36625Y-116100D01*
X-37092D01*
X-37617Y-116300D01*
X-38025Y-116633D01*
X-38317Y-117033D01*
X-38550Y-117700D01*
X-38608Y-118300D01*
X-38492Y-118900D01*
X-38317Y-119300D01*
X-37967Y-119700D01*
X-37558Y-119967D01*
X-37150Y-120100D01*
X-36742D01*
X-36333Y-119967D01*
X-35983Y-119767D01*
X-35692Y-119500D01*
G01X-33633Y-116100D02*
Y-118967D01*
X-33400Y-119567D01*
X-32933Y-119967D01*
X-32350Y-120100D01*
X-31767Y-119967D01*
X-31300Y-119567D01*
X-31067Y-118967D01*
Y-116100D01*
G01X-28717Y-120100D02*
Y-116100D01*
X-27258D01*
X-26792Y-116300D01*
X-26500Y-116567D01*
X-26383Y-117100D01*
X-26500Y-117633D01*
X-26850Y-117967D01*
X-27258Y-118167D01*
X-28717D01*
G01X-27258D02*
X-26383Y-120100D01*
G01X-21583D02*
X-23917D01*
Y-116100D01*
X-21583D01*
G01X-22517Y-118033D02*
X-23917D01*
G01X-19467Y-120100D02*
Y-116100D01*
X-17950Y-119433D01*
X-16433Y-116100D01*
Y-120100D01*
G01X-11983D02*
X-14317D01*
Y-116100D01*
X-11983D01*
G01X-12917Y-118033D02*
X-14317D01*
G01X-9692Y-120100D02*
Y-116100D01*
X-7008Y-120100D01*
Y-116100D01*
G01X-3550D02*
Y-120100D01*
G01X-4892Y-116100D02*
X-2208D01*
G01X6050Y-120100D02*
X5583Y-120033D01*
X5175Y-119767D01*
X4825Y-119367D01*
X4592Y-118900D01*
X4475Y-118367D01*
Y-117833D01*
X4592Y-117300D01*
X4825Y-116833D01*
X5175Y-116433D01*
X5583Y-116167D01*
X6050Y-116100D01*
X6517Y-116167D01*
X6925Y-116433D01*
X7275Y-116833D01*
X7508Y-117300D01*
X7625Y-117833D01*
Y-118367D01*
X7508Y-118900D01*
X7275Y-119367D01*
X6925Y-119767D01*
X6517Y-120033D01*
X6050Y-120100D01*
G01X9683D02*
Y-116100D01*
X11142D01*
X11608Y-116300D01*
X11900Y-116567D01*
X12017Y-117100D01*
X11900Y-117633D01*
X11550Y-117967D01*
X11142Y-118167D01*
X9683D01*
G01X11142D02*
X12017Y-120100D01*
G01X18933D02*
Y-116100D01*
X20450Y-119433D01*
X21967Y-116100D01*
Y-120100D01*
G01X23792D02*
X25250Y-116100D01*
X26708Y-120100D01*
G01X26183Y-118700D02*
X24317D01*
G01X28708Y-120100D02*
Y-116100D01*
X31392Y-120100D01*
Y-116100D01*
G01X33567D02*
Y-118967D01*
X33800Y-119567D01*
X34267Y-119967D01*
X34850Y-120100D01*
X35433Y-119967D01*
X35900Y-119567D01*
X36133Y-118967D01*
Y-116100D01*
G01X38542Y-120100D02*
Y-116100D01*
X40758D01*
G01X39942Y-118033D02*
X38542D01*
G01X42992Y-120100D02*
X44450Y-116100D01*
X45908Y-120100D01*
G01X45383Y-118700D02*
X43517D01*
G01X50533Y-116433D02*
X50183Y-116233D01*
X49775Y-116100D01*
X49308D01*
X48783Y-116300D01*
X48375Y-116633D01*
X48083Y-117033D01*
X47850Y-117700D01*
X47792Y-118300D01*
X47908Y-118900D01*
X48083Y-119300D01*
X48433Y-119700D01*
X48842Y-119967D01*
X49250Y-120100D01*
X49658D01*
X50067Y-119967D01*
X50417Y-119767D01*
X50708Y-119500D01*
G01X54050Y-116100D02*
Y-120100D01*
G01X52708Y-116100D02*
X55392D01*
G01X57567D02*
Y-118967D01*
X57800Y-119567D01*
X58267Y-119967D01*
X58850Y-120100D01*
X59433Y-119967D01*
X59900Y-119567D01*
X60133Y-118967D01*
Y-116100D01*
G01X62483Y-120100D02*
Y-116100D01*
X63942D01*
X64408Y-116300D01*
X64700Y-116567D01*
X64817Y-117100D01*
X64700Y-117633D01*
X64350Y-117967D01*
X63942Y-118167D01*
X62483D01*
G01X63942D02*
X64817Y-120100D01*
G01X69617D02*
X67283D01*
Y-116100D01*
X69617D01*
G01X68683Y-118033D02*
X67283D01*
G01X77350Y-116100D02*
X78750D01*
G01X78050D02*
Y-120100D01*
G01X77350D02*
X78750D01*
G01X81508D02*
Y-116100D01*
X84192Y-120100D01*
Y-116100D01*
G01X90700D02*
X91517Y-120100D01*
X92450Y-116100D01*
X93383Y-120100D01*
X94200Y-116100D01*
G01X96025Y-120100D02*
Y-116100D01*
G01X98475D02*
Y-120100D01*
G01Y-118100D02*
X96025D01*
G01X102050Y-120100D02*
X101583Y-120033D01*
X101175Y-119767D01*
X100825Y-119367D01*
X100592Y-118900D01*
X100475Y-118367D01*
Y-117833D01*
X100592Y-117300D01*
X100825Y-116833D01*
X101175Y-116433D01*
X101583Y-116167D01*
X102050Y-116100D01*
X102517Y-116167D01*
X102925Y-116433D01*
X103275Y-116833D01*
X103508Y-117300D01*
X103625Y-117833D01*
Y-118367D01*
X103508Y-118900D01*
X103275Y-119367D01*
X102925Y-119767D01*
X102517Y-120033D01*
X102050Y-120100D01*
G01X105683Y-116100D02*
Y-120100D01*
X108017D01*
G01X112817D02*
X110483D01*
Y-116100D01*
X112817D01*
G01X111883Y-118033D02*
X110483D01*
G01X-52892Y-112100D02*
Y-108100D01*
X-50208Y-112100D01*
Y-108100D01*
G01X-46750Y-112100D02*
X-47217Y-112033D01*
X-47625Y-111767D01*
X-47975Y-111367D01*
X-48208Y-110900D01*
X-48325Y-110367D01*
Y-109833D01*
X-48208Y-109300D01*
X-47975Y-108833D01*
X-47625Y-108433D01*
X-47217Y-108167D01*
X-46750Y-108100D01*
X-46283Y-108167D01*
X-45875Y-108433D01*
X-45525Y-108833D01*
X-45292Y-109300D01*
X-45175Y-109833D01*
Y-110367D01*
X-45292Y-110900D01*
X-45525Y-111367D01*
X-45875Y-111767D01*
X-46283Y-112033D01*
X-46750Y-112100D01*
G01X-41950Y-108100D02*
Y-112100D01*
G01X-43292Y-108100D02*
X-40608D01*
G01X-31883Y-109967D02*
X-31650Y-109767D01*
X-31475Y-109433D01*
X-31358Y-108967D01*
X-31475Y-108567D01*
X-31708Y-108300D01*
X-32117Y-108100D01*
X-33692D01*
Y-112100D01*
X-31767D01*
X-31358Y-111833D01*
X-31125Y-111433D01*
X-31008Y-110967D01*
X-31125Y-110500D01*
X-31475Y-110100D01*
X-31883Y-109967D01*
X-33692D01*
G01X-26383Y-112100D02*
X-28717D01*
Y-108100D01*
X-26383D01*
G01X-27317Y-110033D02*
X-28717D01*
G01X-19233Y-108100D02*
Y-110967D01*
X-19000Y-111567D01*
X-18533Y-111967D01*
X-17950Y-112100D01*
X-17367Y-111967D01*
X-16900Y-111567D01*
X-16667Y-110967D01*
Y-108100D01*
G01X-14375Y-111567D02*
X-13908Y-111900D01*
X-13383Y-112100D01*
X-12917D01*
X-12450Y-111900D01*
X-12100Y-111567D01*
X-11925Y-111100D01*
X-12042Y-110633D01*
X-12333Y-110233D01*
X-12858Y-109967D01*
X-13558Y-109833D01*
X-13967Y-109567D01*
X-14142Y-109100D01*
X-14025Y-108633D01*
X-13733Y-108300D01*
X-13325Y-108100D01*
X-12917D01*
X-12508Y-108233D01*
X-12158Y-108567D01*
G01X-7183Y-112100D02*
X-9517D01*
Y-108100D01*
X-7183D01*
G01X-8117Y-110033D02*
X-9517D01*
G01X-4833Y-112100D02*
Y-108100D01*
X-3667D01*
X-3200Y-108300D01*
X-2850Y-108567D01*
X-2558Y-108967D01*
X-2325Y-109433D01*
X-2267Y-110100D01*
X-2325Y-110767D01*
X-2558Y-111233D01*
X-2850Y-111633D01*
X-3200Y-111900D01*
X-3667Y-112100D01*
X-4833D01*
G01X4942D02*
Y-108100D01*
X7158D01*
G01X6342Y-110033D02*
X4942D01*
G01X10850Y-112100D02*
X10383Y-112033D01*
X9975Y-111767D01*
X9625Y-111367D01*
X9392Y-110900D01*
X9275Y-110367D01*
Y-109833D01*
X9392Y-109300D01*
X9625Y-108833D01*
X9975Y-108433D01*
X10383Y-108167D01*
X10850Y-108100D01*
X11317Y-108167D01*
X11725Y-108433D01*
X12075Y-108833D01*
X12308Y-109300D01*
X12425Y-109833D01*
Y-110367D01*
X12308Y-110900D01*
X12075Y-111367D01*
X11725Y-111767D01*
X11317Y-112033D01*
X10850Y-112100D01*
G01X14483D02*
Y-108100D01*
X15942D01*
X16408Y-108300D01*
X16700Y-108567D01*
X16817Y-109100D01*
X16700Y-109633D01*
X16350Y-109967D01*
X15942Y-110167D01*
X14483D01*
G01X15942D02*
X16817Y-112100D01*
G01X26417D02*
X24083D01*
Y-108100D01*
X26417D01*
G01X25483Y-110033D02*
X24083D01*
G01X28708Y-112100D02*
Y-108100D01*
X31392Y-112100D01*
Y-108100D01*
G01X35200Y-110100D02*
X36367D01*
Y-111300D01*
X36017Y-111700D01*
X35608Y-111967D01*
X35025Y-112100D01*
X34442Y-111967D01*
X34033Y-111700D01*
X33683Y-111300D01*
X33450Y-110833D01*
X33333Y-110300D01*
Y-109833D01*
X33450Y-109433D01*
X33683Y-108967D01*
X34033Y-108567D01*
X34383Y-108300D01*
X34850Y-108100D01*
X35258D01*
X35725Y-108233D01*
X36075Y-108500D01*
G01X38950Y-108100D02*
X40350D01*
G01X39650D02*
Y-112100D01*
G01X38950D02*
X40350D01*
G01X43108D02*
Y-108100D01*
X45792Y-112100D01*
Y-108100D01*
G01X50417Y-112100D02*
X48083D01*
Y-108100D01*
X50417D01*
G01X49483Y-110033D02*
X48083D01*
G01X55217Y-112100D02*
X52883D01*
Y-108100D01*
X55217D01*
G01X54283Y-110033D02*
X52883D01*
G01X57683Y-112100D02*
Y-108100D01*
X59142D01*
X59608Y-108300D01*
X59900Y-108567D01*
X60017Y-109100D01*
X59900Y-109633D01*
X59550Y-109967D01*
X59142Y-110167D01*
X57683D01*
G01X59142D02*
X60017Y-112100D01*
G01X62950Y-108100D02*
X64350D01*
G01X63650D02*
Y-112100D01*
G01X62950D02*
X64350D01*
G01X67108D02*
Y-108100D01*
X69792Y-112100D01*
Y-108100D01*
G01X73600Y-110100D02*
X74767D01*
Y-111300D01*
X74417Y-111700D01*
X74008Y-111967D01*
X73425Y-112100D01*
X72842Y-111967D01*
X72433Y-111700D01*
X72083Y-111300D01*
X71850Y-110833D01*
X71733Y-110300D01*
Y-109833D01*
X71850Y-109433D01*
X72083Y-108967D01*
X72433Y-108567D01*
X72783Y-108300D01*
X73250Y-108100D01*
X73658D01*
X74125Y-108233D01*
X74475Y-108500D01*
G01X81567Y-112100D02*
Y-108100D01*
X82733D01*
X83200Y-108300D01*
X83550Y-108567D01*
X83842Y-108967D01*
X84075Y-109433D01*
X84133Y-110100D01*
X84075Y-110767D01*
X83842Y-111233D01*
X83550Y-111633D01*
X83200Y-111900D01*
X82733Y-112100D01*
X81567D01*
G01X88817D02*
X86483D01*
Y-108100D01*
X88817D01*
G01X87883Y-110033D02*
X86483D01*
G01X91225Y-111567D02*
X91692Y-111900D01*
X92217Y-112100D01*
X92683D01*
X93150Y-111900D01*
X93500Y-111567D01*
X93675Y-111100D01*
X93558Y-110633D01*
X93267Y-110233D01*
X92742Y-109967D01*
X92042Y-109833D01*
X91633Y-109567D01*
X91458Y-109100D01*
X91575Y-108633D01*
X91867Y-108300D01*
X92275Y-108100D01*
X92683D01*
X93092Y-108233D01*
X93442Y-108567D01*
G01X96550Y-108100D02*
X97950D01*
G01X97250D02*
Y-112100D01*
G01X96550D02*
X97950D01*
G01X102400Y-110100D02*
X103567D01*
Y-111300D01*
X103217Y-111700D01*
X102808Y-111967D01*
X102225Y-112100D01*
X101642Y-111967D01*
X101233Y-111700D01*
X100883Y-111300D01*
X100650Y-110833D01*
X100533Y-110300D01*
Y-109833D01*
X100650Y-109433D01*
X100883Y-108967D01*
X101233Y-108567D01*
X101583Y-108300D01*
X102050Y-108100D01*
X102458D01*
X102925Y-108233D01*
X103275Y-108500D01*
G01X105508Y-112100D02*
Y-108100D01*
X108192Y-112100D01*
Y-108100D01*
G01X-60008Y-86100D02*
X-58550Y-82100D01*
X-57092Y-86100D01*
G01X-57617Y-84700D02*
X-59483D01*
G01X-55033Y-82100D02*
Y-84967D01*
X-54800Y-85567D01*
X-54333Y-85967D01*
X-53750Y-86100D01*
X-53167Y-85967D01*
X-52700Y-85567D01*
X-52467Y-84967D01*
Y-82100D01*
G01X-50175Y-85567D02*
X-49708Y-85900D01*
X-49183Y-86100D01*
X-48717D01*
X-48250Y-85900D01*
X-47900Y-85567D01*
X-47725Y-85100D01*
X-47842Y-84633D01*
X-48133Y-84233D01*
X-48658Y-83967D01*
X-49358Y-83833D01*
X-49767Y-83567D01*
X-49942Y-83100D01*
X-49825Y-82633D01*
X-49533Y-82300D01*
X-49125Y-82100D01*
X-48717D01*
X-48308Y-82233D01*
X-47958Y-82567D01*
G01X-44150Y-82100D02*
Y-86100D01*
G01X-45492Y-82100D02*
X-42808D01*
G01X-40050D02*
X-38650D01*
G01X-39350D02*
Y-86100D01*
G01X-40050D02*
X-38650D01*
G01X-35892D02*
Y-82100D01*
X-33208Y-86100D01*
Y-82100D01*
G01X-29750Y-86233D02*
X-29867Y-86167D01*
Y-86033D01*
X-29750Y-85967D01*
X-29633Y-86033D01*
Y-86167D01*
X-29750Y-86233D01*
G01X-20150Y-82100D02*
Y-86100D01*
G01X-21492Y-82100D02*
X-18808D01*
G01X-14183Y-86100D02*
X-16517D01*
Y-82100D01*
X-14183D01*
G01X-15117Y-84033D02*
X-16517D01*
G01X-11775Y-86100D02*
X-9325Y-82100D01*
G01X-11775D02*
X-9325Y-86100D01*
G01X-7208D02*
X-5750Y-82100D01*
X-4292Y-86100D01*
G01X-4817Y-84700D02*
X-6683D01*
G01X-2175Y-85567D02*
X-1708Y-85900D01*
X-1183Y-86100D01*
X-717D01*
X-250Y-85900D01*
X100Y-85567D01*
X275Y-85100D01*
X158Y-84633D01*
X-133Y-84233D01*
X-658Y-83967D01*
X-1358Y-83833D01*
X-1767Y-83567D01*
X-1942Y-83100D01*
X-1825Y-82633D01*
X-1533Y-82300D01*
X-1125Y-82100D01*
X-717D01*
X-308Y-82233D01*
X42Y-82567D01*
G01X8533Y-86100D02*
X8650Y-85233D01*
X8825Y-84500D01*
X9058Y-83833D01*
X9350Y-83100D01*
X9817Y-82100D01*
X7483D01*
G01X13450Y-86100D02*
X13858Y-86033D01*
X14325Y-85833D01*
X14617Y-85500D01*
X14733Y-85033D01*
X14617Y-84567D01*
X14267Y-84167D01*
X13742Y-83967D01*
X13158D01*
X12808Y-83833D01*
X12517Y-83500D01*
X12400Y-83033D01*
X12575Y-82567D01*
X12983Y-82233D01*
X13450Y-82100D01*
X13917Y-82233D01*
X14325Y-82567D01*
X14500Y-83033D01*
X14383Y-83500D01*
X14092Y-83833D01*
X13742Y-83967D01*
X13158D01*
X12633Y-84167D01*
X12283Y-84567D01*
X12167Y-85033D01*
X12283Y-85500D01*
X12575Y-85833D01*
X13042Y-86033D01*
X13450Y-86100D01*
G01X18133D02*
X18250Y-85233D01*
X18425Y-84500D01*
X18658Y-83833D01*
X18950Y-83100D01*
X19417Y-82100D01*
X17083D01*
G01X21767Y-85300D02*
X22117Y-85767D01*
X22583Y-86033D01*
X23108Y-86100D01*
X23575Y-86033D01*
X24042Y-85700D01*
X24333Y-85300D01*
X24392Y-84900D01*
X24275Y-84433D01*
X23867Y-84100D01*
X23458Y-83967D01*
X22933D01*
G01X23458D02*
X23808Y-83767D01*
X24100Y-83433D01*
X24217Y-83033D01*
X24100Y-82633D01*
X23808Y-82300D01*
X23283Y-82100D01*
X22758Y-82167D01*
X22233Y-82433D01*
G01X26567Y-85500D02*
X26917Y-85833D01*
X27325Y-86033D01*
X27850Y-86100D01*
X28375Y-85967D01*
X28783Y-85700D01*
X29075Y-85233D01*
X29133Y-84700D01*
X29017Y-84167D01*
X28725Y-83833D01*
X28317Y-83567D01*
X27908Y-83500D01*
X27500Y-83567D01*
X26975Y-83833D01*
X27150Y-82100D01*
X28725D01*
G01X36167D02*
Y-84967D01*
X36400Y-85567D01*
X36867Y-85967D01*
X37450Y-86100D01*
X38033Y-85967D01*
X38500Y-85567D01*
X38733Y-84967D01*
Y-82100D01*
G01X41025Y-85567D02*
X41492Y-85900D01*
X42017Y-86100D01*
X42483D01*
X42950Y-85900D01*
X43300Y-85567D01*
X43475Y-85100D01*
X43358Y-84633D01*
X43067Y-84233D01*
X42542Y-83967D01*
X41842Y-83833D01*
X41433Y-83567D01*
X41258Y-83100D01*
X41375Y-82633D01*
X41667Y-82300D01*
X42075Y-82100D01*
X42483D01*
X42892Y-82233D01*
X43242Y-82567D01*
G01X45592Y-86100D02*
X47050Y-82100D01*
X48508Y-86100D01*
G01X47983Y-84700D02*
X46117D01*
G01X-52717Y-104100D02*
Y-100100D01*
X-51317D01*
X-50850Y-100300D01*
X-50500Y-100767D01*
X-50383Y-101300D01*
X-50500Y-101833D01*
X-50792Y-102233D01*
X-51317Y-102433D01*
X-52717D01*
G01X-47917Y-104100D02*
Y-100100D01*
X-46458D01*
X-45992Y-100300D01*
X-45700Y-100567D01*
X-45583Y-101100D01*
X-45700Y-101633D01*
X-46050Y-101967D01*
X-46458Y-102167D01*
X-47917D01*
G01X-46458D02*
X-45583Y-104100D01*
G01X-41950D02*
X-42417Y-104033D01*
X-42825Y-103767D01*
X-43175Y-103367D01*
X-43408Y-102900D01*
X-43525Y-102367D01*
Y-101833D01*
X-43408Y-101300D01*
X-43175Y-100833D01*
X-42825Y-100433D01*
X-42417Y-100167D01*
X-41950Y-100100D01*
X-41483Y-100167D01*
X-41075Y-100433D01*
X-40725Y-100833D01*
X-40492Y-101300D01*
X-40375Y-101833D01*
Y-102367D01*
X-40492Y-102900D01*
X-40725Y-103367D01*
X-41075Y-103767D01*
X-41483Y-104033D01*
X-41950Y-104100D01*
G01X-38317D02*
Y-100100D01*
X-36917D01*
X-36450Y-100300D01*
X-36100Y-100767D01*
X-35983Y-101300D01*
X-36100Y-101833D01*
X-36392Y-102233D01*
X-36917Y-102433D01*
X-38317D01*
G01X-33517Y-104100D02*
Y-100100D01*
X-32058D01*
X-31592Y-100300D01*
X-31300Y-100567D01*
X-31183Y-101100D01*
X-31300Y-101633D01*
X-31650Y-101967D01*
X-32058Y-102167D01*
X-33517D01*
G01X-32058D02*
X-31183Y-104100D01*
G01X-28250Y-100100D02*
X-26850D01*
G01X-27550D02*
Y-104100D01*
G01X-28250D02*
X-26850D01*
G01X-21583D02*
X-23917D01*
Y-100100D01*
X-21583D01*
G01X-22517Y-102033D02*
X-23917D01*
G01X-17950Y-100100D02*
Y-104100D01*
G01X-19292Y-100100D02*
X-16608D01*
G01X-14608Y-104100D02*
X-13150Y-100100D01*
X-11692Y-104100D01*
G01X-12217Y-102700D02*
X-14083D01*
G01X-9517Y-104100D02*
Y-100100D01*
X-8058D01*
X-7592Y-100300D01*
X-7300Y-100567D01*
X-7183Y-101100D01*
X-7300Y-101633D01*
X-7650Y-101967D01*
X-8058Y-102167D01*
X-9517D01*
G01X-8058D02*
X-7183Y-104100D01*
G01X-3550D02*
Y-102300D01*
X-4717Y-100100D01*
G01X-2383D02*
X-3550Y-102300D01*
G01X6050Y-100100D02*
Y-104100D01*
G01X4708Y-100100D02*
X7392D01*
G01X10850Y-104100D02*
X10383Y-104033D01*
X9975Y-103767D01*
X9625Y-103367D01*
X9392Y-102900D01*
X9275Y-102367D01*
Y-101833D01*
X9392Y-101300D01*
X9625Y-100833D01*
X9975Y-100433D01*
X10383Y-100167D01*
X10850Y-100100D01*
X11317Y-100167D01*
X11725Y-100433D01*
X12075Y-100833D01*
X12308Y-101300D01*
X12425Y-101833D01*
Y-102367D01*
X12308Y-102900D01*
X12075Y-103367D01*
X11725Y-103767D01*
X11317Y-104033D01*
X10850Y-104100D01*
G01X19108D02*
Y-100100D01*
X21792Y-104100D01*
Y-100100D01*
G01X24025Y-104100D02*
X26475Y-100100D01*
G01X24025D02*
X26475Y-104100D01*
G01X28883D02*
Y-100100D01*
X30283D01*
X30750Y-100300D01*
X31100Y-100767D01*
X31217Y-101300D01*
X31100Y-101833D01*
X30808Y-102233D01*
X30283Y-102433D01*
X28883D01*
G01X38192Y-104100D02*
X39650Y-100100D01*
X41108Y-104100D01*
G01X40583Y-102700D02*
X38717D01*
G01X43108Y-104100D02*
Y-100100D01*
X45792Y-104100D01*
Y-100100D01*
G01X47967Y-104100D02*
Y-100100D01*
X49133D01*
X49600Y-100300D01*
X49950Y-100567D01*
X50242Y-100967D01*
X50475Y-101433D01*
X50533Y-102100D01*
X50475Y-102767D01*
X50242Y-103233D01*
X49950Y-103633D01*
X49600Y-103900D01*
X49133Y-104100D01*
X47967D01*
G01X57625Y-103567D02*
X58092Y-103900D01*
X58617Y-104100D01*
X59083D01*
X59550Y-103900D01*
X59900Y-103567D01*
X60075Y-103100D01*
X59958Y-102633D01*
X59667Y-102233D01*
X59142Y-101967D01*
X58442Y-101833D01*
X58033Y-101567D01*
X57858Y-101100D01*
X57975Y-100633D01*
X58267Y-100300D01*
X58675Y-100100D01*
X59083D01*
X59492Y-100233D01*
X59842Y-100567D01*
G01X62425Y-104100D02*
Y-100100D01*
G01X64875D02*
Y-104100D01*
G01Y-102100D02*
X62425D01*
G01X66992Y-104100D02*
X68450Y-100100D01*
X69908Y-104100D01*
G01X69383Y-102700D02*
X67517D01*
G01X72083Y-100100D02*
Y-104100D01*
X74417D01*
G01X76883Y-100100D02*
Y-104100D01*
X79217D01*
G01X-52550Y-92100D02*
Y-96100D01*
G01X-53892Y-92100D02*
X-51208D01*
G01X-48975Y-96100D02*
Y-92100D01*
G01X-46525D02*
Y-96100D01*
G01Y-94100D02*
X-48975D01*
G01X-43650Y-92100D02*
X-42250D01*
G01X-42950D02*
Y-96100D01*
G01X-43650D02*
X-42250D01*
G01X-39375Y-95567D02*
X-38908Y-95900D01*
X-38383Y-96100D01*
X-37917D01*
X-37450Y-95900D01*
X-37100Y-95567D01*
X-36925Y-95100D01*
X-37042Y-94633D01*
X-37333Y-94233D01*
X-37858Y-93967D01*
X-38558Y-93833D01*
X-38967Y-93567D01*
X-39142Y-93100D01*
X-39025Y-92633D01*
X-38733Y-92300D01*
X-38325Y-92100D01*
X-37917D01*
X-37508Y-92233D01*
X-37158Y-92567D01*
G01X-29833Y-96100D02*
Y-92100D01*
X-28667D01*
X-28200Y-92300D01*
X-27850Y-92567D01*
X-27558Y-92967D01*
X-27325Y-93433D01*
X-27267Y-94100D01*
X-27325Y-94767D01*
X-27558Y-95233D01*
X-27850Y-95633D01*
X-28200Y-95900D01*
X-28667Y-96100D01*
X-29833D01*
G01X-23750D02*
X-24217Y-96033D01*
X-24625Y-95767D01*
X-24975Y-95367D01*
X-25208Y-94900D01*
X-25325Y-94367D01*
Y-93833D01*
X-25208Y-93300D01*
X-24975Y-92833D01*
X-24625Y-92433D01*
X-24217Y-92167D01*
X-23750Y-92100D01*
X-23283Y-92167D01*
X-22875Y-92433D01*
X-22525Y-92833D01*
X-22292Y-93300D01*
X-22175Y-93833D01*
Y-94367D01*
X-22292Y-94900D01*
X-22525Y-95367D01*
X-22875Y-95767D01*
X-23283Y-96033D01*
X-23750Y-96100D01*
G01X-17667Y-92433D02*
X-18017Y-92233D01*
X-18425Y-92100D01*
X-18892D01*
X-19417Y-92300D01*
X-19825Y-92633D01*
X-20117Y-93033D01*
X-20350Y-93700D01*
X-20408Y-94300D01*
X-20292Y-94900D01*
X-20117Y-95300D01*
X-19767Y-95700D01*
X-19358Y-95967D01*
X-18950Y-96100D01*
X-18542D01*
X-18133Y-95967D01*
X-17783Y-95767D01*
X-17492Y-95500D01*
G01X-15433Y-92100D02*
Y-94967D01*
X-15200Y-95567D01*
X-14733Y-95967D01*
X-14150Y-96100D01*
X-13567Y-95967D01*
X-13100Y-95567D01*
X-12867Y-94967D01*
Y-92100D01*
G01X-10867Y-96100D02*
Y-92100D01*
X-9350Y-95433D01*
X-7833Y-92100D01*
Y-96100D01*
G01X-3383D02*
X-5717D01*
Y-92100D01*
X-3383D01*
G01X-4317Y-94033D02*
X-5717D01*
G01X-1092Y-96100D02*
Y-92100D01*
X1592Y-96100D01*
Y-92100D01*
G01X5050D02*
Y-96100D01*
G01X3708Y-92100D02*
X6392D01*
G01X15933Y-92433D02*
X15583Y-92233D01*
X15175Y-92100D01*
X14708D01*
X14183Y-92300D01*
X13775Y-92633D01*
X13483Y-93033D01*
X13250Y-93700D01*
X13192Y-94300D01*
X13308Y-94900D01*
X13483Y-95300D01*
X13833Y-95700D01*
X14242Y-95967D01*
X14650Y-96100D01*
X15058D01*
X15467Y-95967D01*
X15817Y-95767D01*
X16108Y-95500D01*
G01X19450Y-96100D02*
X18983Y-96033D01*
X18575Y-95767D01*
X18225Y-95367D01*
X17992Y-94900D01*
X17875Y-94367D01*
Y-93833D01*
X17992Y-93300D01*
X18225Y-92833D01*
X18575Y-92433D01*
X18983Y-92167D01*
X19450Y-92100D01*
X19917Y-92167D01*
X20325Y-92433D01*
X20675Y-92833D01*
X20908Y-93300D01*
X21025Y-93833D01*
Y-94367D01*
X20908Y-94900D01*
X20675Y-95367D01*
X20325Y-95767D01*
X19917Y-96033D01*
X19450Y-96100D01*
G01X22908D02*
Y-92100D01*
X25592Y-96100D01*
Y-92100D01*
G01X29050D02*
Y-96100D01*
G01X27708Y-92100D02*
X30392D01*
G01X32392Y-96100D02*
X33850Y-92100D01*
X35308Y-96100D01*
G01X34783Y-94700D02*
X32917D01*
G01X37950Y-92100D02*
X39350D01*
G01X38650D02*
Y-96100D01*
G01X37950D02*
X39350D01*
G01X42108D02*
Y-92100D01*
X44792Y-96100D01*
Y-92100D01*
G01X47025Y-95567D02*
X47492Y-95900D01*
X48017Y-96100D01*
X48483D01*
X48950Y-95900D01*
X49300Y-95567D01*
X49475Y-95100D01*
X49358Y-94633D01*
X49067Y-94233D01*
X48542Y-93967D01*
X47842Y-93833D01*
X47433Y-93567D01*
X47258Y-93100D01*
X47375Y-92633D01*
X47667Y-92300D01*
X48075Y-92100D01*
X48483D01*
X48892Y-92233D01*
X49242Y-92567D01*
G01X57150Y-92100D02*
X58550D01*
G01X57850D02*
Y-96100D01*
G01X57150D02*
X58550D01*
G01X61308D02*
Y-92100D01*
X63992Y-96100D01*
Y-92100D01*
G01X66342Y-96100D02*
Y-92100D01*
X68558D01*
G01X67742Y-94033D02*
X66342D01*
G01X72250Y-96100D02*
X71783Y-96033D01*
X71375Y-95767D01*
X71025Y-95367D01*
X70792Y-94900D01*
X70675Y-94367D01*
Y-93833D01*
X70792Y-93300D01*
X71025Y-92833D01*
X71375Y-92433D01*
X71783Y-92167D01*
X72250Y-92100D01*
X72717Y-92167D01*
X73125Y-92433D01*
X73475Y-92833D01*
X73708Y-93300D01*
X73825Y-93833D01*
Y-94367D01*
X73708Y-94900D01*
X73475Y-95367D01*
X73125Y-95767D01*
X72717Y-96033D01*
X72250Y-96100D01*
G01X75883D02*
Y-92100D01*
X77342D01*
X77808Y-92300D01*
X78100Y-92567D01*
X78217Y-93100D01*
X78100Y-93633D01*
X77750Y-93967D01*
X77342Y-94167D01*
X75883D01*
G01X77342D02*
X78217Y-96100D01*
G01X80333D02*
Y-92100D01*
X81850Y-95433D01*
X83367Y-92100D01*
Y-96100D01*
G01X85192D02*
X86650Y-92100D01*
X88108Y-96100D01*
G01X87583Y-94700D02*
X85717D01*
G01X91450Y-92100D02*
Y-96100D01*
G01X90108Y-92100D02*
X92792D01*
G01X95550D02*
X96950D01*
G01X96250D02*
Y-96100D01*
G01X95550D02*
X96950D01*
G01X101050D02*
X100583Y-96033D01*
X100175Y-95767D01*
X99825Y-95367D01*
X99592Y-94900D01*
X99475Y-94367D01*
Y-93833D01*
X99592Y-93300D01*
X99825Y-92833D01*
X100175Y-92433D01*
X100583Y-92167D01*
X101050Y-92100D01*
X101517Y-92167D01*
X101925Y-92433D01*
X102275Y-92833D01*
X102508Y-93300D01*
X102625Y-93833D01*
Y-94367D01*
X102508Y-94900D01*
X102275Y-95367D01*
X101925Y-95767D01*
X101517Y-96033D01*
X101050Y-96100D01*
G01X104508D02*
Y-92100D01*
X107192Y-96100D01*
Y-92100D01*
G01X-59658Y-77433D02*
X-59250Y-76967D01*
X-58900Y-76700D01*
X-58433Y-76567D01*
X-58025Y-76700D01*
X-57733Y-76967D01*
X-57500Y-77367D01*
X-57442Y-77833D01*
X-57500Y-78233D01*
X-57733Y-78633D01*
X-58083Y-78967D01*
X-58492Y-79100D01*
X-58958Y-78967D01*
X-59367Y-78567D01*
X-59600Y-77967D01*
X-59658Y-77300D01*
X-59542Y-76433D01*
X-59367Y-75967D01*
X-59075Y-75500D01*
X-58667Y-75167D01*
X-58258Y-75100D01*
X-57850Y-75233D01*
X-57558Y-75567D01*
G01X-55033Y-78500D02*
X-54683Y-78833D01*
X-54275Y-79033D01*
X-53750Y-79100D01*
X-53225Y-78967D01*
X-52817Y-78700D01*
X-52525Y-78233D01*
X-52467Y-77700D01*
X-52583Y-77167D01*
X-52875Y-76833D01*
X-53283Y-76567D01*
X-53692Y-76500D01*
X-54100Y-76567D01*
X-54625Y-76833D01*
X-54450Y-75100D01*
X-52875D01*
G01X-48950D02*
X-49417Y-75233D01*
X-49767Y-75567D01*
X-50000Y-75967D01*
X-50175Y-76500D01*
X-50233Y-77100D01*
X-50175Y-77700D01*
X-50000Y-78233D01*
X-49767Y-78633D01*
X-49417Y-78967D01*
X-48950Y-79100D01*
X-48483Y-78967D01*
X-48133Y-78633D01*
X-47900Y-78233D01*
X-47725Y-77700D01*
X-47667Y-77100D01*
X-47725Y-76500D01*
X-47900Y-75967D01*
X-48133Y-75567D01*
X-48483Y-75233D01*
X-48950Y-75100D01*
G01X-44150Y-79100D02*
Y-75100D01*
X-44850Y-75900D01*
G01Y-79100D02*
X-43450D01*
G01X-36300Y-75100D02*
X-35483Y-79100D01*
X-34550Y-75100D01*
X-33617Y-79100D01*
X-32800Y-75100D01*
G01X-30450D02*
X-29050D01*
G01X-29750D02*
Y-79100D01*
G01X-30450D02*
X-29050D01*
G01X-26117Y-75100D02*
Y-79100D01*
X-23783D01*
G01X-21317Y-75100D02*
Y-79100D01*
X-18983D01*
G01X-16050Y-75100D02*
X-14650D01*
G01X-15350D02*
Y-79100D01*
G01X-16050D02*
X-14650D01*
G01X-12008D02*
X-10550Y-75100D01*
X-9092Y-79100D01*
G01X-9617Y-77700D02*
X-11483D01*
G01X-7267Y-79100D02*
Y-75100D01*
X-5750Y-78433D01*
X-4233Y-75100D01*
Y-79100D01*
G01X5133Y-75433D02*
X4783Y-75233D01*
X4375Y-75100D01*
X3908D01*
X3383Y-75300D01*
X2975Y-75633D01*
X2683Y-76033D01*
X2450Y-76700D01*
X2392Y-77300D01*
X2508Y-77900D01*
X2683Y-78300D01*
X3033Y-78700D01*
X3442Y-78967D01*
X3850Y-79100D01*
X4258D01*
X4667Y-78967D01*
X5017Y-78767D01*
X5308Y-78500D01*
G01X7192Y-79100D02*
X8650Y-75100D01*
X10108Y-79100D01*
G01X9583Y-77700D02*
X7717D01*
G01X12108Y-79100D02*
Y-75100D01*
X14792Y-79100D01*
Y-75100D01*
G01X16908Y-79100D02*
Y-75100D01*
X19592Y-79100D01*
Y-75100D01*
G01X23050Y-79100D02*
X22583Y-79033D01*
X22175Y-78767D01*
X21825Y-78367D01*
X21592Y-77900D01*
X21475Y-77367D01*
Y-76833D01*
X21592Y-76300D01*
X21825Y-75833D01*
X22175Y-75433D01*
X22583Y-75167D01*
X23050Y-75100D01*
X23517Y-75167D01*
X23925Y-75433D01*
X24275Y-75833D01*
X24508Y-76300D01*
X24625Y-76833D01*
Y-77367D01*
X24508Y-77900D01*
X24275Y-78367D01*
X23925Y-78767D01*
X23517Y-79033D01*
X23050Y-79100D01*
G01X26508D02*
Y-75100D01*
X29192Y-79100D01*
Y-75100D01*
G01X36167Y-79100D02*
Y-75100D01*
X37333D01*
X37800Y-75300D01*
X38150Y-75567D01*
X38442Y-75967D01*
X38675Y-76433D01*
X38733Y-77100D01*
X38675Y-77767D01*
X38442Y-78233D01*
X38150Y-78633D01*
X37800Y-78900D01*
X37333Y-79100D01*
X36167D01*
G01X41083D02*
Y-75100D01*
X42542D01*
X43008Y-75300D01*
X43300Y-75567D01*
X43417Y-76100D01*
X43300Y-76633D01*
X42950Y-76967D01*
X42542Y-77167D01*
X41083D01*
G01X42542D02*
X43417Y-79100D01*
G01X46350Y-75100D02*
X47750D01*
G01X47050D02*
Y-79100D01*
G01X46350D02*
X47750D01*
G01X50392Y-75100D02*
X51850Y-79100D01*
X53308Y-75100D01*
G01X57817Y-79100D02*
X55483D01*
Y-75100D01*
X57817D01*
G01X56883Y-77033D02*
X55483D01*
G01X64500Y-75100D02*
X65317Y-79100D01*
X66250Y-75100D01*
X67183Y-79100D01*
X68000Y-75100D01*
G01X72217Y-79100D02*
X69883D01*
Y-75100D01*
X72217D01*
G01X71283Y-77033D02*
X69883D01*
G01X74625Y-78567D02*
X75092Y-78900D01*
X75617Y-79100D01*
X76083D01*
X76550Y-78900D01*
X76900Y-78567D01*
X77075Y-78100D01*
X76958Y-77633D01*
X76667Y-77233D01*
X76142Y-76967D01*
X75442Y-76833D01*
X75033Y-76567D01*
X74858Y-76100D01*
X74975Y-75633D01*
X75267Y-75300D01*
X75675Y-75100D01*
X76083D01*
X76492Y-75233D01*
X76842Y-75567D01*
G01X80650Y-75100D02*
Y-79100D01*
G01X79308Y-75100D02*
X81992D01*
G01X-60647Y-71100D02*
Y-63600D01*
X-56353Y-71100D01*
Y-63600D01*
G01X-52960Y-71100D02*
X-49040Y-63600D01*
G01X-52960D02*
X-49040Y-71100D01*
G01X-45367D02*
Y-63600D01*
X-43127D01*
X-42380Y-63975D01*
X-41820Y-64850D01*
X-41633Y-65850D01*
X-41820Y-66850D01*
X-42287Y-67600D01*
X-43127Y-67975D01*
X-45367D01*
G01X-30460Y-70100D02*
X-29713Y-70725D01*
X-28873Y-71100D01*
X-28127D01*
X-27380Y-70725D01*
X-26820Y-70100D01*
X-26540Y-69225D01*
X-26727Y-68350D01*
X-27193Y-67600D01*
X-28033Y-67100D01*
X-29153Y-66850D01*
X-29807Y-66350D01*
X-30087Y-65475D01*
X-29900Y-64600D01*
X-29433Y-63975D01*
X-28780Y-63600D01*
X-28127D01*
X-27473Y-63850D01*
X-26913Y-64475D01*
G01X-19133Y-71100D02*
X-22867D01*
Y-63600D01*
X-19133D01*
G01X-20627Y-67225D02*
X-22867D01*
G01X-15927Y-71100D02*
Y-63600D01*
X-13500Y-69850D01*
X-11073Y-63600D01*
Y-71100D01*
G01X-7120Y-63600D02*
X-4880D01*
G01X-6000D02*
Y-71100D01*
G01X-7120D02*
X-4880D01*
G01X3553Y-64225D02*
X2993Y-63850D01*
X2340Y-63600D01*
X1593D01*
X753Y-63975D01*
X100Y-64600D01*
X-367Y-65350D01*
X-740Y-66600D01*
X-833Y-67725D01*
X-647Y-68850D01*
X-367Y-69600D01*
X193Y-70350D01*
X847Y-70850D01*
X1500Y-71100D01*
X2153D01*
X2807Y-70850D01*
X3367Y-70475D01*
X3833Y-69975D01*
G01X9000Y-71100D02*
X8253Y-70975D01*
X7600Y-70475D01*
X7040Y-69725D01*
X6667Y-68850D01*
X6480Y-67850D01*
Y-66850D01*
X6667Y-65850D01*
X7040Y-64975D01*
X7600Y-64225D01*
X8253Y-63725D01*
X9000Y-63600D01*
X9747Y-63725D01*
X10400Y-64225D01*
X10960Y-64975D01*
X11333Y-65850D01*
X11520Y-66850D01*
Y-67850D01*
X11333Y-68850D01*
X10960Y-69725D01*
X10400Y-70475D01*
X9747Y-70975D01*
X9000Y-71100D01*
G01X14353D02*
Y-63600D01*
X18647Y-71100D01*
Y-63600D01*
G01X21947Y-71100D02*
Y-63600D01*
X23813D01*
X24560Y-63975D01*
X25120Y-64475D01*
X25587Y-65225D01*
X25960Y-66100D01*
X26053Y-67350D01*
X25960Y-68600D01*
X25587Y-69475D01*
X25120Y-70225D01*
X24560Y-70725D01*
X23813Y-71100D01*
X21947D01*
G01X29447Y-63600D02*
Y-68975D01*
X29820Y-70100D01*
X30567Y-70850D01*
X31500Y-71100D01*
X32433Y-70850D01*
X33180Y-70100D01*
X33553Y-68975D01*
Y-63600D01*
G01X41053Y-64225D02*
X40493Y-63850D01*
X39840Y-63600D01*
X39093D01*
X38253Y-63975D01*
X37600Y-64600D01*
X37133Y-65350D01*
X36760Y-66600D01*
X36667Y-67725D01*
X36853Y-68850D01*
X37133Y-69600D01*
X37693Y-70350D01*
X38347Y-70850D01*
X39000Y-71100D01*
X39653D01*
X40307Y-70850D01*
X40867Y-70475D01*
X41333Y-69975D01*
G01X46500Y-63600D02*
Y-71100D01*
G01X44353Y-63600D02*
X48647D01*
G01X54000Y-71100D02*
X53253Y-70975D01*
X52600Y-70475D01*
X52040Y-69725D01*
X51667Y-68850D01*
X51480Y-67850D01*
Y-66850D01*
X51667Y-65850D01*
X52040Y-64975D01*
X52600Y-64225D01*
X53253Y-63725D01*
X54000Y-63600D01*
X54747Y-63725D01*
X55400Y-64225D01*
X55960Y-64975D01*
X56333Y-65850D01*
X56520Y-66850D01*
Y-67850D01*
X56333Y-68850D01*
X55960Y-69725D01*
X55400Y-70475D01*
X54747Y-70975D01*
X54000Y-71100D01*
G01X59633D02*
Y-63600D01*
X61967D01*
X62713Y-63975D01*
X63180Y-64475D01*
X63367Y-65475D01*
X63180Y-66475D01*
X62620Y-67100D01*
X61967Y-67475D01*
X59633D01*
G01X61967D02*
X63367Y-71100D01*
G01X67040Y-70100D02*
X67787Y-70725D01*
X68627Y-71100D01*
X69373D01*
X70120Y-70725D01*
X70680Y-70100D01*
X70960Y-69225D01*
X70773Y-68350D01*
X70307Y-67600D01*
X69467Y-67100D01*
X68347Y-66850D01*
X67693Y-66350D01*
X67413Y-65475D01*
X67600Y-64600D01*
X68067Y-63975D01*
X68720Y-63600D01*
X69373D01*
X70027Y-63850D01*
X70587Y-64475D01*
G01X-51892Y-136100D02*
Y-132100D01*
X-49208Y-136100D01*
Y-132100D01*
G01X-46975Y-136100D02*
X-44525Y-132100D01*
G01X-46975D02*
X-44525Y-136100D01*
G01X-42117D02*
Y-132100D01*
X-40717D01*
X-40250Y-132300D01*
X-39900Y-132767D01*
X-39783Y-133300D01*
X-39900Y-133833D01*
X-40192Y-134233D01*
X-40717Y-134433D01*
X-42117D01*
G01X-36150Y-136233D02*
X-36267Y-136167D01*
Y-136033D01*
X-36150Y-135967D01*
X-36033Y-136033D01*
Y-136167D01*
X-36150Y-136233D01*
G01X-9650Y-150600D02*
Y-155100D01*
X-6650D01*
G01X-4000Y-154200D02*
X-3550Y-154725D01*
X-2950Y-155025D01*
X-2275Y-155100D01*
X-1675Y-155025D01*
X-1075Y-154650D01*
X-700Y-154200D01*
X-625Y-153750D01*
X-775Y-153225D01*
X-1300Y-152850D01*
X-1825Y-152700D01*
X-2500D01*
G01X-1825D02*
X-1375Y-152475D01*
X-1000Y-152100D01*
X-850Y-151650D01*
X-1000Y-151200D01*
X-1375Y-150825D01*
X-2050Y-150600D01*
X-2725Y-150675D01*
X-3400Y-150975D01*
G01X1200Y-156600D02*
X5700D01*
G01X8350Y-150600D02*
X10150D01*
G01X9250D02*
Y-155100D01*
G01X8350D02*
X10150D01*
G01X13325D02*
Y-150600D01*
X16775Y-155100D01*
Y-150600D01*
G01X20850D02*
Y-155100D01*
G01X19125Y-150600D02*
X22575D01*
G01X24400Y-156600D02*
X28900D01*
G01X32450Y-155100D02*
Y-150600D01*
X31550Y-151500D01*
G01Y-155100D02*
X33350D01*
G01X-9658Y-147100D02*
Y-143100D01*
X-7442D01*
G01X-8258Y-145033D02*
X-9658D01*
G01X-4450Y-143100D02*
X-3050D01*
G01X-3750D02*
Y-147100D01*
G01X-4450D02*
X-3050D01*
G01X-117Y-143100D02*
Y-147100D01*
X2217D01*
G01X4333D02*
Y-143100D01*
X5850Y-146433D01*
X7367Y-143100D01*
Y-147100D01*
G01X31800Y163000D02*
X43200D01*
X48000Y167800D01*
X64400D01*
X75700Y156500D01*
X95000D01*
X100500Y151000D01*
X105800D01*
X108900Y147900D01*
Y122300D01*
X110500Y120700D01*
G01X69000Y79500D02*
X66100Y82400D01*
Y99900D01*
X63400Y102600D01*
Y109300D01*
X61400Y111300D01*
G01X62400Y154000D02*
X62100D01*
X60900Y152800D01*
Y127400D01*
X61400Y126900D01*
Y115500D01*
X64600Y112300D01*
Y104400D01*
X65600Y103400D01*
G01X50600Y109400D02*
X52000Y110800D01*
Y118000D01*
X57100Y123100D01*
Y150200D01*
X54900Y152400D01*
G01X58100Y153900D02*
X58700Y153300D01*
Y122000D01*
X54000Y117300D01*
Y104300D01*
X52000Y102300D01*
X51700D01*
G01X76700Y141300D02*
Y153000D01*
X66000Y163700D01*
X58400D01*
G01X73700Y116400D02*
X84100Y106000D01*
Y76200D01*
X88300Y72000D01*
X110600D01*
X113200Y69400D01*
G01X81200Y148800D02*
X86000Y144000D01*
Y76900D01*
X89400Y73500D01*
X100600D01*
X102000Y74900D01*
G01X64000Y124600D02*
Y117000D01*
X71100Y109900D01*
Y97200D01*
X73800Y94500D01*
G01X75800Y134700D02*
X67100Y126000D01*
Y116500D01*
X73800Y109800D01*
Y106300D01*
G01X84200Y119700D02*
Y130400D01*
X77900Y136700D01*
G01X89400Y108500D02*
X89900Y109000D01*
Y120800D01*
X87900Y122800D01*
Y145400D01*
X84300Y149000D01*
G01X194400Y106700D02*
Y142500D01*
X162400Y174500D01*
X91600D01*
X87600Y170500D01*
X80100D01*
X71900Y178700D01*
X67600D01*
G01X112400Y-3500D02*
X105250Y3650D01*
Y34200D01*
X110150Y39100D01*
X133800D01*
X137450Y42750D01*
Y60500D01*
X145950Y69000D01*
X148700D01*
G01X116000Y94000D02*
Y82400D01*
X114300Y80700D01*
X100300D01*
X95100Y85900D01*
Y107300D01*
G01X87800Y148800D02*
X92300Y144300D01*
Y139800D01*
X98500Y133600D01*
G01X118450Y-151100D02*
X117983Y-151233D01*
X117633Y-151567D01*
X117400Y-151967D01*
X117225Y-152500D01*
X117167Y-153100D01*
X117225Y-153700D01*
X117400Y-154233D01*
X117633Y-154633D01*
X117983Y-154967D01*
X118450Y-155100D01*
X118917Y-154967D01*
X119267Y-154633D01*
X119500Y-154233D01*
X119675Y-153700D01*
X119733Y-153100D01*
X119675Y-152500D01*
X119500Y-151967D01*
X119267Y-151567D01*
X118917Y-151233D01*
X118450Y-151100D01*
G01X123250Y-155100D02*
X123658Y-155033D01*
X124125Y-154833D01*
X124417Y-154500D01*
X124533Y-154033D01*
X124417Y-153567D01*
X124067Y-153167D01*
X123542Y-152967D01*
X122958D01*
X122608Y-152833D01*
X122317Y-152500D01*
X122200Y-152033D01*
X122375Y-151567D01*
X122783Y-151233D01*
X123250Y-151100D01*
X123717Y-151233D01*
X124125Y-151567D01*
X124300Y-152033D01*
X124183Y-152500D01*
X123892Y-152833D01*
X123542Y-152967D01*
X122958D01*
X122433Y-153167D01*
X122083Y-153567D01*
X121967Y-154033D01*
X122083Y-154500D01*
X122375Y-154833D01*
X122842Y-155033D01*
X123250Y-155100D01*
G01X127000Y-155233D02*
X129100Y-151100D01*
G01X131742Y-151767D02*
X132092Y-151367D01*
X132500Y-151167D01*
X132967Y-151100D01*
X133550Y-151233D01*
X133958Y-151567D01*
X134075Y-151967D01*
X134017Y-152367D01*
X133783Y-152700D01*
X132617Y-153367D01*
X132092Y-153833D01*
X131742Y-154500D01*
X131625Y-155100D01*
X134075D01*
G01X138350D02*
Y-151100D01*
X136192Y-153967D01*
X139108D01*
G01X141400Y-155233D02*
X143500Y-151100D01*
G01X147250Y-155100D02*
Y-151100D01*
X146550Y-151900D01*
G01Y-155100D02*
X147950D01*
G01X151933D02*
X152050Y-154233D01*
X152225Y-153500D01*
X152458Y-152833D01*
X152750Y-152100D01*
X153217Y-151100D01*
X150883D01*
G01X124700Y-132933D02*
X128200D01*
G01X129500D02*
X133000D01*
G01X134300D02*
X137800D01*
G01X144308Y-131600D02*
Y-127600D01*
X146992Y-131600D01*
Y-127600D01*
G01X151733Y-127933D02*
X151383Y-127733D01*
X150975Y-127600D01*
X150508D01*
X149983Y-127800D01*
X149575Y-128133D01*
X149283Y-128533D01*
X149050Y-129200D01*
X148992Y-129800D01*
X149108Y-130400D01*
X149283Y-130800D01*
X149633Y-131200D01*
X150042Y-131467D01*
X150450Y-131600D01*
X150858D01*
X151267Y-131467D01*
X151617Y-131267D01*
X151908Y-131000D01*
G01X154083Y-131600D02*
Y-127600D01*
X155483D01*
X155950Y-127800D01*
X156300Y-128267D01*
X156417Y-128800D01*
X156300Y-129333D01*
X156008Y-129733D01*
X155483Y-129933D01*
X154083D01*
G01X164558Y-132933D02*
X163975Y-132267D01*
X163683Y-131600D01*
Y-128933D01*
X163975Y-128267D01*
X164558Y-127600D01*
G01X168308Y-131600D02*
Y-127600D01*
X170992Y-131600D01*
Y-127600D01*
G01X173225Y-131600D02*
X175675Y-127600D01*
G01X173225D02*
X175675Y-131600D01*
G01X178083D02*
Y-127600D01*
X179483D01*
X179950Y-127800D01*
X180300Y-128267D01*
X180417Y-128800D01*
X180300Y-129333D01*
X180008Y-129733D01*
X179483Y-129933D01*
X178083D01*
G01X190133Y-127933D02*
X189783Y-127733D01*
X189375Y-127600D01*
X188908D01*
X188383Y-127800D01*
X187975Y-128133D01*
X187683Y-128533D01*
X187450Y-129200D01*
X187392Y-129800D01*
X187508Y-130400D01*
X187683Y-130800D01*
X188033Y-131200D01*
X188442Y-131467D01*
X188850Y-131600D01*
X189258D01*
X189667Y-131467D01*
X190017Y-131267D01*
X190308Y-131000D01*
G01X193650Y-131600D02*
X193183Y-131533D01*
X192775Y-131267D01*
X192425Y-130867D01*
X192192Y-130400D01*
X192075Y-129867D01*
Y-129333D01*
X192192Y-128800D01*
X192425Y-128333D01*
X192775Y-127933D01*
X193183Y-127667D01*
X193650Y-127600D01*
X194117Y-127667D01*
X194525Y-127933D01*
X194875Y-128333D01*
X195108Y-128800D01*
X195225Y-129333D01*
Y-129867D01*
X195108Y-130400D01*
X194875Y-130867D01*
X194525Y-131267D01*
X194117Y-131533D01*
X193650Y-131600D01*
G01X197108D02*
Y-127600D01*
X199792Y-131600D01*
Y-127600D01*
G01X202142Y-131600D02*
Y-127600D01*
X204358D01*
G01X203542Y-129533D02*
X202142D01*
G01X207350Y-127600D02*
X208750D01*
G01X208050D02*
Y-131600D01*
G01X207350D02*
X208750D01*
G01X211567D02*
Y-127600D01*
X212733D01*
X213200Y-127800D01*
X213550Y-128067D01*
X213842Y-128467D01*
X214075Y-128933D01*
X214133Y-129600D01*
X214075Y-130267D01*
X213842Y-130733D01*
X213550Y-131133D01*
X213200Y-131400D01*
X212733Y-131600D01*
X211567D01*
G01X218817D02*
X216483D01*
Y-127600D01*
X218817D01*
G01X217883Y-129533D02*
X216483D01*
G01X221108Y-131600D02*
Y-127600D01*
X223792Y-131600D01*
Y-127600D01*
G01X227250D02*
Y-131600D01*
G01X225908Y-127600D02*
X228592D01*
G01X231350D02*
X232750D01*
G01X232050D02*
Y-131600D01*
G01X231350D02*
X232750D01*
G01X235392D02*
X236850Y-127600D01*
X238308Y-131600D01*
G01X237783Y-130200D02*
X235917D01*
G01X240483Y-127600D02*
Y-131600D01*
X242817D01*
G01X250083D02*
Y-127600D01*
X251483D01*
X251950Y-127800D01*
X252300Y-128267D01*
X252417Y-128800D01*
X252300Y-129333D01*
X252008Y-129733D01*
X251483Y-129933D01*
X250083D01*
G01X254883Y-131600D02*
Y-127600D01*
X256342D01*
X256808Y-127800D01*
X257100Y-128067D01*
X257217Y-128600D01*
X257100Y-129133D01*
X256750Y-129467D01*
X256342Y-129667D01*
X254883D01*
G01X256342D02*
X257217Y-131600D01*
G01X260850D02*
X260383Y-131533D01*
X259975Y-131267D01*
X259625Y-130867D01*
X259392Y-130400D01*
X259275Y-129867D01*
Y-129333D01*
X259392Y-128800D01*
X259625Y-128333D01*
X259975Y-127933D01*
X260383Y-127667D01*
X260850Y-127600D01*
X261317Y-127667D01*
X261725Y-127933D01*
X262075Y-128333D01*
X262308Y-128800D01*
X262425Y-129333D01*
Y-129867D01*
X262308Y-130400D01*
X262075Y-130867D01*
X261725Y-131267D01*
X261317Y-131533D01*
X260850Y-131600D01*
G01X264483D02*
Y-127600D01*
X265883D01*
X266350Y-127800D01*
X266700Y-128267D01*
X266817Y-128800D01*
X266700Y-129333D01*
X266408Y-129733D01*
X265883Y-129933D01*
X264483D01*
G01X269283Y-131600D02*
Y-127600D01*
X270742D01*
X271208Y-127800D01*
X271500Y-128067D01*
X271617Y-128600D01*
X271500Y-129133D01*
X271150Y-129467D01*
X270742Y-129667D01*
X269283D01*
G01X270742D02*
X271617Y-131600D01*
G01X274550Y-127600D02*
X275950D01*
G01X275250D02*
Y-131600D01*
G01X274550D02*
X275950D01*
G01X281217D02*
X278883D01*
Y-127600D01*
X281217D01*
G01X280283Y-129533D02*
X278883D01*
G01X284850Y-127600D02*
Y-131600D01*
G01X283508Y-127600D02*
X286192D01*
G01X288192Y-131600D02*
X289650Y-127600D01*
X291108Y-131600D01*
G01X290583Y-130200D02*
X288717D01*
G01X293283Y-131600D02*
Y-127600D01*
X294742D01*
X295208Y-127800D01*
X295500Y-128067D01*
X295617Y-128600D01*
X295500Y-129133D01*
X295150Y-129467D01*
X294742Y-129667D01*
X293283D01*
G01X294742D02*
X295617Y-131600D01*
G01X299250D02*
Y-129800D01*
X298083Y-127600D01*
G01X300417D02*
X299250Y-129800D01*
G01X304342Y-132933D02*
X304925Y-132267D01*
X305217Y-131600D01*
Y-128933D01*
X304925Y-128267D01*
X304342Y-127600D01*
G01X115167Y-147100D02*
Y-143100D01*
X116333D01*
X116800Y-143300D01*
X117150Y-143567D01*
X117442Y-143967D01*
X117675Y-144433D01*
X117733Y-145100D01*
X117675Y-145767D01*
X117442Y-146233D01*
X117150Y-146633D01*
X116800Y-146900D01*
X116333Y-147100D01*
X115167D01*
G01X119792D02*
X121250Y-143100D01*
X122708Y-147100D01*
G01X122183Y-145700D02*
X120317D01*
G01X126050Y-143100D02*
Y-147100D01*
G01X124708Y-143100D02*
X127392D01*
G01X132017Y-147100D02*
X129683D01*
Y-143100D01*
X132017D01*
G01X131083Y-145033D02*
X129683D01*
G01X129405Y-116100D02*
X132695Y-109800D01*
G01X129405D02*
X132695Y-116100D01*
G01X124700Y-116433D02*
X128200D01*
G01X129500D02*
X133000D01*
G01X134300D02*
X137800D01*
G01X144308Y-115100D02*
Y-111100D01*
X146992Y-115100D01*
Y-111100D01*
G01X149750D02*
X151150D01*
G01X150450D02*
Y-115100D01*
G01X149750D02*
X151150D01*
G01X153967Y-111100D02*
Y-113967D01*
X154200Y-114567D01*
X154667Y-114967D01*
X155250Y-115100D01*
X155833Y-114967D01*
X156300Y-114567D01*
X156533Y-113967D01*
Y-111100D01*
G01X160050Y-115100D02*
X159583Y-115033D01*
X159175Y-114767D01*
X158825Y-114367D01*
X158592Y-113900D01*
X158475Y-113367D01*
Y-112833D01*
X158592Y-112300D01*
X158825Y-111833D01*
X159175Y-111433D01*
X159583Y-111167D01*
X160050Y-111100D01*
X160517Y-111167D01*
X160925Y-111433D01*
X161275Y-111833D01*
X161508Y-112300D01*
X161625Y-112833D01*
Y-113367D01*
X161508Y-113900D01*
X161275Y-114367D01*
X160925Y-114767D01*
X160517Y-115033D01*
X160050Y-115100D01*
G01X169358Y-116433D02*
X168775Y-115767D01*
X168483Y-115100D01*
Y-112433D01*
X168775Y-111767D01*
X169358Y-111100D01*
G01X173108Y-115100D02*
Y-111100D01*
X175792Y-115100D01*
Y-111100D01*
G01X178025Y-115100D02*
X180475Y-111100D01*
G01X178025D02*
X180475Y-115100D01*
G01X182883D02*
Y-111100D01*
X184283D01*
X184750Y-111300D01*
X185100Y-111767D01*
X185217Y-112300D01*
X185100Y-112833D01*
X184808Y-113233D01*
X184283Y-113433D01*
X182883D01*
G01X192950Y-111100D02*
X194350D01*
G01X193650D02*
Y-115100D01*
G01X192950D02*
X194350D01*
G01X197108D02*
Y-111100D01*
X199792Y-115100D01*
Y-111100D01*
G01X203250D02*
Y-115100D01*
G01X201908Y-111100D02*
X204592D01*
G01X209217Y-115100D02*
X206883D01*
Y-111100D01*
X209217D01*
G01X208283Y-113033D02*
X206883D01*
G01X211683Y-115100D02*
Y-111100D01*
X213142D01*
X213608Y-111300D01*
X213900Y-111567D01*
X214017Y-112100D01*
X213900Y-112633D01*
X213550Y-112967D01*
X213142Y-113167D01*
X211683D01*
G01X213142D02*
X214017Y-115100D01*
G01X216308D02*
Y-111100D01*
X218992Y-115100D01*
Y-111100D01*
G01X220992Y-115100D02*
X222450Y-111100D01*
X223908Y-115100D01*
G01X223383Y-113700D02*
X221517D01*
G01X226083Y-111100D02*
Y-115100D01*
X228417D01*
G01X235567Y-111100D02*
Y-113967D01*
X235800Y-114567D01*
X236267Y-114967D01*
X236850Y-115100D01*
X237433Y-114967D01*
X237900Y-114567D01*
X238133Y-113967D01*
Y-111100D01*
G01X240425Y-114567D02*
X240892Y-114900D01*
X241417Y-115100D01*
X241883D01*
X242350Y-114900D01*
X242700Y-114567D01*
X242875Y-114100D01*
X242758Y-113633D01*
X242467Y-113233D01*
X241942Y-112967D01*
X241242Y-112833D01*
X240833Y-112567D01*
X240658Y-112100D01*
X240775Y-111633D01*
X241067Y-111300D01*
X241475Y-111100D01*
X241883D01*
X242292Y-111233D01*
X242642Y-111567D01*
G01X247617Y-115100D02*
X245283D01*
Y-111100D01*
X247617D01*
G01X246683Y-113033D02*
X245283D01*
G01X256050Y-115100D02*
X255583Y-115033D01*
X255175Y-114767D01*
X254825Y-114367D01*
X254592Y-113900D01*
X254475Y-113367D01*
Y-112833D01*
X254592Y-112300D01*
X254825Y-111833D01*
X255175Y-111433D01*
X255583Y-111167D01*
X256050Y-111100D01*
X256517Y-111167D01*
X256925Y-111433D01*
X257275Y-111833D01*
X257508Y-112300D01*
X257625Y-112833D01*
Y-113367D01*
X257508Y-113900D01*
X257275Y-114367D01*
X256925Y-114767D01*
X256517Y-115033D01*
X256050Y-115100D01*
G01X259508D02*
Y-111100D01*
X262192Y-115100D01*
Y-111100D01*
G01X264483D02*
Y-115100D01*
X266817D01*
G01X270450D02*
Y-113300D01*
X269283Y-111100D01*
G01X271617D02*
X270450Y-113300D01*
G01X275542Y-116433D02*
X276125Y-115767D01*
X276417Y-115100D01*
Y-112433D01*
X276125Y-111767D01*
X275542Y-111100D01*
G01X124700Y-100433D02*
X128200D01*
G01X129500D02*
X133000D01*
G01X134300D02*
X137800D01*
G01X144483Y-99100D02*
Y-95100D01*
X145883D01*
X146350Y-95300D01*
X146700Y-95767D01*
X146817Y-96300D01*
X146700Y-96833D01*
X146408Y-97233D01*
X145883Y-97433D01*
X144483D01*
G01X149167Y-95100D02*
Y-97967D01*
X149400Y-98567D01*
X149867Y-98967D01*
X150450Y-99100D01*
X151033Y-98967D01*
X151500Y-98567D01*
X151733Y-97967D01*
Y-95100D01*
G01X155717Y-96967D02*
X155950Y-96767D01*
X156125Y-96433D01*
X156242Y-95967D01*
X156125Y-95567D01*
X155892Y-95300D01*
X155483Y-95100D01*
X153908D01*
Y-99100D01*
X155833D01*
X156242Y-98833D01*
X156475Y-98433D01*
X156592Y-97967D01*
X156475Y-97500D01*
X156125Y-97100D01*
X155717Y-96967D01*
X153908D01*
G01X159350Y-95100D02*
X160750D01*
G01X160050D02*
Y-99100D01*
G01X159350D02*
X160750D01*
G01X169358Y-100433D02*
X168775Y-99767D01*
X168483Y-99100D01*
Y-96433D01*
X168775Y-95767D01*
X169358Y-95100D01*
G01X173283Y-99100D02*
Y-95100D01*
X174683D01*
X175150Y-95300D01*
X175500Y-95767D01*
X175617Y-96300D01*
X175500Y-96833D01*
X175208Y-97233D01*
X174683Y-97433D01*
X173283D01*
G01X177967Y-95100D02*
Y-97967D01*
X178200Y-98567D01*
X178667Y-98967D01*
X179250Y-99100D01*
X179833Y-98967D01*
X180300Y-98567D01*
X180533Y-97967D01*
Y-95100D01*
G01X184517Y-96967D02*
X184750Y-96767D01*
X184925Y-96433D01*
X185042Y-95967D01*
X184925Y-95567D01*
X184692Y-95300D01*
X184283Y-95100D01*
X182708D01*
Y-99100D01*
X184633D01*
X185042Y-98833D01*
X185275Y-98433D01*
X185392Y-97967D01*
X185275Y-97500D01*
X184925Y-97100D01*
X184517Y-96967D01*
X182708D01*
G01X187683Y-95100D02*
Y-99100D01*
X190017D01*
G01X192950Y-95100D02*
X194350D01*
G01X193650D02*
Y-99100D01*
G01X192950D02*
X194350D01*
G01X199733Y-95433D02*
X199383Y-95233D01*
X198975Y-95100D01*
X198508D01*
X197983Y-95300D01*
X197575Y-95633D01*
X197283Y-96033D01*
X197050Y-96700D01*
X196992Y-97300D01*
X197108Y-97900D01*
X197283Y-98300D01*
X197633Y-98700D01*
X198042Y-98967D01*
X198450Y-99100D01*
X198858D01*
X199267Y-98967D01*
X199617Y-98767D01*
X199908Y-98500D01*
G01X207350Y-95100D02*
X208750D01*
G01X208050D02*
Y-99100D01*
G01X207350D02*
X208750D01*
G01X211508D02*
Y-95100D01*
X214192Y-99100D01*
Y-95100D01*
G01X216542Y-99100D02*
Y-95100D01*
X218758D01*
G01X217942Y-97033D02*
X216542D01*
G01X222450Y-99100D02*
X221983Y-99033D01*
X221575Y-98767D01*
X221225Y-98367D01*
X220992Y-97900D01*
X220875Y-97367D01*
Y-96833D01*
X220992Y-96300D01*
X221225Y-95833D01*
X221575Y-95433D01*
X221983Y-95167D01*
X222450Y-95100D01*
X222917Y-95167D01*
X223325Y-95433D01*
X223675Y-95833D01*
X223908Y-96300D01*
X224025Y-96833D01*
Y-97367D01*
X223908Y-97900D01*
X223675Y-98367D01*
X223325Y-98767D01*
X222917Y-99033D01*
X222450Y-99100D01*
G01X226083D02*
Y-95100D01*
X227542D01*
X228008Y-95300D01*
X228300Y-95567D01*
X228417Y-96100D01*
X228300Y-96633D01*
X227950Y-96967D01*
X227542Y-97167D01*
X226083D01*
G01X227542D02*
X228417Y-99100D01*
G01X230533D02*
Y-95100D01*
X232050Y-98433D01*
X233567Y-95100D01*
Y-99100D01*
G01X235392D02*
X236850Y-95100D01*
X238308Y-99100D01*
G01X237783Y-97700D02*
X235917D01*
G01X241650Y-95100D02*
Y-99100D01*
G01X240308Y-95100D02*
X242992D01*
G01X245750D02*
X247150D01*
G01X246450D02*
Y-99100D01*
G01X245750D02*
X247150D01*
G01X251250D02*
X250783Y-99033D01*
X250375Y-98767D01*
X250025Y-98367D01*
X249792Y-97900D01*
X249675Y-97367D01*
Y-96833D01*
X249792Y-96300D01*
X250025Y-95833D01*
X250375Y-95433D01*
X250783Y-95167D01*
X251250Y-95100D01*
X251717Y-95167D01*
X252125Y-95433D01*
X252475Y-95833D01*
X252708Y-96300D01*
X252825Y-96833D01*
Y-97367D01*
X252708Y-97900D01*
X252475Y-98367D01*
X252125Y-98767D01*
X251717Y-99033D01*
X251250Y-99100D01*
G01X254708D02*
Y-95100D01*
X257392Y-99100D01*
Y-95100D01*
G01X261142Y-100433D02*
X261725Y-99767D01*
X262017Y-99100D01*
Y-96433D01*
X261725Y-95767D01*
X261142Y-95100D01*
G01X115108Y-67100D02*
Y-63100D01*
X117792Y-67100D01*
Y-63100D01*
G01X119792Y-67100D02*
X121250Y-63100D01*
X122708Y-67100D01*
G01X122183Y-65700D02*
X120317D01*
G01X124533Y-67100D02*
Y-63100D01*
X126050Y-66433D01*
X127567Y-63100D01*
Y-67100D01*
G01X132017D02*
X129683D01*
Y-63100D01*
X132017D01*
G01X131083Y-65033D02*
X129683D01*
G01X123100Y81600D02*
Y71600D01*
G01X118700Y108300D02*
Y89000D01*
X123100Y84600D01*
Y81600D01*
G01X126800Y106300D02*
X121400Y100900D01*
Y93300D01*
X123100Y91600D01*
G01X148700Y69000D02*
X140900Y76800D01*
Y104600D01*
X136800Y108700D01*
Y127650D01*
X134900Y129550D01*
X130050D01*
X126800Y126300D01*
G01X218400Y59000D02*
X218008Y59387D01*
X217984Y62828D01*
X214047Y66710D01*
X205539Y66650D01*
X155050D01*
X142500Y79200D01*
Y108800D01*
X138300Y113000D01*
Y152500D01*
X133700Y157100D01*
G01X139900Y156800D02*
Y114000D01*
X144400Y109500D01*
Y80500D01*
X156400Y68500D01*
X195550D01*
X198150Y71100D01*
G01X147150Y160700D02*
X147400Y160450D01*
Y118500D01*
X151000Y114900D01*
Y95800D01*
X148000Y92800D01*
Y83600D01*
X159100Y72500D01*
X184650D01*
G01X145500Y153100D02*
Y117600D01*
X148700Y114400D01*
Y96300D01*
X146200Y93800D01*
Y81900D01*
X157500Y70600D01*
X189550D01*
G01X150850Y168900D02*
X143700Y161750D01*
Y112800D01*
X146400Y110100D01*
Y98400D01*
G01X195550Y73000D02*
X194250Y74300D01*
X161400D01*
X150100Y85600D01*
G01X140950Y169300D02*
X141900Y168350D01*
Y121700D01*
G01X165108Y-147100D02*
Y-143100D01*
X167792Y-147100D01*
Y-143100D01*
G01X169967D02*
Y-145967D01*
X170200Y-146567D01*
X170667Y-146967D01*
X171250Y-147100D01*
X171833Y-146967D01*
X172300Y-146567D01*
X172533Y-145967D01*
Y-143100D01*
G01X174533Y-147100D02*
Y-143100D01*
X176050Y-146433D01*
X177567Y-143100D01*
Y-147100D01*
G01X181317Y-144967D02*
X181550Y-144767D01*
X181725Y-144433D01*
X181842Y-143967D01*
X181725Y-143567D01*
X181492Y-143300D01*
X181083Y-143100D01*
X179508D01*
Y-147100D01*
X181433D01*
X181842Y-146833D01*
X182075Y-146433D01*
X182192Y-145967D01*
X182075Y-145500D01*
X181725Y-145100D01*
X181317Y-144967D01*
X179508D01*
G01X186817Y-147100D02*
X184483D01*
Y-143100D01*
X186817D01*
G01X185883Y-145033D02*
X184483D01*
G01X189283Y-147100D02*
Y-143100D01*
X190742D01*
X191208Y-143300D01*
X191500Y-143567D01*
X191617Y-144100D01*
X191500Y-144633D01*
X191150Y-144967D01*
X190742Y-145167D01*
X189283D01*
G01X190742D02*
X191617Y-147100D01*
G01X157000Y34300D02*
X162000D01*
X165700Y38000D01*
X207700D01*
X220450Y50750D01*
Y60850D01*
X219825Y61475D01*
G01X161050Y36250D02*
X164050Y39250D01*
X206550D01*
X218900Y51600D01*
Y58500D01*
X218400Y59000D01*
G01X186700Y83500D02*
X187700Y84500D01*
Y141300D01*
X170200Y158800D01*
X165600D01*
X162400Y162000D01*
G01X219825Y61475D02*
Y63675D01*
X214600Y68900D01*
X203000D01*
X189700Y82200D01*
Y142200D01*
X170600Y161300D01*
X167500D01*
G01X186450Y154650D02*
X185050D01*
X176300Y163400D01*
Y167100D01*
G01X207750Y30650D02*
X216750D01*
X220850Y34750D01*
Y47850D01*
X222500Y49500D01*
Y64550D01*
X215650Y71400D01*
X203600D01*
X191750Y83250D01*
Y142650D01*
X166800Y167600D01*
X166700D01*
G01X200050Y-154100D02*
Y-147800D01*
X199110Y-149060D01*
G01Y-154100D02*
X200990D01*
G01X206193D02*
X206350Y-152735D01*
X206585Y-151580D01*
X206898Y-150530D01*
X207290Y-149375D01*
X207917Y-147800D01*
X204783D01*
G01X212650D02*
X212023Y-148010D01*
X211553Y-148535D01*
X211240Y-149165D01*
X211005Y-150005D01*
X210927Y-150950D01*
X211005Y-151895D01*
X211240Y-152735D01*
X211553Y-153365D01*
X212023Y-153890D01*
X212650Y-154100D01*
X213277Y-153890D01*
X213747Y-153365D01*
X214060Y-152735D01*
X214295Y-151895D01*
X214373Y-150950D01*
X214295Y-150005D01*
X214060Y-149165D01*
X213747Y-148535D01*
X213277Y-148010D01*
X212650Y-147800D01*
G01X217932Y-152000D02*
X219968D01*
G01X223762Y-148850D02*
X224232Y-148220D01*
X224780Y-147905D01*
X225407Y-147800D01*
X226190Y-148010D01*
X226738Y-148535D01*
X226895Y-149165D01*
X226817Y-149795D01*
X226503Y-150320D01*
X224937Y-151370D01*
X224232Y-152105D01*
X223762Y-153155D01*
X223605Y-154100D01*
X226895D01*
G01X230218Y-153365D02*
X230767Y-153890D01*
X231393Y-154100D01*
X232020Y-153890D01*
X232568Y-153260D01*
X232960Y-152315D01*
X233117Y-151370D01*
Y-150215D01*
X232960Y-149270D01*
X232568Y-148430D01*
X232098Y-148010D01*
X231550Y-147800D01*
X230923Y-148010D01*
X230453Y-148430D01*
X230140Y-149060D01*
X229983Y-149900D01*
X230140Y-150635D01*
X230532Y-151370D01*
X231002Y-151790D01*
X231550Y-151895D01*
X232177Y-151685D01*
X232647Y-151160D01*
X233117Y-150215D01*
G01X237850Y-154100D02*
Y-147800D01*
X236910Y-149060D01*
G01Y-154100D02*
X238790D01*
G01X244150Y-147800D02*
X243523Y-148010D01*
X243053Y-148535D01*
X242740Y-149165D01*
X242505Y-150005D01*
X242427Y-150950D01*
X242505Y-151895D01*
X242740Y-152735D01*
X243053Y-153365D01*
X243523Y-153890D01*
X244150Y-154100D01*
X244777Y-153890D01*
X245247Y-153365D01*
X245560Y-152735D01*
X245795Y-151895D01*
X245873Y-150950D01*
X245795Y-150005D01*
X245560Y-149165D01*
X245247Y-148535D01*
X244777Y-148010D01*
X244150Y-147800D01*
G01X248962Y-148850D02*
X249432Y-148220D01*
X249980Y-147905D01*
X250607Y-147800D01*
X251390Y-148010D01*
X251938Y-148535D01*
X252095Y-149165D01*
X252017Y-149795D01*
X251703Y-150320D01*
X250137Y-151370D01*
X249432Y-152105D01*
X248962Y-153155D01*
X248805Y-154100D01*
X252095D01*
G01X261483D02*
Y-147800D01*
X263442D01*
X264068Y-148115D01*
X264460Y-148535D01*
X264617Y-149375D01*
X264460Y-150215D01*
X263990Y-150740D01*
X263442Y-151055D01*
X261483D01*
G01X263442D02*
X264617Y-154100D01*
G01X270917D02*
X267783D01*
Y-147800D01*
X270917D01*
G01X269663Y-150845D02*
X267783D01*
G01X273692Y-147800D02*
X275650Y-154100D01*
X277608Y-147800D01*
G01X289973Y-148325D02*
X289503Y-148010D01*
X288955Y-147800D01*
X288328D01*
X287623Y-148115D01*
X287075Y-148640D01*
X286683Y-149270D01*
X286370Y-150320D01*
X286292Y-151265D01*
X286448Y-152210D01*
X286683Y-152840D01*
X287153Y-153470D01*
X287702Y-153890D01*
X288250Y-154100D01*
X288798D01*
X289347Y-153890D01*
X289817Y-153575D01*
X290208Y-153155D01*
G01X294550Y-154100D02*
Y-147800D01*
X293610Y-149060D01*
G01Y-154100D02*
X295490D01*
G01X182862Y-79900D02*
Y-73600D01*
X185838D01*
G01X184742Y-76645D02*
X182862D01*
G01X189083Y-79900D02*
Y-73600D01*
X191042D01*
X191668Y-73915D01*
X192060Y-74335D01*
X192217Y-75175D01*
X192060Y-76015D01*
X191590Y-76540D01*
X191042Y-76855D01*
X189083D01*
G01X191042D02*
X192217Y-79900D01*
G01X195227D02*
Y-73600D01*
X196793D01*
X197420Y-73915D01*
X197890Y-74335D01*
X198282Y-74965D01*
X198595Y-75700D01*
X198673Y-76750D01*
X198595Y-77800D01*
X198282Y-78535D01*
X197890Y-79165D01*
X197420Y-79585D01*
X196793Y-79900D01*
X195227D01*
G01X201213D02*
Y-73600D01*
X203250Y-78850D01*
X205287Y-73600D01*
Y-79900D01*
G01X208532Y-77800D02*
X210568D01*
G01X214127Y-79900D02*
Y-73600D01*
G01X217103D02*
X214127Y-77485D01*
G01X217573Y-79900D02*
X215458Y-75700D01*
G01X219800Y-73600D02*
X220897Y-79900D01*
X222150Y-73600D01*
X223403Y-79900D01*
X224500Y-73600D01*
G01X229390Y-79900D02*
Y-73600D01*
X226492Y-78115D01*
X230408D01*
G01X234750Y-79900D02*
Y-73600D01*
X233810Y-74860D01*
G01Y-79900D02*
X235690D01*
G01X239562Y-73600D02*
X242538D01*
X239562Y-79900D01*
X242538D01*
G01X195900Y13800D02*
X198900Y10800D01*
X221500D01*
X228900Y18200D01*
X243000D01*
X251600Y26800D01*
Y36300D01*
G01X238700Y37800D02*
Y31950D01*
X221750Y15000D01*
X199800D01*
X198800Y14000D01*
G01X187600Y14800D02*
X193200Y9200D01*
X221650D01*
X229150Y16700D01*
X243550D01*
X253750Y26900D01*
Y37500D01*
X252100Y39150D01*
G01X211000Y73950D02*
X204250D01*
X194400Y83800D01*
Y106700D01*
G01X186450Y154650D02*
Y153050D01*
X197000Y142500D01*
Y136200D01*
X196500Y135700D01*
Y130700D01*
X197000Y130200D01*
Y84800D01*
X201300Y80500D01*
Y79900D01*
G01X204800Y76550D02*
X204000Y77350D01*
Y84900D01*
X202000Y86900D01*
Y114900D01*
G01Y83300D02*
X199500Y85800D01*
Y143600D01*
X195500Y147600D01*
Y154200D01*
G01D02*
X190800Y158900D01*
Y166800D01*
G01X216700Y18600D02*
X223400D01*
X236850Y32050D01*
Y39950D01*
X236500Y40300D01*
G01X240500D02*
Y31650D01*
X221700Y12850D01*
X206650D01*
G01X223450Y21300D02*
X234900Y32750D01*
Y37900D01*
G01X212800Y76650D02*
X208850D01*
X205600Y79900D01*
Y86300D01*
X204100Y87800D01*
Y120900D01*
X205650Y122450D01*
Y145450D01*
X212100Y151900D01*
G01X227000Y96000D02*
Y96900D01*
X226700Y97200D01*
Y141400D01*
X220800Y147300D01*
Y154500D01*
G01X221500Y78700D02*
X210550D01*
X207850Y81400D01*
Y87000D01*
X206000Y88850D01*
Y120700D01*
X207200Y121900D01*
Y144200D01*
X213900Y150900D01*
Y154200D01*
X208500Y159600D01*
G01X253500Y90000D02*
X251500Y88000D01*
Y65700D01*
X246300Y60500D01*
Y52300D01*
X242600Y48600D01*
Y31500D01*
X232400Y21300D01*
Y20500D01*
G01X255650Y36700D02*
Y26150D01*
X244400Y14900D01*
X230000D01*
G01X249800Y66700D02*
X250000Y66900D01*
Y83500D01*
X248000Y85500D01*
G01Y82500D02*
X247600Y82100D01*
Y66700D01*
G01X242500Y84500D02*
Y83000D01*
X245400Y80100D01*
Y66700D01*
G01X237000Y86000D02*
X243200Y79800D01*
Y66800D01*
X243300Y66700D01*
G01X241200D02*
X241000Y66900D01*
Y79000D01*
X234000Y86000D01*
G01X231000D02*
X239100Y77900D01*
Y66700D01*
G01X227500Y86000D02*
X237000Y76500D01*
Y66700D01*
G01X234000Y96000D02*
X230800Y99200D01*
Y117800D01*
G01X230500Y96000D02*
X228350Y98150D01*
Y158650D01*
X234200Y164500D01*
G01X237500Y96000D02*
X232800Y100700D01*
Y146000D01*
G01X230800Y142800D02*
Y117800D01*
G01X249900Y104400D02*
Y102550D01*
X265350Y87100D01*
X270100D01*
X273000Y84200D01*
Y80400D01*
X270250Y77650D01*
X266050D01*
X258600Y70200D01*
Y65900D01*
X259500Y65000D01*
Y49500D01*
X257550Y47550D01*
Y41100D01*
X255600Y39150D01*
X252100D01*
G01X255650Y36700D02*
X259100Y40150D01*
Y45600D01*
X261000Y47500D01*
Y66000D01*
X260100Y66900D01*
Y69100D01*
X267200Y76200D01*
X270800D01*
X274500Y79900D01*
Y84800D01*
X270500Y88800D01*
X265350D01*
X254400Y99750D01*
Y106500D01*
X250250Y110650D01*
Y133650D01*
X249700Y134200D01*
G54D15*
X78800Y89500D03*
Y84500D03*
X73800Y94500D03*
X131800Y116300D03*
Y111300D03*
Y106300D03*
X126800D03*
Y126300D03*
G54D25*
G01X239900Y131800D02*
Y104400D01*
G01X264175Y41425D02*
X266900Y38700D01*
Y22800D01*
X268500Y21200D01*
G54D16*
X86800Y186400D03*
X122300Y46200D03*
X142300D03*
X157300Y58700D03*
G54D17*
X112400Y-3500D03*
X102400D03*
X152400D03*
X142400D03*
X162400D03*
G54D18*
X219600Y112800D03*
G54D19*
X234500Y76500D03*
X247000Y64500D03*
X240000D03*
X243500D03*
X249800Y66700D03*
X247600D03*
X245400D03*
X243300D03*
X241200D03*
X239100D03*
X237000D03*
X232400Y78600D03*
X228000Y83000D03*
X239500Y87000D03*
X255300Y76000D03*
X254900Y71600D03*
X253200Y74000D03*
X253300Y82000D03*
Y85500D03*
M02*
