G04 ================== begin FILE IDENTIFICATION RECORD ==================*
G04 Layout Name:  LAY-29102_C1.brd*
G04 Film Name:    GBR-29102_C_SSM*
G04 File Format:  Gerber RS274X*
G04 File Origin:  Cadence Allegro 16.6-2015-S058*
G04 Origin Date:  Fri Oct 13 11:06:06 2017*
G04 *
G04 Layer:  VIA CLASS/SOLDERMASK_BOTTOM*
G04 Layer:  PIN/SOLDERMASK_BOTTOM*
G04 Layer:  PACKAGE GEOMETRY/SOLDERMASK_BOTTOM*
G04 Layer:  DRAWING FORMAT/FILM_TITLE_BLOCK*
G04 Layer:  BOARD GEOMETRY/OUTLINE*
G04 Layer:  BOARD GEOMETRY/SOLDERMASK_BOTTOM*
G04 *
G04 Offset:    (0.0000 0.0000)*
G04 Mirror:    No*
G04 Mode:      Positive*
G04 Rotation:  0*
G04 FullContactRelief:  No*
G04 UndefLineWidth:     0.0000*
G04 ================== end FILE IDENTIFICATION RECORD ====================*
%FSLAX55Y55*MOIN*%
%IR0*IPPOS*OFA0.00000B0.00000*MIA0B0*SFA1.00000B1.00000*%
%ADD10C,.034*%
%ADD34C,.026*%
%ADD30C,.071*%
%ADD18C,.044*%
%ADD15C,.028*%
%ADD11C,.064*%
%ADD24C,.029*%
%ADD33C,.095*%
%ADD31R,.071X.071*%
%ADD28R,.044X.044*%
%ADD25C,.069*%
%ADD12R,.064X.064*%
%ADD26R,.069X.069*%
%AMMACRO13*
4,1,24,.04,.03,
.04,-.008,
.039695,-.011796,
.038735,-.015481,
.037149,-.018944,
.034987,-.022079,
.032313,-.02479,
.029209,-.026997,
.025769,-.02863,
.022097,-.029642,
.018306,-.03,
.018,-.03,
-.018,-.03,
-.021796,-.029695,
-.025481,-.028735,
-.028944,-.027149,
-.032079,-.024987,
-.03479,-.022313,
-.036997,-.019209,
-.03863,-.015769,
-.039642,-.012097,
-.04,-.008306,
-.04,-.008,
-.04,.03,
.04,.03,
0.0*
%
%ADD13MACRO13*%
%ADD16O,.029X.024*%
%ADD27C,.12*%
%ADD23R,.043X.036*%
%ADD21O,.054X.046*%
%ADD17C,.102*%
%ADD32R,.039X.035*%
%ADD29O,.049X.039*%
%ADD20R,.102X.102*%
%ADD22C,.129*%
%ADD19R,.16X.16*%
%AMMACRO14*
4,1,24,-.04,-.03,
-.04,.008,
-.039695,.011796,
-.038735,.015481,
-.037149,.018944,
-.034987,.022079,
-.032313,.02479,
-.029209,.026997,
-.025769,.02863,
-.022097,.029642,
-.018306,.03,
-.018,.03,
.018,.03,
.021796,.029695,
.025481,.028735,
.028944,.027149,
.032079,.024987,
.03479,.022313,
.036997,.019209,
.03863,.015769,
.039642,.012097,
.04,.008306,
.04,.008,
.04,-.03,
-.04,-.03,
0.0*
%
%ADD14MACRO14*%
%ADD35C,.01*%
%ADD36C,.02*%
%ADD37C,.014*%
%ADD38C,.015*%
%ADD39C,.006*%
G75*
%LPD*%
G75*
G36*
G01X306500Y54400D02*
X298600D01*
Y46500D01*
X306500D01*
Y54400D01*
G37*
G36*
G01X312000Y63100D02*
X315100D01*
Y59700D01*
X312000D01*
Y63100D01*
G37*
G36*
G01X306500Y76500D02*
X298600D01*
Y68600D01*
X306500D01*
Y76500D01*
G37*
G54D10*
X-7000Y9000D03*
X12400Y185400D03*
X-1000Y191300D03*
Y183500D03*
X21400Y38200D03*
X61800Y118300D03*
X50200Y125100D03*
X51400Y152100D03*
X60300Y151700D03*
X84600Y108500D03*
X97800Y74900D03*
X98200Y138500D03*
X91400Y138900D03*
X93400Y133600D03*
X92000Y160100D03*
X130650Y157100D03*
X146600Y86100D03*
X145800Y109100D03*
X145200Y140100D03*
X157000Y159300D03*
X152400Y149100D03*
X178100Y77250D03*
X161500Y159100D03*
X167750Y156500D03*
X194900Y119600D03*
X193300Y110800D03*
X192800Y144700D03*
X204000Y142100D03*
X203400Y159600D03*
X238200Y145300D03*
X244500Y166700D03*
G54D20*
X21500Y131400D03*
G54D11*
X-10800Y28600D03*
X10000Y0D03*
X0D03*
X19600Y25400D03*
X34800Y38000D03*
X21800Y163000D03*
X31800D03*
X49300Y38700D03*
X58400Y163700D03*
X84000Y38700D03*
X74000D03*
X97200Y15700D03*
X111200Y31800D03*
X103400Y64000D03*
X102900Y154500D03*
X125700Y21800D03*
X123100Y71600D03*
Y91600D03*
Y81600D03*
X116300Y164500D03*
X202600Y-3700D03*
X192600D03*
X222600D03*
X212600D03*
X220800Y164500D03*
X232600Y-3700D03*
X239900Y104400D03*
X234200Y154500D03*
X269000Y10000D03*
X268100Y82400D03*
G54D21*
X-100Y143900D03*
Y161500D03*
G54D12*
X-10800Y38600D03*
X20000Y0D03*
X9600Y25400D03*
X11800Y163000D03*
X34800Y28000D03*
X59300Y38700D03*
X48400Y163700D03*
X97200Y25700D03*
X111200Y21800D03*
X94000Y38700D03*
X103400Y54000D03*
X102900Y164500D03*
X125700Y31800D03*
X133100Y71600D03*
Y91600D03*
Y81600D03*
X116300Y154500D03*
X182600Y-3700D03*
X220800Y154500D03*
X249900Y104400D03*
X234200Y164500D03*
X258100Y82400D03*
X279000Y10000D03*
G54D30*
X112400Y-3500D03*
X102400D03*
X132400D03*
X122400D03*
X152400D03*
X142400D03*
X162400D03*
X162500Y186400D03*
X172500D03*
X182500D03*
X192500D03*
X202500D03*
X212500D03*
X222500D03*
G54D22*
X41300Y-2600D03*
X36500Y182200D03*
X252800Y-2600D03*
Y182200D03*
G54D13*
X-11900Y136900D03*
G54D31*
X92400Y-3500D03*
X232500Y186400D03*
G54D14*
X-11900Y168500D03*
G54D32*
X157650Y25600D03*
X165550Y21900D03*
Y29300D03*
G54D23*
X43400Y146600D03*
X49800D03*
X84000Y25900D03*
X77600D03*
X95200Y83800D03*
X101600D03*
G54D33*
X219600Y112800D03*
G54D24*
X43500Y156100D03*
Y152100D03*
X66700Y29900D03*
Y25900D03*
X151750Y25600D03*
Y29600D03*
X174750Y31350D03*
X170750D03*
X178895Y31338D03*
X172200Y171100D03*
Y167100D03*
X182895Y31338D03*
X187400Y171100D03*
Y167100D03*
X252550Y49500D03*
X256550D03*
G54D15*
X-6100Y161600D03*
X46600Y136700D03*
X54900Y152400D03*
X84200Y119700D03*
X84300Y149000D03*
X95300Y142000D03*
X127400Y133000D03*
X219500Y104600D03*
G54D16*
X-5500Y177200D03*
X73500Y116400D03*
X98300Y133600D03*
X89800Y143400D03*
X116500Y141400D03*
G54D25*
X56800Y186400D03*
X66800D03*
X67900Y54000D03*
X77900D03*
X87900D03*
X67900Y64000D03*
X77900D03*
X76800Y186400D03*
X86800D03*
X96800D03*
X106800D03*
X122300Y46200D03*
X132300D03*
X122300Y56200D03*
X132300D03*
X116800Y186400D03*
X126800D03*
X136800D03*
X142300Y46200D03*
X157300Y58700D03*
X177300Y48700D03*
X167300D03*
X177300Y58700D03*
X167300D03*
G54D34*
X265900Y92522D03*
Y159422D03*
G54D35*
G01X-63300Y-139100D02*
X336700D01*
G01X-63300Y-109100D02*
Y-89100D01*
X336700D01*
G01X-13300Y-159100D02*
Y-139100D01*
G01X112200Y-159100D02*
Y-139100D01*
G01X111700Y-89100D02*
Y-59100D01*
G01X161700Y-159100D02*
Y-139100D01*
G54D17*
X21500Y48300D03*
G54D26*
X87900Y64000D03*
X157300Y48700D03*
X142300Y56200D03*
X146800Y186400D03*
G54D36*
G01X336700Y-59100D02*
Y-159100D01*
X-63300D01*
G01D02*
Y-59100D01*
X336700D01*
G54D27*
X91600Y95100D03*
X270500Y-6100D03*
X272700Y188700D03*
G54D18*
X400Y34100D03*
X10000Y141500D03*
X22300Y148400D03*
Y154500D03*
X61000Y-9300D03*
X53800Y19700D03*
X59300Y30000D03*
X47550Y17100D03*
X43400Y132500D03*
X76800Y800D03*
Y17600D03*
X71800Y25900D03*
X78800Y99500D03*
Y94500D03*
Y89500D03*
Y84500D03*
X73800Y99500D03*
Y94500D03*
Y89500D03*
Y84500D03*
Y79500D03*
X69000Y106100D03*
X79000Y106300D03*
X67800Y159500D03*
X105300Y46200D03*
X131800Y121300D03*
Y116300D03*
Y111300D03*
X126800Y121300D03*
Y116300D03*
Y111300D03*
Y106300D03*
X131800Y126300D03*
X126800D03*
X158600Y14200D03*
X143600Y92100D03*
X162600Y5100D03*
G54D37*
G01X48400Y163700D02*
X58400D01*
G01X97200Y25700D02*
Y15700D01*
G01X102900Y164500D02*
Y154500D01*
G01X133100Y71600D02*
X123100D01*
G01X133100Y91600D02*
X123100D01*
G01X133100Y81600D02*
X123100D01*
G01X116300Y154500D02*
Y164500D01*
G01X220800Y154500D02*
Y164500D01*
G01X234200D02*
Y154500D01*
G01X258100Y82400D02*
X268100D01*
G54D19*
X21500Y89800D03*
G54D28*
X78800Y79500D03*
X131800Y106300D03*
G54D38*
G01X132300Y56200D02*
Y46200D01*
G01X167300Y58700D02*
Y48700D01*
G54D29*
X106150Y8850D03*
Y14850D03*
G54D39*
G01X-61550Y-155600D02*
X-61142Y-155542D01*
X-60675Y-155367D01*
X-60383Y-155075D01*
X-60267Y-154667D01*
X-60383Y-154258D01*
X-60733Y-153908D01*
X-61258Y-153733D01*
X-61842D01*
X-62192Y-153617D01*
X-62483Y-153325D01*
X-62600Y-152917D01*
X-62425Y-152508D01*
X-62017Y-152217D01*
X-61550Y-152100D01*
X-61083Y-152217D01*
X-60675Y-152508D01*
X-60500Y-152917D01*
X-60617Y-153325D01*
X-60908Y-153617D01*
X-61258Y-153733D01*
X-61842D01*
X-62367Y-153908D01*
X-62717Y-154258D01*
X-62833Y-154667D01*
X-62717Y-155075D01*
X-62425Y-155367D01*
X-61958Y-155542D01*
X-61550Y-155600D01*
G01X-52950D02*
X-53417Y-155542D01*
X-53825Y-155308D01*
X-54175Y-154958D01*
X-54408Y-154550D01*
X-54525Y-154083D01*
Y-153617D01*
X-54408Y-153150D01*
X-54175Y-152742D01*
X-53825Y-152392D01*
X-53417Y-152158D01*
X-52950Y-152100D01*
X-52483Y-152158D01*
X-52075Y-152392D01*
X-51725Y-152742D01*
X-51492Y-153150D01*
X-51375Y-153617D01*
Y-154083D01*
X-51492Y-154550D01*
X-51725Y-154958D01*
X-52075Y-155308D01*
X-52483Y-155542D01*
X-52950Y-155600D01*
G01X-49758D02*
Y-152100D01*
X-47542D01*
G01X-48358Y-153792D02*
X-49758D01*
G01X-40050Y-155600D02*
Y-152100D01*
X-40750Y-152800D01*
G01Y-155600D02*
X-39350D01*
G01X-35750Y-152100D02*
X-36217Y-152217D01*
X-36567Y-152508D01*
X-36800Y-152858D01*
X-36975Y-153325D01*
X-37033Y-153850D01*
X-36975Y-154375D01*
X-36800Y-154842D01*
X-36567Y-155192D01*
X-36217Y-155483D01*
X-35750Y-155600D01*
X-35283Y-155483D01*
X-34933Y-155192D01*
X-34700Y-154842D01*
X-34525Y-154375D01*
X-34467Y-153850D01*
X-34525Y-153325D01*
X-34700Y-152858D01*
X-34933Y-152508D01*
X-35283Y-152217D01*
X-35750Y-152100D01*
G01X-59775Y-146567D02*
X-59308Y-146900D01*
X-58783Y-147100D01*
X-58317D01*
X-57850Y-146900D01*
X-57500Y-146567D01*
X-57325Y-146100D01*
X-57442Y-145633D01*
X-57733Y-145233D01*
X-58258Y-144967D01*
X-58958Y-144833D01*
X-59367Y-144567D01*
X-59542Y-144100D01*
X-59425Y-143633D01*
X-59133Y-143300D01*
X-58725Y-143100D01*
X-58317D01*
X-57908Y-143233D01*
X-57558Y-143567D01*
G01X-54975Y-147100D02*
Y-143100D01*
G01X-52525D02*
Y-147100D01*
G01Y-145100D02*
X-54975D01*
G01X-47783Y-147100D02*
X-50117D01*
Y-143100D01*
X-47783D01*
G01X-48717Y-145033D02*
X-50117D01*
G01X-42983Y-147100D02*
X-45317D01*
Y-143100D01*
X-42983D01*
G01X-43917Y-145033D02*
X-45317D01*
G01X-39350Y-143100D02*
Y-147100D01*
G01X-40692Y-143100D02*
X-38008D01*
G01X-51550Y-128100D02*
X-52017Y-128033D01*
X-52425Y-127767D01*
X-52775Y-127367D01*
X-53008Y-126900D01*
X-53125Y-126367D01*
Y-125833D01*
X-53008Y-125300D01*
X-52775Y-124833D01*
X-52425Y-124433D01*
X-52017Y-124167D01*
X-51550Y-124100D01*
X-51083Y-124167D01*
X-50675Y-124433D01*
X-50325Y-124833D01*
X-50092Y-125300D01*
X-49975Y-125833D01*
Y-126367D01*
X-50092Y-126900D01*
X-50325Y-127367D01*
X-50675Y-127767D01*
X-51083Y-128033D01*
X-51550Y-128100D01*
G01X-47917D02*
Y-124100D01*
X-46458D01*
X-45992Y-124300D01*
X-45700Y-124567D01*
X-45583Y-125100D01*
X-45700Y-125633D01*
X-46050Y-125967D01*
X-46458Y-126167D01*
X-47917D01*
G01X-46458D02*
X-45583Y-128100D01*
G01X-37850Y-124100D02*
X-36450D01*
G01X-37150D02*
Y-128100D01*
G01X-37850D02*
X-36450D01*
G01X-33692D02*
Y-124100D01*
X-31008Y-128100D01*
Y-124100D01*
G01X-23917Y-128100D02*
Y-124100D01*
X-22517D01*
X-22050Y-124300D01*
X-21700Y-124767D01*
X-21583Y-125300D01*
X-21700Y-125833D01*
X-21992Y-126233D01*
X-22517Y-126433D01*
X-23917D01*
G01X-19408Y-128100D02*
X-17950Y-124100D01*
X-16492Y-128100D01*
G01X-17017Y-126700D02*
X-18883D01*
G01X-14317Y-128100D02*
Y-124100D01*
X-12858D01*
X-12392Y-124300D01*
X-12100Y-124567D01*
X-11983Y-125100D01*
X-12100Y-125633D01*
X-12450Y-125967D01*
X-12858Y-126167D01*
X-14317D01*
G01X-12858D02*
X-11983Y-128100D01*
G01X-8350Y-124100D02*
Y-128100D01*
G01X-9692Y-124100D02*
X-7008D01*
G01X-500D02*
X317Y-128100D01*
X1250Y-124100D01*
X2183Y-128100D01*
X3000Y-124100D01*
G01X5350D02*
X6750D01*
G01X6050D02*
Y-128100D01*
G01X5350D02*
X6750D01*
G01X10850Y-124100D02*
Y-128100D01*
G01X9508Y-124100D02*
X12192D01*
G01X14425Y-128100D02*
Y-124100D01*
G01X16875D02*
Y-128100D01*
G01Y-126100D02*
X14425D01*
G01X20450Y-128100D02*
X19983Y-128033D01*
X19575Y-127767D01*
X19225Y-127367D01*
X18992Y-126900D01*
X18875Y-126367D01*
Y-125833D01*
X18992Y-125300D01*
X19225Y-124833D01*
X19575Y-124433D01*
X19983Y-124167D01*
X20450Y-124100D01*
X20917Y-124167D01*
X21325Y-124433D01*
X21675Y-124833D01*
X21908Y-125300D01*
X22025Y-125833D01*
Y-126367D01*
X21908Y-126900D01*
X21675Y-127367D01*
X21325Y-127767D01*
X20917Y-128033D01*
X20450Y-128100D01*
G01X23967Y-124100D02*
Y-126967D01*
X24200Y-127567D01*
X24667Y-127967D01*
X25250Y-128100D01*
X25833Y-127967D01*
X26300Y-127567D01*
X26533Y-126967D01*
Y-124100D01*
G01X30050D02*
Y-128100D01*
G01X28708Y-124100D02*
X31392D01*
G01X39650D02*
Y-128100D01*
G01X38308Y-124100D02*
X40992D01*
G01X43225Y-128100D02*
Y-124100D01*
G01X45675D02*
Y-128100D01*
G01Y-126100D02*
X43225D01*
G01X50417Y-128100D02*
X48083D01*
Y-124100D01*
X50417D01*
G01X49483Y-126033D02*
X48083D01*
G01X60133Y-124433D02*
X59783Y-124233D01*
X59375Y-124100D01*
X58908D01*
X58383Y-124300D01*
X57975Y-124633D01*
X57683Y-125033D01*
X57450Y-125700D01*
X57392Y-126300D01*
X57508Y-126900D01*
X57683Y-127300D01*
X58033Y-127700D01*
X58442Y-127967D01*
X58850Y-128100D01*
X59258D01*
X59667Y-127967D01*
X60017Y-127767D01*
X60308Y-127500D01*
G01X63650Y-128100D02*
X63183Y-128033D01*
X62775Y-127767D01*
X62425Y-127367D01*
X62192Y-126900D01*
X62075Y-126367D01*
Y-125833D01*
X62192Y-125300D01*
X62425Y-124833D01*
X62775Y-124433D01*
X63183Y-124167D01*
X63650Y-124100D01*
X64117Y-124167D01*
X64525Y-124433D01*
X64875Y-124833D01*
X65108Y-125300D01*
X65225Y-125833D01*
Y-126367D01*
X65108Y-126900D01*
X64875Y-127367D01*
X64525Y-127767D01*
X64117Y-128033D01*
X63650Y-128100D01*
G01X67108D02*
Y-124100D01*
X69792Y-128100D01*
Y-124100D01*
G01X72025Y-127567D02*
X72492Y-127900D01*
X73017Y-128100D01*
X73483D01*
X73950Y-127900D01*
X74300Y-127567D01*
X74475Y-127100D01*
X74358Y-126633D01*
X74067Y-126233D01*
X73542Y-125967D01*
X72842Y-125833D01*
X72433Y-125567D01*
X72258Y-125100D01*
X72375Y-124633D01*
X72667Y-124300D01*
X73075Y-124100D01*
X73483D01*
X73892Y-124233D01*
X74242Y-124567D01*
G01X79217Y-128100D02*
X76883D01*
Y-124100D01*
X79217D01*
G01X78283Y-126033D02*
X76883D01*
G01X81508Y-128100D02*
Y-124100D01*
X84192Y-128100D01*
Y-124100D01*
G01X87650D02*
Y-128100D01*
G01X86308Y-124100D02*
X88992D01*
G01X97250Y-128100D02*
X96783Y-128033D01*
X96375Y-127767D01*
X96025Y-127367D01*
X95792Y-126900D01*
X95675Y-126367D01*
Y-125833D01*
X95792Y-125300D01*
X96025Y-124833D01*
X96375Y-124433D01*
X96783Y-124167D01*
X97250Y-124100D01*
X97717Y-124167D01*
X98125Y-124433D01*
X98475Y-124833D01*
X98708Y-125300D01*
X98825Y-125833D01*
Y-126367D01*
X98708Y-126900D01*
X98475Y-127367D01*
X98125Y-127767D01*
X97717Y-128033D01*
X97250Y-128100D01*
G01X100942D02*
Y-124100D01*
X103158D01*
G01X102342Y-126033D02*
X100942D01*
G01X-52717Y-120100D02*
Y-116100D01*
X-51317D01*
X-50850Y-116300D01*
X-50500Y-116767D01*
X-50383Y-117300D01*
X-50500Y-117833D01*
X-50792Y-118233D01*
X-51317Y-118433D01*
X-52717D01*
G01X-47917Y-120100D02*
Y-116100D01*
X-46458D01*
X-45992Y-116300D01*
X-45700Y-116567D01*
X-45583Y-117100D01*
X-45700Y-117633D01*
X-46050Y-117967D01*
X-46458Y-118167D01*
X-47917D01*
G01X-46458D02*
X-45583Y-120100D01*
G01X-41950D02*
X-42417Y-120033D01*
X-42825Y-119767D01*
X-43175Y-119367D01*
X-43408Y-118900D01*
X-43525Y-118367D01*
Y-117833D01*
X-43408Y-117300D01*
X-43175Y-116833D01*
X-42825Y-116433D01*
X-42417Y-116167D01*
X-41950Y-116100D01*
X-41483Y-116167D01*
X-41075Y-116433D01*
X-40725Y-116833D01*
X-40492Y-117300D01*
X-40375Y-117833D01*
Y-118367D01*
X-40492Y-118900D01*
X-40725Y-119367D01*
X-41075Y-119767D01*
X-41483Y-120033D01*
X-41950Y-120100D01*
G01X-35867Y-116433D02*
X-36217Y-116233D01*
X-36625Y-116100D01*
X-37092D01*
X-37617Y-116300D01*
X-38025Y-116633D01*
X-38317Y-117033D01*
X-38550Y-117700D01*
X-38608Y-118300D01*
X-38492Y-118900D01*
X-38317Y-119300D01*
X-37967Y-119700D01*
X-37558Y-119967D01*
X-37150Y-120100D01*
X-36742D01*
X-36333Y-119967D01*
X-35983Y-119767D01*
X-35692Y-119500D01*
G01X-33633Y-116100D02*
Y-118967D01*
X-33400Y-119567D01*
X-32933Y-119967D01*
X-32350Y-120100D01*
X-31767Y-119967D01*
X-31300Y-119567D01*
X-31067Y-118967D01*
Y-116100D01*
G01X-28717Y-120100D02*
Y-116100D01*
X-27258D01*
X-26792Y-116300D01*
X-26500Y-116567D01*
X-26383Y-117100D01*
X-26500Y-117633D01*
X-26850Y-117967D01*
X-27258Y-118167D01*
X-28717D01*
G01X-27258D02*
X-26383Y-120100D01*
G01X-21583D02*
X-23917D01*
Y-116100D01*
X-21583D01*
G01X-22517Y-118033D02*
X-23917D01*
G01X-19467Y-120100D02*
Y-116100D01*
X-17950Y-119433D01*
X-16433Y-116100D01*
Y-120100D01*
G01X-11983D02*
X-14317D01*
Y-116100D01*
X-11983D01*
G01X-12917Y-118033D02*
X-14317D01*
G01X-9692Y-120100D02*
Y-116100D01*
X-7008Y-120100D01*
Y-116100D01*
G01X-3550D02*
Y-120100D01*
G01X-4892Y-116100D02*
X-2208D01*
G01X6050Y-120100D02*
X5583Y-120033D01*
X5175Y-119767D01*
X4825Y-119367D01*
X4592Y-118900D01*
X4475Y-118367D01*
Y-117833D01*
X4592Y-117300D01*
X4825Y-116833D01*
X5175Y-116433D01*
X5583Y-116167D01*
X6050Y-116100D01*
X6517Y-116167D01*
X6925Y-116433D01*
X7275Y-116833D01*
X7508Y-117300D01*
X7625Y-117833D01*
Y-118367D01*
X7508Y-118900D01*
X7275Y-119367D01*
X6925Y-119767D01*
X6517Y-120033D01*
X6050Y-120100D01*
G01X9683D02*
Y-116100D01*
X11142D01*
X11608Y-116300D01*
X11900Y-116567D01*
X12017Y-117100D01*
X11900Y-117633D01*
X11550Y-117967D01*
X11142Y-118167D01*
X9683D01*
G01X11142D02*
X12017Y-120100D01*
G01X18933D02*
Y-116100D01*
X20450Y-119433D01*
X21967Y-116100D01*
Y-120100D01*
G01X23792D02*
X25250Y-116100D01*
X26708Y-120100D01*
G01X26183Y-118700D02*
X24317D01*
G01X28708Y-120100D02*
Y-116100D01*
X31392Y-120100D01*
Y-116100D01*
G01X33567D02*
Y-118967D01*
X33800Y-119567D01*
X34267Y-119967D01*
X34850Y-120100D01*
X35433Y-119967D01*
X35900Y-119567D01*
X36133Y-118967D01*
Y-116100D01*
G01X38542Y-120100D02*
Y-116100D01*
X40758D01*
G01X39942Y-118033D02*
X38542D01*
G01X42992Y-120100D02*
X44450Y-116100D01*
X45908Y-120100D01*
G01X45383Y-118700D02*
X43517D01*
G01X50533Y-116433D02*
X50183Y-116233D01*
X49775Y-116100D01*
X49308D01*
X48783Y-116300D01*
X48375Y-116633D01*
X48083Y-117033D01*
X47850Y-117700D01*
X47792Y-118300D01*
X47908Y-118900D01*
X48083Y-119300D01*
X48433Y-119700D01*
X48842Y-119967D01*
X49250Y-120100D01*
X49658D01*
X50067Y-119967D01*
X50417Y-119767D01*
X50708Y-119500D01*
G01X54050Y-116100D02*
Y-120100D01*
G01X52708Y-116100D02*
X55392D01*
G01X57567D02*
Y-118967D01*
X57800Y-119567D01*
X58267Y-119967D01*
X58850Y-120100D01*
X59433Y-119967D01*
X59900Y-119567D01*
X60133Y-118967D01*
Y-116100D01*
G01X62483Y-120100D02*
Y-116100D01*
X63942D01*
X64408Y-116300D01*
X64700Y-116567D01*
X64817Y-117100D01*
X64700Y-117633D01*
X64350Y-117967D01*
X63942Y-118167D01*
X62483D01*
G01X63942D02*
X64817Y-120100D01*
G01X69617D02*
X67283D01*
Y-116100D01*
X69617D01*
G01X68683Y-118033D02*
X67283D01*
G01X77350Y-116100D02*
X78750D01*
G01X78050D02*
Y-120100D01*
G01X77350D02*
X78750D01*
G01X81508D02*
Y-116100D01*
X84192Y-120100D01*
Y-116100D01*
G01X90700D02*
X91517Y-120100D01*
X92450Y-116100D01*
X93383Y-120100D01*
X94200Y-116100D01*
G01X96025Y-120100D02*
Y-116100D01*
G01X98475D02*
Y-120100D01*
G01Y-118100D02*
X96025D01*
G01X102050Y-120100D02*
X101583Y-120033D01*
X101175Y-119767D01*
X100825Y-119367D01*
X100592Y-118900D01*
X100475Y-118367D01*
Y-117833D01*
X100592Y-117300D01*
X100825Y-116833D01*
X101175Y-116433D01*
X101583Y-116167D01*
X102050Y-116100D01*
X102517Y-116167D01*
X102925Y-116433D01*
X103275Y-116833D01*
X103508Y-117300D01*
X103625Y-117833D01*
Y-118367D01*
X103508Y-118900D01*
X103275Y-119367D01*
X102925Y-119767D01*
X102517Y-120033D01*
X102050Y-120100D01*
G01X105683Y-116100D02*
Y-120100D01*
X108017D01*
G01X112817D02*
X110483D01*
Y-116100D01*
X112817D01*
G01X111883Y-118033D02*
X110483D01*
G01X-52892Y-112100D02*
Y-108100D01*
X-50208Y-112100D01*
Y-108100D01*
G01X-46750Y-112100D02*
X-47217Y-112033D01*
X-47625Y-111767D01*
X-47975Y-111367D01*
X-48208Y-110900D01*
X-48325Y-110367D01*
Y-109833D01*
X-48208Y-109300D01*
X-47975Y-108833D01*
X-47625Y-108433D01*
X-47217Y-108167D01*
X-46750Y-108100D01*
X-46283Y-108167D01*
X-45875Y-108433D01*
X-45525Y-108833D01*
X-45292Y-109300D01*
X-45175Y-109833D01*
Y-110367D01*
X-45292Y-110900D01*
X-45525Y-111367D01*
X-45875Y-111767D01*
X-46283Y-112033D01*
X-46750Y-112100D01*
G01X-41950Y-108100D02*
Y-112100D01*
G01X-43292Y-108100D02*
X-40608D01*
G01X-31883Y-109967D02*
X-31650Y-109767D01*
X-31475Y-109433D01*
X-31358Y-108967D01*
X-31475Y-108567D01*
X-31708Y-108300D01*
X-32117Y-108100D01*
X-33692D01*
Y-112100D01*
X-31767D01*
X-31358Y-111833D01*
X-31125Y-111433D01*
X-31008Y-110967D01*
X-31125Y-110500D01*
X-31475Y-110100D01*
X-31883Y-109967D01*
X-33692D01*
G01X-26383Y-112100D02*
X-28717D01*
Y-108100D01*
X-26383D01*
G01X-27317Y-110033D02*
X-28717D01*
G01X-19233Y-108100D02*
Y-110967D01*
X-19000Y-111567D01*
X-18533Y-111967D01*
X-17950Y-112100D01*
X-17367Y-111967D01*
X-16900Y-111567D01*
X-16667Y-110967D01*
Y-108100D01*
G01X-14375Y-111567D02*
X-13908Y-111900D01*
X-13383Y-112100D01*
X-12917D01*
X-12450Y-111900D01*
X-12100Y-111567D01*
X-11925Y-111100D01*
X-12042Y-110633D01*
X-12333Y-110233D01*
X-12858Y-109967D01*
X-13558Y-109833D01*
X-13967Y-109567D01*
X-14142Y-109100D01*
X-14025Y-108633D01*
X-13733Y-108300D01*
X-13325Y-108100D01*
X-12917D01*
X-12508Y-108233D01*
X-12158Y-108567D01*
G01X-7183Y-112100D02*
X-9517D01*
Y-108100D01*
X-7183D01*
G01X-8117Y-110033D02*
X-9517D01*
G01X-4833Y-112100D02*
Y-108100D01*
X-3667D01*
X-3200Y-108300D01*
X-2850Y-108567D01*
X-2558Y-108967D01*
X-2325Y-109433D01*
X-2267Y-110100D01*
X-2325Y-110767D01*
X-2558Y-111233D01*
X-2850Y-111633D01*
X-3200Y-111900D01*
X-3667Y-112100D01*
X-4833D01*
G01X4942D02*
Y-108100D01*
X7158D01*
G01X6342Y-110033D02*
X4942D01*
G01X10850Y-112100D02*
X10383Y-112033D01*
X9975Y-111767D01*
X9625Y-111367D01*
X9392Y-110900D01*
X9275Y-110367D01*
Y-109833D01*
X9392Y-109300D01*
X9625Y-108833D01*
X9975Y-108433D01*
X10383Y-108167D01*
X10850Y-108100D01*
X11317Y-108167D01*
X11725Y-108433D01*
X12075Y-108833D01*
X12308Y-109300D01*
X12425Y-109833D01*
Y-110367D01*
X12308Y-110900D01*
X12075Y-111367D01*
X11725Y-111767D01*
X11317Y-112033D01*
X10850Y-112100D01*
G01X14483D02*
Y-108100D01*
X15942D01*
X16408Y-108300D01*
X16700Y-108567D01*
X16817Y-109100D01*
X16700Y-109633D01*
X16350Y-109967D01*
X15942Y-110167D01*
X14483D01*
G01X15942D02*
X16817Y-112100D01*
G01X26417D02*
X24083D01*
Y-108100D01*
X26417D01*
G01X25483Y-110033D02*
X24083D01*
G01X28708Y-112100D02*
Y-108100D01*
X31392Y-112100D01*
Y-108100D01*
G01X35200Y-110100D02*
X36367D01*
Y-111300D01*
X36017Y-111700D01*
X35608Y-111967D01*
X35025Y-112100D01*
X34442Y-111967D01*
X34033Y-111700D01*
X33683Y-111300D01*
X33450Y-110833D01*
X33333Y-110300D01*
Y-109833D01*
X33450Y-109433D01*
X33683Y-108967D01*
X34033Y-108567D01*
X34383Y-108300D01*
X34850Y-108100D01*
X35258D01*
X35725Y-108233D01*
X36075Y-108500D01*
G01X38950Y-108100D02*
X40350D01*
G01X39650D02*
Y-112100D01*
G01X38950D02*
X40350D01*
G01X43108D02*
Y-108100D01*
X45792Y-112100D01*
Y-108100D01*
G01X50417Y-112100D02*
X48083D01*
Y-108100D01*
X50417D01*
G01X49483Y-110033D02*
X48083D01*
G01X55217Y-112100D02*
X52883D01*
Y-108100D01*
X55217D01*
G01X54283Y-110033D02*
X52883D01*
G01X57683Y-112100D02*
Y-108100D01*
X59142D01*
X59608Y-108300D01*
X59900Y-108567D01*
X60017Y-109100D01*
X59900Y-109633D01*
X59550Y-109967D01*
X59142Y-110167D01*
X57683D01*
G01X59142D02*
X60017Y-112100D01*
G01X62950Y-108100D02*
X64350D01*
G01X63650D02*
Y-112100D01*
G01X62950D02*
X64350D01*
G01X67108D02*
Y-108100D01*
X69792Y-112100D01*
Y-108100D01*
G01X73600Y-110100D02*
X74767D01*
Y-111300D01*
X74417Y-111700D01*
X74008Y-111967D01*
X73425Y-112100D01*
X72842Y-111967D01*
X72433Y-111700D01*
X72083Y-111300D01*
X71850Y-110833D01*
X71733Y-110300D01*
Y-109833D01*
X71850Y-109433D01*
X72083Y-108967D01*
X72433Y-108567D01*
X72783Y-108300D01*
X73250Y-108100D01*
X73658D01*
X74125Y-108233D01*
X74475Y-108500D01*
G01X81567Y-112100D02*
Y-108100D01*
X82733D01*
X83200Y-108300D01*
X83550Y-108567D01*
X83842Y-108967D01*
X84075Y-109433D01*
X84133Y-110100D01*
X84075Y-110767D01*
X83842Y-111233D01*
X83550Y-111633D01*
X83200Y-111900D01*
X82733Y-112100D01*
X81567D01*
G01X88817D02*
X86483D01*
Y-108100D01*
X88817D01*
G01X87883Y-110033D02*
X86483D01*
G01X91225Y-111567D02*
X91692Y-111900D01*
X92217Y-112100D01*
X92683D01*
X93150Y-111900D01*
X93500Y-111567D01*
X93675Y-111100D01*
X93558Y-110633D01*
X93267Y-110233D01*
X92742Y-109967D01*
X92042Y-109833D01*
X91633Y-109567D01*
X91458Y-109100D01*
X91575Y-108633D01*
X91867Y-108300D01*
X92275Y-108100D01*
X92683D01*
X93092Y-108233D01*
X93442Y-108567D01*
G01X96550Y-108100D02*
X97950D01*
G01X97250D02*
Y-112100D01*
G01X96550D02*
X97950D01*
G01X102400Y-110100D02*
X103567D01*
Y-111300D01*
X103217Y-111700D01*
X102808Y-111967D01*
X102225Y-112100D01*
X101642Y-111967D01*
X101233Y-111700D01*
X100883Y-111300D01*
X100650Y-110833D01*
X100533Y-110300D01*
Y-109833D01*
X100650Y-109433D01*
X100883Y-108967D01*
X101233Y-108567D01*
X101583Y-108300D01*
X102050Y-108100D01*
X102458D01*
X102925Y-108233D01*
X103275Y-108500D01*
G01X105508Y-112100D02*
Y-108100D01*
X108192Y-112100D01*
Y-108100D01*
G01X-60008Y-86100D02*
X-58550Y-82100D01*
X-57092Y-86100D01*
G01X-57617Y-84700D02*
X-59483D01*
G01X-55033Y-82100D02*
Y-84967D01*
X-54800Y-85567D01*
X-54333Y-85967D01*
X-53750Y-86100D01*
X-53167Y-85967D01*
X-52700Y-85567D01*
X-52467Y-84967D01*
Y-82100D01*
G01X-50175Y-85567D02*
X-49708Y-85900D01*
X-49183Y-86100D01*
X-48717D01*
X-48250Y-85900D01*
X-47900Y-85567D01*
X-47725Y-85100D01*
X-47842Y-84633D01*
X-48133Y-84233D01*
X-48658Y-83967D01*
X-49358Y-83833D01*
X-49767Y-83567D01*
X-49942Y-83100D01*
X-49825Y-82633D01*
X-49533Y-82300D01*
X-49125Y-82100D01*
X-48717D01*
X-48308Y-82233D01*
X-47958Y-82567D01*
G01X-44150Y-82100D02*
Y-86100D01*
G01X-45492Y-82100D02*
X-42808D01*
G01X-40050D02*
X-38650D01*
G01X-39350D02*
Y-86100D01*
G01X-40050D02*
X-38650D01*
G01X-35892D02*
Y-82100D01*
X-33208Y-86100D01*
Y-82100D01*
G01X-29750Y-86233D02*
X-29867Y-86167D01*
Y-86033D01*
X-29750Y-85967D01*
X-29633Y-86033D01*
Y-86167D01*
X-29750Y-86233D01*
G01X-20150Y-82100D02*
Y-86100D01*
G01X-21492Y-82100D02*
X-18808D01*
G01X-14183Y-86100D02*
X-16517D01*
Y-82100D01*
X-14183D01*
G01X-15117Y-84033D02*
X-16517D01*
G01X-11775Y-86100D02*
X-9325Y-82100D01*
G01X-11775D02*
X-9325Y-86100D01*
G01X-7208D02*
X-5750Y-82100D01*
X-4292Y-86100D01*
G01X-4817Y-84700D02*
X-6683D01*
G01X-2175Y-85567D02*
X-1708Y-85900D01*
X-1183Y-86100D01*
X-717D01*
X-250Y-85900D01*
X100Y-85567D01*
X275Y-85100D01*
X158Y-84633D01*
X-133Y-84233D01*
X-658Y-83967D01*
X-1358Y-83833D01*
X-1767Y-83567D01*
X-1942Y-83100D01*
X-1825Y-82633D01*
X-1533Y-82300D01*
X-1125Y-82100D01*
X-717D01*
X-308Y-82233D01*
X42Y-82567D01*
G01X8533Y-86100D02*
X8650Y-85233D01*
X8825Y-84500D01*
X9058Y-83833D01*
X9350Y-83100D01*
X9817Y-82100D01*
X7483D01*
G01X13450Y-86100D02*
X13858Y-86033D01*
X14325Y-85833D01*
X14617Y-85500D01*
X14733Y-85033D01*
X14617Y-84567D01*
X14267Y-84167D01*
X13742Y-83967D01*
X13158D01*
X12808Y-83833D01*
X12517Y-83500D01*
X12400Y-83033D01*
X12575Y-82567D01*
X12983Y-82233D01*
X13450Y-82100D01*
X13917Y-82233D01*
X14325Y-82567D01*
X14500Y-83033D01*
X14383Y-83500D01*
X14092Y-83833D01*
X13742Y-83967D01*
X13158D01*
X12633Y-84167D01*
X12283Y-84567D01*
X12167Y-85033D01*
X12283Y-85500D01*
X12575Y-85833D01*
X13042Y-86033D01*
X13450Y-86100D01*
G01X18133D02*
X18250Y-85233D01*
X18425Y-84500D01*
X18658Y-83833D01*
X18950Y-83100D01*
X19417Y-82100D01*
X17083D01*
G01X21767Y-85300D02*
X22117Y-85767D01*
X22583Y-86033D01*
X23108Y-86100D01*
X23575Y-86033D01*
X24042Y-85700D01*
X24333Y-85300D01*
X24392Y-84900D01*
X24275Y-84433D01*
X23867Y-84100D01*
X23458Y-83967D01*
X22933D01*
G01X23458D02*
X23808Y-83767D01*
X24100Y-83433D01*
X24217Y-83033D01*
X24100Y-82633D01*
X23808Y-82300D01*
X23283Y-82100D01*
X22758Y-82167D01*
X22233Y-82433D01*
G01X26567Y-85500D02*
X26917Y-85833D01*
X27325Y-86033D01*
X27850Y-86100D01*
X28375Y-85967D01*
X28783Y-85700D01*
X29075Y-85233D01*
X29133Y-84700D01*
X29017Y-84167D01*
X28725Y-83833D01*
X28317Y-83567D01*
X27908Y-83500D01*
X27500Y-83567D01*
X26975Y-83833D01*
X27150Y-82100D01*
X28725D01*
G01X36167D02*
Y-84967D01*
X36400Y-85567D01*
X36867Y-85967D01*
X37450Y-86100D01*
X38033Y-85967D01*
X38500Y-85567D01*
X38733Y-84967D01*
Y-82100D01*
G01X41025Y-85567D02*
X41492Y-85900D01*
X42017Y-86100D01*
X42483D01*
X42950Y-85900D01*
X43300Y-85567D01*
X43475Y-85100D01*
X43358Y-84633D01*
X43067Y-84233D01*
X42542Y-83967D01*
X41842Y-83833D01*
X41433Y-83567D01*
X41258Y-83100D01*
X41375Y-82633D01*
X41667Y-82300D01*
X42075Y-82100D01*
X42483D01*
X42892Y-82233D01*
X43242Y-82567D01*
G01X45592Y-86100D02*
X47050Y-82100D01*
X48508Y-86100D01*
G01X47983Y-84700D02*
X46117D01*
G01X-52717Y-104100D02*
Y-100100D01*
X-51317D01*
X-50850Y-100300D01*
X-50500Y-100767D01*
X-50383Y-101300D01*
X-50500Y-101833D01*
X-50792Y-102233D01*
X-51317Y-102433D01*
X-52717D01*
G01X-47917Y-104100D02*
Y-100100D01*
X-46458D01*
X-45992Y-100300D01*
X-45700Y-100567D01*
X-45583Y-101100D01*
X-45700Y-101633D01*
X-46050Y-101967D01*
X-46458Y-102167D01*
X-47917D01*
G01X-46458D02*
X-45583Y-104100D01*
G01X-41950D02*
X-42417Y-104033D01*
X-42825Y-103767D01*
X-43175Y-103367D01*
X-43408Y-102900D01*
X-43525Y-102367D01*
Y-101833D01*
X-43408Y-101300D01*
X-43175Y-100833D01*
X-42825Y-100433D01*
X-42417Y-100167D01*
X-41950Y-100100D01*
X-41483Y-100167D01*
X-41075Y-100433D01*
X-40725Y-100833D01*
X-40492Y-101300D01*
X-40375Y-101833D01*
Y-102367D01*
X-40492Y-102900D01*
X-40725Y-103367D01*
X-41075Y-103767D01*
X-41483Y-104033D01*
X-41950Y-104100D01*
G01X-38317D02*
Y-100100D01*
X-36917D01*
X-36450Y-100300D01*
X-36100Y-100767D01*
X-35983Y-101300D01*
X-36100Y-101833D01*
X-36392Y-102233D01*
X-36917Y-102433D01*
X-38317D01*
G01X-33517Y-104100D02*
Y-100100D01*
X-32058D01*
X-31592Y-100300D01*
X-31300Y-100567D01*
X-31183Y-101100D01*
X-31300Y-101633D01*
X-31650Y-101967D01*
X-32058Y-102167D01*
X-33517D01*
G01X-32058D02*
X-31183Y-104100D01*
G01X-28250Y-100100D02*
X-26850D01*
G01X-27550D02*
Y-104100D01*
G01X-28250D02*
X-26850D01*
G01X-21583D02*
X-23917D01*
Y-100100D01*
X-21583D01*
G01X-22517Y-102033D02*
X-23917D01*
G01X-17950Y-100100D02*
Y-104100D01*
G01X-19292Y-100100D02*
X-16608D01*
G01X-14608Y-104100D02*
X-13150Y-100100D01*
X-11692Y-104100D01*
G01X-12217Y-102700D02*
X-14083D01*
G01X-9517Y-104100D02*
Y-100100D01*
X-8058D01*
X-7592Y-100300D01*
X-7300Y-100567D01*
X-7183Y-101100D01*
X-7300Y-101633D01*
X-7650Y-101967D01*
X-8058Y-102167D01*
X-9517D01*
G01X-8058D02*
X-7183Y-104100D01*
G01X-3550D02*
Y-102300D01*
X-4717Y-100100D01*
G01X-2383D02*
X-3550Y-102300D01*
G01X6050Y-100100D02*
Y-104100D01*
G01X4708Y-100100D02*
X7392D01*
G01X10850Y-104100D02*
X10383Y-104033D01*
X9975Y-103767D01*
X9625Y-103367D01*
X9392Y-102900D01*
X9275Y-102367D01*
Y-101833D01*
X9392Y-101300D01*
X9625Y-100833D01*
X9975Y-100433D01*
X10383Y-100167D01*
X10850Y-100100D01*
X11317Y-100167D01*
X11725Y-100433D01*
X12075Y-100833D01*
X12308Y-101300D01*
X12425Y-101833D01*
Y-102367D01*
X12308Y-102900D01*
X12075Y-103367D01*
X11725Y-103767D01*
X11317Y-104033D01*
X10850Y-104100D01*
G01X19108D02*
Y-100100D01*
X21792Y-104100D01*
Y-100100D01*
G01X24025Y-104100D02*
X26475Y-100100D01*
G01X24025D02*
X26475Y-104100D01*
G01X28883D02*
Y-100100D01*
X30283D01*
X30750Y-100300D01*
X31100Y-100767D01*
X31217Y-101300D01*
X31100Y-101833D01*
X30808Y-102233D01*
X30283Y-102433D01*
X28883D01*
G01X38192Y-104100D02*
X39650Y-100100D01*
X41108Y-104100D01*
G01X40583Y-102700D02*
X38717D01*
G01X43108Y-104100D02*
Y-100100D01*
X45792Y-104100D01*
Y-100100D01*
G01X47967Y-104100D02*
Y-100100D01*
X49133D01*
X49600Y-100300D01*
X49950Y-100567D01*
X50242Y-100967D01*
X50475Y-101433D01*
X50533Y-102100D01*
X50475Y-102767D01*
X50242Y-103233D01*
X49950Y-103633D01*
X49600Y-103900D01*
X49133Y-104100D01*
X47967D01*
G01X57625Y-103567D02*
X58092Y-103900D01*
X58617Y-104100D01*
X59083D01*
X59550Y-103900D01*
X59900Y-103567D01*
X60075Y-103100D01*
X59958Y-102633D01*
X59667Y-102233D01*
X59142Y-101967D01*
X58442Y-101833D01*
X58033Y-101567D01*
X57858Y-101100D01*
X57975Y-100633D01*
X58267Y-100300D01*
X58675Y-100100D01*
X59083D01*
X59492Y-100233D01*
X59842Y-100567D01*
G01X62425Y-104100D02*
Y-100100D01*
G01X64875D02*
Y-104100D01*
G01Y-102100D02*
X62425D01*
G01X66992Y-104100D02*
X68450Y-100100D01*
X69908Y-104100D01*
G01X69383Y-102700D02*
X67517D01*
G01X72083Y-100100D02*
Y-104100D01*
X74417D01*
G01X76883Y-100100D02*
Y-104100D01*
X79217D01*
G01X-52550Y-92100D02*
Y-96100D01*
G01X-53892Y-92100D02*
X-51208D01*
G01X-48975Y-96100D02*
Y-92100D01*
G01X-46525D02*
Y-96100D01*
G01Y-94100D02*
X-48975D01*
G01X-43650Y-92100D02*
X-42250D01*
G01X-42950D02*
Y-96100D01*
G01X-43650D02*
X-42250D01*
G01X-39375Y-95567D02*
X-38908Y-95900D01*
X-38383Y-96100D01*
X-37917D01*
X-37450Y-95900D01*
X-37100Y-95567D01*
X-36925Y-95100D01*
X-37042Y-94633D01*
X-37333Y-94233D01*
X-37858Y-93967D01*
X-38558Y-93833D01*
X-38967Y-93567D01*
X-39142Y-93100D01*
X-39025Y-92633D01*
X-38733Y-92300D01*
X-38325Y-92100D01*
X-37917D01*
X-37508Y-92233D01*
X-37158Y-92567D01*
G01X-29833Y-96100D02*
Y-92100D01*
X-28667D01*
X-28200Y-92300D01*
X-27850Y-92567D01*
X-27558Y-92967D01*
X-27325Y-93433D01*
X-27267Y-94100D01*
X-27325Y-94767D01*
X-27558Y-95233D01*
X-27850Y-95633D01*
X-28200Y-95900D01*
X-28667Y-96100D01*
X-29833D01*
G01X-23750D02*
X-24217Y-96033D01*
X-24625Y-95767D01*
X-24975Y-95367D01*
X-25208Y-94900D01*
X-25325Y-94367D01*
Y-93833D01*
X-25208Y-93300D01*
X-24975Y-92833D01*
X-24625Y-92433D01*
X-24217Y-92167D01*
X-23750Y-92100D01*
X-23283Y-92167D01*
X-22875Y-92433D01*
X-22525Y-92833D01*
X-22292Y-93300D01*
X-22175Y-93833D01*
Y-94367D01*
X-22292Y-94900D01*
X-22525Y-95367D01*
X-22875Y-95767D01*
X-23283Y-96033D01*
X-23750Y-96100D01*
G01X-17667Y-92433D02*
X-18017Y-92233D01*
X-18425Y-92100D01*
X-18892D01*
X-19417Y-92300D01*
X-19825Y-92633D01*
X-20117Y-93033D01*
X-20350Y-93700D01*
X-20408Y-94300D01*
X-20292Y-94900D01*
X-20117Y-95300D01*
X-19767Y-95700D01*
X-19358Y-95967D01*
X-18950Y-96100D01*
X-18542D01*
X-18133Y-95967D01*
X-17783Y-95767D01*
X-17492Y-95500D01*
G01X-15433Y-92100D02*
Y-94967D01*
X-15200Y-95567D01*
X-14733Y-95967D01*
X-14150Y-96100D01*
X-13567Y-95967D01*
X-13100Y-95567D01*
X-12867Y-94967D01*
Y-92100D01*
G01X-10867Y-96100D02*
Y-92100D01*
X-9350Y-95433D01*
X-7833Y-92100D01*
Y-96100D01*
G01X-3383D02*
X-5717D01*
Y-92100D01*
X-3383D01*
G01X-4317Y-94033D02*
X-5717D01*
G01X-1092Y-96100D02*
Y-92100D01*
X1592Y-96100D01*
Y-92100D01*
G01X5050D02*
Y-96100D01*
G01X3708Y-92100D02*
X6392D01*
G01X15933Y-92433D02*
X15583Y-92233D01*
X15175Y-92100D01*
X14708D01*
X14183Y-92300D01*
X13775Y-92633D01*
X13483Y-93033D01*
X13250Y-93700D01*
X13192Y-94300D01*
X13308Y-94900D01*
X13483Y-95300D01*
X13833Y-95700D01*
X14242Y-95967D01*
X14650Y-96100D01*
X15058D01*
X15467Y-95967D01*
X15817Y-95767D01*
X16108Y-95500D01*
G01X19450Y-96100D02*
X18983Y-96033D01*
X18575Y-95767D01*
X18225Y-95367D01*
X17992Y-94900D01*
X17875Y-94367D01*
Y-93833D01*
X17992Y-93300D01*
X18225Y-92833D01*
X18575Y-92433D01*
X18983Y-92167D01*
X19450Y-92100D01*
X19917Y-92167D01*
X20325Y-92433D01*
X20675Y-92833D01*
X20908Y-93300D01*
X21025Y-93833D01*
Y-94367D01*
X20908Y-94900D01*
X20675Y-95367D01*
X20325Y-95767D01*
X19917Y-96033D01*
X19450Y-96100D01*
G01X22908D02*
Y-92100D01*
X25592Y-96100D01*
Y-92100D01*
G01X29050D02*
Y-96100D01*
G01X27708Y-92100D02*
X30392D01*
G01X32392Y-96100D02*
X33850Y-92100D01*
X35308Y-96100D01*
G01X34783Y-94700D02*
X32917D01*
G01X37950Y-92100D02*
X39350D01*
G01X38650D02*
Y-96100D01*
G01X37950D02*
X39350D01*
G01X42108D02*
Y-92100D01*
X44792Y-96100D01*
Y-92100D01*
G01X47025Y-95567D02*
X47492Y-95900D01*
X48017Y-96100D01*
X48483D01*
X48950Y-95900D01*
X49300Y-95567D01*
X49475Y-95100D01*
X49358Y-94633D01*
X49067Y-94233D01*
X48542Y-93967D01*
X47842Y-93833D01*
X47433Y-93567D01*
X47258Y-93100D01*
X47375Y-92633D01*
X47667Y-92300D01*
X48075Y-92100D01*
X48483D01*
X48892Y-92233D01*
X49242Y-92567D01*
G01X57150Y-92100D02*
X58550D01*
G01X57850D02*
Y-96100D01*
G01X57150D02*
X58550D01*
G01X61308D02*
Y-92100D01*
X63992Y-96100D01*
Y-92100D01*
G01X66342Y-96100D02*
Y-92100D01*
X68558D01*
G01X67742Y-94033D02*
X66342D01*
G01X72250Y-96100D02*
X71783Y-96033D01*
X71375Y-95767D01*
X71025Y-95367D01*
X70792Y-94900D01*
X70675Y-94367D01*
Y-93833D01*
X70792Y-93300D01*
X71025Y-92833D01*
X71375Y-92433D01*
X71783Y-92167D01*
X72250Y-92100D01*
X72717Y-92167D01*
X73125Y-92433D01*
X73475Y-92833D01*
X73708Y-93300D01*
X73825Y-93833D01*
Y-94367D01*
X73708Y-94900D01*
X73475Y-95367D01*
X73125Y-95767D01*
X72717Y-96033D01*
X72250Y-96100D01*
G01X75883D02*
Y-92100D01*
X77342D01*
X77808Y-92300D01*
X78100Y-92567D01*
X78217Y-93100D01*
X78100Y-93633D01*
X77750Y-93967D01*
X77342Y-94167D01*
X75883D01*
G01X77342D02*
X78217Y-96100D01*
G01X80333D02*
Y-92100D01*
X81850Y-95433D01*
X83367Y-92100D01*
Y-96100D01*
G01X85192D02*
X86650Y-92100D01*
X88108Y-96100D01*
G01X87583Y-94700D02*
X85717D01*
G01X91450Y-92100D02*
Y-96100D01*
G01X90108Y-92100D02*
X92792D01*
G01X95550D02*
X96950D01*
G01X96250D02*
Y-96100D01*
G01X95550D02*
X96950D01*
G01X101050D02*
X100583Y-96033D01*
X100175Y-95767D01*
X99825Y-95367D01*
X99592Y-94900D01*
X99475Y-94367D01*
Y-93833D01*
X99592Y-93300D01*
X99825Y-92833D01*
X100175Y-92433D01*
X100583Y-92167D01*
X101050Y-92100D01*
X101517Y-92167D01*
X101925Y-92433D01*
X102275Y-92833D01*
X102508Y-93300D01*
X102625Y-93833D01*
Y-94367D01*
X102508Y-94900D01*
X102275Y-95367D01*
X101925Y-95767D01*
X101517Y-96033D01*
X101050Y-96100D01*
G01X104508D02*
Y-92100D01*
X107192Y-96100D01*
Y-92100D01*
G01X-59658Y-77433D02*
X-59250Y-76967D01*
X-58900Y-76700D01*
X-58433Y-76567D01*
X-58025Y-76700D01*
X-57733Y-76967D01*
X-57500Y-77367D01*
X-57442Y-77833D01*
X-57500Y-78233D01*
X-57733Y-78633D01*
X-58083Y-78967D01*
X-58492Y-79100D01*
X-58958Y-78967D01*
X-59367Y-78567D01*
X-59600Y-77967D01*
X-59658Y-77300D01*
X-59542Y-76433D01*
X-59367Y-75967D01*
X-59075Y-75500D01*
X-58667Y-75167D01*
X-58258Y-75100D01*
X-57850Y-75233D01*
X-57558Y-75567D01*
G01X-55033Y-78500D02*
X-54683Y-78833D01*
X-54275Y-79033D01*
X-53750Y-79100D01*
X-53225Y-78967D01*
X-52817Y-78700D01*
X-52525Y-78233D01*
X-52467Y-77700D01*
X-52583Y-77167D01*
X-52875Y-76833D01*
X-53283Y-76567D01*
X-53692Y-76500D01*
X-54100Y-76567D01*
X-54625Y-76833D01*
X-54450Y-75100D01*
X-52875D01*
G01X-48950D02*
X-49417Y-75233D01*
X-49767Y-75567D01*
X-50000Y-75967D01*
X-50175Y-76500D01*
X-50233Y-77100D01*
X-50175Y-77700D01*
X-50000Y-78233D01*
X-49767Y-78633D01*
X-49417Y-78967D01*
X-48950Y-79100D01*
X-48483Y-78967D01*
X-48133Y-78633D01*
X-47900Y-78233D01*
X-47725Y-77700D01*
X-47667Y-77100D01*
X-47725Y-76500D01*
X-47900Y-75967D01*
X-48133Y-75567D01*
X-48483Y-75233D01*
X-48950Y-75100D01*
G01X-44150Y-79100D02*
Y-75100D01*
X-44850Y-75900D01*
G01Y-79100D02*
X-43450D01*
G01X-36300Y-75100D02*
X-35483Y-79100D01*
X-34550Y-75100D01*
X-33617Y-79100D01*
X-32800Y-75100D01*
G01X-30450D02*
X-29050D01*
G01X-29750D02*
Y-79100D01*
G01X-30450D02*
X-29050D01*
G01X-26117Y-75100D02*
Y-79100D01*
X-23783D01*
G01X-21317Y-75100D02*
Y-79100D01*
X-18983D01*
G01X-16050Y-75100D02*
X-14650D01*
G01X-15350D02*
Y-79100D01*
G01X-16050D02*
X-14650D01*
G01X-12008D02*
X-10550Y-75100D01*
X-9092Y-79100D01*
G01X-9617Y-77700D02*
X-11483D01*
G01X-7267Y-79100D02*
Y-75100D01*
X-5750Y-78433D01*
X-4233Y-75100D01*
Y-79100D01*
G01X5133Y-75433D02*
X4783Y-75233D01*
X4375Y-75100D01*
X3908D01*
X3383Y-75300D01*
X2975Y-75633D01*
X2683Y-76033D01*
X2450Y-76700D01*
X2392Y-77300D01*
X2508Y-77900D01*
X2683Y-78300D01*
X3033Y-78700D01*
X3442Y-78967D01*
X3850Y-79100D01*
X4258D01*
X4667Y-78967D01*
X5017Y-78767D01*
X5308Y-78500D01*
G01X7192Y-79100D02*
X8650Y-75100D01*
X10108Y-79100D01*
G01X9583Y-77700D02*
X7717D01*
G01X12108Y-79100D02*
Y-75100D01*
X14792Y-79100D01*
Y-75100D01*
G01X16908Y-79100D02*
Y-75100D01*
X19592Y-79100D01*
Y-75100D01*
G01X23050Y-79100D02*
X22583Y-79033D01*
X22175Y-78767D01*
X21825Y-78367D01*
X21592Y-77900D01*
X21475Y-77367D01*
Y-76833D01*
X21592Y-76300D01*
X21825Y-75833D01*
X22175Y-75433D01*
X22583Y-75167D01*
X23050Y-75100D01*
X23517Y-75167D01*
X23925Y-75433D01*
X24275Y-75833D01*
X24508Y-76300D01*
X24625Y-76833D01*
Y-77367D01*
X24508Y-77900D01*
X24275Y-78367D01*
X23925Y-78767D01*
X23517Y-79033D01*
X23050Y-79100D01*
G01X26508D02*
Y-75100D01*
X29192Y-79100D01*
Y-75100D01*
G01X36167Y-79100D02*
Y-75100D01*
X37333D01*
X37800Y-75300D01*
X38150Y-75567D01*
X38442Y-75967D01*
X38675Y-76433D01*
X38733Y-77100D01*
X38675Y-77767D01*
X38442Y-78233D01*
X38150Y-78633D01*
X37800Y-78900D01*
X37333Y-79100D01*
X36167D01*
G01X41083D02*
Y-75100D01*
X42542D01*
X43008Y-75300D01*
X43300Y-75567D01*
X43417Y-76100D01*
X43300Y-76633D01*
X42950Y-76967D01*
X42542Y-77167D01*
X41083D01*
G01X42542D02*
X43417Y-79100D01*
G01X46350Y-75100D02*
X47750D01*
G01X47050D02*
Y-79100D01*
G01X46350D02*
X47750D01*
G01X50392Y-75100D02*
X51850Y-79100D01*
X53308Y-75100D01*
G01X57817Y-79100D02*
X55483D01*
Y-75100D01*
X57817D01*
G01X56883Y-77033D02*
X55483D01*
G01X64500Y-75100D02*
X65317Y-79100D01*
X66250Y-75100D01*
X67183Y-79100D01*
X68000Y-75100D01*
G01X72217Y-79100D02*
X69883D01*
Y-75100D01*
X72217D01*
G01X71283Y-77033D02*
X69883D01*
G01X74625Y-78567D02*
X75092Y-78900D01*
X75617Y-79100D01*
X76083D01*
X76550Y-78900D01*
X76900Y-78567D01*
X77075Y-78100D01*
X76958Y-77633D01*
X76667Y-77233D01*
X76142Y-76967D01*
X75442Y-76833D01*
X75033Y-76567D01*
X74858Y-76100D01*
X74975Y-75633D01*
X75267Y-75300D01*
X75675Y-75100D01*
X76083D01*
X76492Y-75233D01*
X76842Y-75567D01*
G01X80650Y-75100D02*
Y-79100D01*
G01X79308Y-75100D02*
X81992D01*
G01X-60647Y-71100D02*
Y-63600D01*
X-56353Y-71100D01*
Y-63600D01*
G01X-52960Y-71100D02*
X-49040Y-63600D01*
G01X-52960D02*
X-49040Y-71100D01*
G01X-45367D02*
Y-63600D01*
X-43127D01*
X-42380Y-63975D01*
X-41820Y-64850D01*
X-41633Y-65850D01*
X-41820Y-66850D01*
X-42287Y-67600D01*
X-43127Y-67975D01*
X-45367D01*
G01X-30460Y-70100D02*
X-29713Y-70725D01*
X-28873Y-71100D01*
X-28127D01*
X-27380Y-70725D01*
X-26820Y-70100D01*
X-26540Y-69225D01*
X-26727Y-68350D01*
X-27193Y-67600D01*
X-28033Y-67100D01*
X-29153Y-66850D01*
X-29807Y-66350D01*
X-30087Y-65475D01*
X-29900Y-64600D01*
X-29433Y-63975D01*
X-28780Y-63600D01*
X-28127D01*
X-27473Y-63850D01*
X-26913Y-64475D01*
G01X-19133Y-71100D02*
X-22867D01*
Y-63600D01*
X-19133D01*
G01X-20627Y-67225D02*
X-22867D01*
G01X-15927Y-71100D02*
Y-63600D01*
X-13500Y-69850D01*
X-11073Y-63600D01*
Y-71100D01*
G01X-7120Y-63600D02*
X-4880D01*
G01X-6000D02*
Y-71100D01*
G01X-7120D02*
X-4880D01*
G01X3553Y-64225D02*
X2993Y-63850D01*
X2340Y-63600D01*
X1593D01*
X753Y-63975D01*
X100Y-64600D01*
X-367Y-65350D01*
X-740Y-66600D01*
X-833Y-67725D01*
X-647Y-68850D01*
X-367Y-69600D01*
X193Y-70350D01*
X847Y-70850D01*
X1500Y-71100D01*
X2153D01*
X2807Y-70850D01*
X3367Y-70475D01*
X3833Y-69975D01*
G01X9000Y-71100D02*
X8253Y-70975D01*
X7600Y-70475D01*
X7040Y-69725D01*
X6667Y-68850D01*
X6480Y-67850D01*
Y-66850D01*
X6667Y-65850D01*
X7040Y-64975D01*
X7600Y-64225D01*
X8253Y-63725D01*
X9000Y-63600D01*
X9747Y-63725D01*
X10400Y-64225D01*
X10960Y-64975D01*
X11333Y-65850D01*
X11520Y-66850D01*
Y-67850D01*
X11333Y-68850D01*
X10960Y-69725D01*
X10400Y-70475D01*
X9747Y-70975D01*
X9000Y-71100D01*
G01X14353D02*
Y-63600D01*
X18647Y-71100D01*
Y-63600D01*
G01X21947Y-71100D02*
Y-63600D01*
X23813D01*
X24560Y-63975D01*
X25120Y-64475D01*
X25587Y-65225D01*
X25960Y-66100D01*
X26053Y-67350D01*
X25960Y-68600D01*
X25587Y-69475D01*
X25120Y-70225D01*
X24560Y-70725D01*
X23813Y-71100D01*
X21947D01*
G01X29447Y-63600D02*
Y-68975D01*
X29820Y-70100D01*
X30567Y-70850D01*
X31500Y-71100D01*
X32433Y-70850D01*
X33180Y-70100D01*
X33553Y-68975D01*
Y-63600D01*
G01X41053Y-64225D02*
X40493Y-63850D01*
X39840Y-63600D01*
X39093D01*
X38253Y-63975D01*
X37600Y-64600D01*
X37133Y-65350D01*
X36760Y-66600D01*
X36667Y-67725D01*
X36853Y-68850D01*
X37133Y-69600D01*
X37693Y-70350D01*
X38347Y-70850D01*
X39000Y-71100D01*
X39653D01*
X40307Y-70850D01*
X40867Y-70475D01*
X41333Y-69975D01*
G01X46500Y-63600D02*
Y-71100D01*
G01X44353Y-63600D02*
X48647D01*
G01X54000Y-71100D02*
X53253Y-70975D01*
X52600Y-70475D01*
X52040Y-69725D01*
X51667Y-68850D01*
X51480Y-67850D01*
Y-66850D01*
X51667Y-65850D01*
X52040Y-64975D01*
X52600Y-64225D01*
X53253Y-63725D01*
X54000Y-63600D01*
X54747Y-63725D01*
X55400Y-64225D01*
X55960Y-64975D01*
X56333Y-65850D01*
X56520Y-66850D01*
Y-67850D01*
X56333Y-68850D01*
X55960Y-69725D01*
X55400Y-70475D01*
X54747Y-70975D01*
X54000Y-71100D01*
G01X59633D02*
Y-63600D01*
X61967D01*
X62713Y-63975D01*
X63180Y-64475D01*
X63367Y-65475D01*
X63180Y-66475D01*
X62620Y-67100D01*
X61967Y-67475D01*
X59633D01*
G01X61967D02*
X63367Y-71100D01*
G01X67040Y-70100D02*
X67787Y-70725D01*
X68627Y-71100D01*
X69373D01*
X70120Y-70725D01*
X70680Y-70100D01*
X70960Y-69225D01*
X70773Y-68350D01*
X70307Y-67600D01*
X69467Y-67100D01*
X68347Y-66850D01*
X67693Y-66350D01*
X67413Y-65475D01*
X67600Y-64600D01*
X68067Y-63975D01*
X68720Y-63600D01*
X69373D01*
X70027Y-63850D01*
X70587Y-64475D01*
G01X-51892Y-136100D02*
Y-132100D01*
X-49208Y-136100D01*
Y-132100D01*
G01X-46975Y-136100D02*
X-44525Y-132100D01*
G01X-46975D02*
X-44525Y-136100D01*
G01X-42117D02*
Y-132100D01*
X-40717D01*
X-40250Y-132300D01*
X-39900Y-132767D01*
X-39783Y-133300D01*
X-39900Y-133833D01*
X-40192Y-134233D01*
X-40717Y-134433D01*
X-42117D01*
G01X-36150Y-136233D02*
X-36267Y-136167D01*
Y-136033D01*
X-36150Y-135967D01*
X-36033Y-136033D01*
Y-136167D01*
X-36150Y-136233D01*
G01X-12775Y-155133D02*
X-12308Y-155425D01*
X-11783Y-155600D01*
X-11317D01*
X-10850Y-155425D01*
X-10500Y-155133D01*
X-10325Y-154725D01*
X-10442Y-154317D01*
X-10733Y-153967D01*
X-11258Y-153733D01*
X-11958Y-153617D01*
X-12367Y-153383D01*
X-12542Y-152975D01*
X-12425Y-152567D01*
X-12133Y-152275D01*
X-11725Y-152100D01*
X-11317D01*
X-10908Y-152217D01*
X-10558Y-152508D01*
G01X-6083Y-155600D02*
X-8417D01*
Y-152100D01*
X-6083D01*
G01X-7017Y-153792D02*
X-8417D01*
G01X-1667Y-152392D02*
X-2017Y-152217D01*
X-2425Y-152100D01*
X-2892D01*
X-3417Y-152275D01*
X-3825Y-152567D01*
X-4117Y-152917D01*
X-4350Y-153500D01*
X-4408Y-154025D01*
X-4292Y-154550D01*
X-4117Y-154900D01*
X-3767Y-155250D01*
X-3358Y-155483D01*
X-2950Y-155600D01*
X-2542D01*
X-2133Y-155483D01*
X-1783Y-155308D01*
X-1492Y-155075D01*
G01X1350Y-155600D02*
X883Y-155542D01*
X475Y-155308D01*
X125Y-154958D01*
X-108Y-154550D01*
X-225Y-154083D01*
Y-153617D01*
X-108Y-153150D01*
X125Y-152742D01*
X475Y-152392D01*
X883Y-152158D01*
X1350Y-152100D01*
X1817Y-152158D01*
X2225Y-152392D01*
X2575Y-152742D01*
X2808Y-153150D01*
X2925Y-153617D01*
Y-154083D01*
X2808Y-154550D01*
X2575Y-154958D01*
X2225Y-155308D01*
X1817Y-155542D01*
X1350Y-155600D01*
G01X4308D02*
Y-152100D01*
X6992Y-155600D01*
Y-152100D01*
G01X8667Y-155600D02*
Y-152100D01*
X9833D01*
X10300Y-152275D01*
X10650Y-152508D01*
X10942Y-152858D01*
X11175Y-153267D01*
X11233Y-153850D01*
X11175Y-154433D01*
X10942Y-154842D01*
X10650Y-155192D01*
X10300Y-155425D01*
X9833Y-155600D01*
X8667D01*
G01X12792D02*
X14250Y-152100D01*
X15708Y-155600D01*
G01X15183Y-154375D02*
X13317D01*
G01X17383Y-155600D02*
Y-152100D01*
X18842D01*
X19308Y-152275D01*
X19600Y-152508D01*
X19717Y-152975D01*
X19600Y-153442D01*
X19250Y-153733D01*
X18842Y-153908D01*
X17383D01*
G01X18842D02*
X19717Y-155600D01*
G01X22850D02*
Y-154025D01*
X21683Y-152100D01*
G01X24017D02*
X22850Y-154025D01*
G01X30225Y-155133D02*
X30692Y-155425D01*
X31217Y-155600D01*
X31683D01*
X32150Y-155425D01*
X32500Y-155133D01*
X32675Y-154725D01*
X32558Y-154317D01*
X32267Y-153967D01*
X31742Y-153733D01*
X31042Y-153617D01*
X30633Y-153383D01*
X30458Y-152975D01*
X30575Y-152567D01*
X30867Y-152275D01*
X31275Y-152100D01*
X31683D01*
X32092Y-152217D01*
X32442Y-152508D01*
G01X35750Y-155600D02*
X35283Y-155542D01*
X34875Y-155308D01*
X34525Y-154958D01*
X34292Y-154550D01*
X34175Y-154083D01*
Y-153617D01*
X34292Y-153150D01*
X34525Y-152742D01*
X34875Y-152392D01*
X35283Y-152158D01*
X35750Y-152100D01*
X36217Y-152158D01*
X36625Y-152392D01*
X36975Y-152742D01*
X37208Y-153150D01*
X37325Y-153617D01*
Y-154083D01*
X37208Y-154550D01*
X36975Y-154958D01*
X36625Y-155308D01*
X36217Y-155542D01*
X35750Y-155600D01*
G01X38883Y-152100D02*
Y-155600D01*
X41217D01*
G01X43067D02*
Y-152100D01*
X44233D01*
X44700Y-152275D01*
X45050Y-152508D01*
X45342Y-152858D01*
X45575Y-153267D01*
X45633Y-153850D01*
X45575Y-154433D01*
X45342Y-154842D01*
X45050Y-155192D01*
X44700Y-155425D01*
X44233Y-155600D01*
X43067D01*
G01X49817D02*
X47483D01*
Y-152100D01*
X49817D01*
G01X48883Y-153792D02*
X47483D01*
G01X51783Y-155600D02*
Y-152100D01*
X53242D01*
X53708Y-152275D01*
X54000Y-152508D01*
X54117Y-152975D01*
X54000Y-153442D01*
X53650Y-153733D01*
X53242Y-153908D01*
X51783D01*
G01X53242D02*
X54117Y-155600D01*
G01X55733D02*
Y-152100D01*
X57250Y-155017D01*
X58767Y-152100D01*
Y-155600D01*
G01X60092D02*
X61550Y-152100D01*
X63008Y-155600D01*
G01X62483Y-154375D02*
X60617D01*
G01X64625Y-155133D02*
X65092Y-155425D01*
X65617Y-155600D01*
X66083D01*
X66550Y-155425D01*
X66900Y-155133D01*
X67075Y-154725D01*
X66958Y-154317D01*
X66667Y-153967D01*
X66142Y-153733D01*
X65442Y-153617D01*
X65033Y-153383D01*
X64858Y-152975D01*
X64975Y-152567D01*
X65267Y-152275D01*
X65675Y-152100D01*
X66083D01*
X66492Y-152217D01*
X66842Y-152508D01*
G01X68867Y-155600D02*
Y-152100D01*
G01X71083D02*
X68867Y-154258D01*
G01X71433Y-155600D02*
X69858Y-153267D01*
G01X-9658Y-147100D02*
Y-143100D01*
X-7442D01*
G01X-8258Y-145033D02*
X-9658D01*
G01X-4450Y-143100D02*
X-3050D01*
G01X-3750D02*
Y-147100D01*
G01X-4450D02*
X-3050D01*
G01X-117Y-143100D02*
Y-147100D01*
X2217D01*
G01X4333D02*
Y-143100D01*
X5850Y-146433D01*
X7367Y-143100D01*
Y-147100D01*
G01X118450Y-151100D02*
X117983Y-151233D01*
X117633Y-151567D01*
X117400Y-151967D01*
X117225Y-152500D01*
X117167Y-153100D01*
X117225Y-153700D01*
X117400Y-154233D01*
X117633Y-154633D01*
X117983Y-154967D01*
X118450Y-155100D01*
X118917Y-154967D01*
X119267Y-154633D01*
X119500Y-154233D01*
X119675Y-153700D01*
X119733Y-153100D01*
X119675Y-152500D01*
X119500Y-151967D01*
X119267Y-151567D01*
X118917Y-151233D01*
X118450Y-151100D01*
G01X123250Y-155100D02*
X123658Y-155033D01*
X124125Y-154833D01*
X124417Y-154500D01*
X124533Y-154033D01*
X124417Y-153567D01*
X124067Y-153167D01*
X123542Y-152967D01*
X122958D01*
X122608Y-152833D01*
X122317Y-152500D01*
X122200Y-152033D01*
X122375Y-151567D01*
X122783Y-151233D01*
X123250Y-151100D01*
X123717Y-151233D01*
X124125Y-151567D01*
X124300Y-152033D01*
X124183Y-152500D01*
X123892Y-152833D01*
X123542Y-152967D01*
X122958D01*
X122433Y-153167D01*
X122083Y-153567D01*
X121967Y-154033D01*
X122083Y-154500D01*
X122375Y-154833D01*
X122842Y-155033D01*
X123250Y-155100D01*
G01X127000Y-155233D02*
X129100Y-151100D01*
G01X131742Y-151767D02*
X132092Y-151367D01*
X132500Y-151167D01*
X132967Y-151100D01*
X133550Y-151233D01*
X133958Y-151567D01*
X134075Y-151967D01*
X134017Y-152367D01*
X133783Y-152700D01*
X132617Y-153367D01*
X132092Y-153833D01*
X131742Y-154500D01*
X131625Y-155100D01*
X134075D01*
G01X138350D02*
Y-151100D01*
X136192Y-153967D01*
X139108D01*
G01X141400Y-155233D02*
X143500Y-151100D01*
G01X147250Y-155100D02*
Y-151100D01*
X146550Y-151900D01*
G01Y-155100D02*
X147950D01*
G01X151933D02*
X152050Y-154233D01*
X152225Y-153500D01*
X152458Y-152833D01*
X152750Y-152100D01*
X153217Y-151100D01*
X150883D01*
G01X124700Y-132933D02*
X128200D01*
G01X129500D02*
X133000D01*
G01X134300D02*
X137800D01*
G01X144308Y-131600D02*
Y-127600D01*
X146992Y-131600D01*
Y-127600D01*
G01X151733Y-127933D02*
X151383Y-127733D01*
X150975Y-127600D01*
X150508D01*
X149983Y-127800D01*
X149575Y-128133D01*
X149283Y-128533D01*
X149050Y-129200D01*
X148992Y-129800D01*
X149108Y-130400D01*
X149283Y-130800D01*
X149633Y-131200D01*
X150042Y-131467D01*
X150450Y-131600D01*
X150858D01*
X151267Y-131467D01*
X151617Y-131267D01*
X151908Y-131000D01*
G01X154083Y-131600D02*
Y-127600D01*
X155483D01*
X155950Y-127800D01*
X156300Y-128267D01*
X156417Y-128800D01*
X156300Y-129333D01*
X156008Y-129733D01*
X155483Y-129933D01*
X154083D01*
G01X164558Y-132933D02*
X163975Y-132267D01*
X163683Y-131600D01*
Y-128933D01*
X163975Y-128267D01*
X164558Y-127600D01*
G01X168308Y-131600D02*
Y-127600D01*
X170992Y-131600D01*
Y-127600D01*
G01X173225Y-131600D02*
X175675Y-127600D01*
G01X173225D02*
X175675Y-131600D01*
G01X178083D02*
Y-127600D01*
X179483D01*
X179950Y-127800D01*
X180300Y-128267D01*
X180417Y-128800D01*
X180300Y-129333D01*
X180008Y-129733D01*
X179483Y-129933D01*
X178083D01*
G01X190133Y-127933D02*
X189783Y-127733D01*
X189375Y-127600D01*
X188908D01*
X188383Y-127800D01*
X187975Y-128133D01*
X187683Y-128533D01*
X187450Y-129200D01*
X187392Y-129800D01*
X187508Y-130400D01*
X187683Y-130800D01*
X188033Y-131200D01*
X188442Y-131467D01*
X188850Y-131600D01*
X189258D01*
X189667Y-131467D01*
X190017Y-131267D01*
X190308Y-131000D01*
G01X193650Y-131600D02*
X193183Y-131533D01*
X192775Y-131267D01*
X192425Y-130867D01*
X192192Y-130400D01*
X192075Y-129867D01*
Y-129333D01*
X192192Y-128800D01*
X192425Y-128333D01*
X192775Y-127933D01*
X193183Y-127667D01*
X193650Y-127600D01*
X194117Y-127667D01*
X194525Y-127933D01*
X194875Y-128333D01*
X195108Y-128800D01*
X195225Y-129333D01*
Y-129867D01*
X195108Y-130400D01*
X194875Y-130867D01*
X194525Y-131267D01*
X194117Y-131533D01*
X193650Y-131600D01*
G01X197108D02*
Y-127600D01*
X199792Y-131600D01*
Y-127600D01*
G01X202142Y-131600D02*
Y-127600D01*
X204358D01*
G01X203542Y-129533D02*
X202142D01*
G01X207350Y-127600D02*
X208750D01*
G01X208050D02*
Y-131600D01*
G01X207350D02*
X208750D01*
G01X211567D02*
Y-127600D01*
X212733D01*
X213200Y-127800D01*
X213550Y-128067D01*
X213842Y-128467D01*
X214075Y-128933D01*
X214133Y-129600D01*
X214075Y-130267D01*
X213842Y-130733D01*
X213550Y-131133D01*
X213200Y-131400D01*
X212733Y-131600D01*
X211567D01*
G01X218817D02*
X216483D01*
Y-127600D01*
X218817D01*
G01X217883Y-129533D02*
X216483D01*
G01X221108Y-131600D02*
Y-127600D01*
X223792Y-131600D01*
Y-127600D01*
G01X227250D02*
Y-131600D01*
G01X225908Y-127600D02*
X228592D01*
G01X231350D02*
X232750D01*
G01X232050D02*
Y-131600D01*
G01X231350D02*
X232750D01*
G01X235392D02*
X236850Y-127600D01*
X238308Y-131600D01*
G01X237783Y-130200D02*
X235917D01*
G01X240483Y-127600D02*
Y-131600D01*
X242817D01*
G01X250083D02*
Y-127600D01*
X251483D01*
X251950Y-127800D01*
X252300Y-128267D01*
X252417Y-128800D01*
X252300Y-129333D01*
X252008Y-129733D01*
X251483Y-129933D01*
X250083D01*
G01X254883Y-131600D02*
Y-127600D01*
X256342D01*
X256808Y-127800D01*
X257100Y-128067D01*
X257217Y-128600D01*
X257100Y-129133D01*
X256750Y-129467D01*
X256342Y-129667D01*
X254883D01*
G01X256342D02*
X257217Y-131600D01*
G01X260850D02*
X260383Y-131533D01*
X259975Y-131267D01*
X259625Y-130867D01*
X259392Y-130400D01*
X259275Y-129867D01*
Y-129333D01*
X259392Y-128800D01*
X259625Y-128333D01*
X259975Y-127933D01*
X260383Y-127667D01*
X260850Y-127600D01*
X261317Y-127667D01*
X261725Y-127933D01*
X262075Y-128333D01*
X262308Y-128800D01*
X262425Y-129333D01*
Y-129867D01*
X262308Y-130400D01*
X262075Y-130867D01*
X261725Y-131267D01*
X261317Y-131533D01*
X260850Y-131600D01*
G01X264483D02*
Y-127600D01*
X265883D01*
X266350Y-127800D01*
X266700Y-128267D01*
X266817Y-128800D01*
X266700Y-129333D01*
X266408Y-129733D01*
X265883Y-129933D01*
X264483D01*
G01X269283Y-131600D02*
Y-127600D01*
X270742D01*
X271208Y-127800D01*
X271500Y-128067D01*
X271617Y-128600D01*
X271500Y-129133D01*
X271150Y-129467D01*
X270742Y-129667D01*
X269283D01*
G01X270742D02*
X271617Y-131600D01*
G01X274550Y-127600D02*
X275950D01*
G01X275250D02*
Y-131600D01*
G01X274550D02*
X275950D01*
G01X281217D02*
X278883D01*
Y-127600D01*
X281217D01*
G01X280283Y-129533D02*
X278883D01*
G01X284850Y-127600D02*
Y-131600D01*
G01X283508Y-127600D02*
X286192D01*
G01X288192Y-131600D02*
X289650Y-127600D01*
X291108Y-131600D01*
G01X290583Y-130200D02*
X288717D01*
G01X293283Y-131600D02*
Y-127600D01*
X294742D01*
X295208Y-127800D01*
X295500Y-128067D01*
X295617Y-128600D01*
X295500Y-129133D01*
X295150Y-129467D01*
X294742Y-129667D01*
X293283D01*
G01X294742D02*
X295617Y-131600D01*
G01X299250D02*
Y-129800D01*
X298083Y-127600D01*
G01X300417D02*
X299250Y-129800D01*
G01X304342Y-132933D02*
X304925Y-132267D01*
X305217Y-131600D01*
Y-128933D01*
X304925Y-128267D01*
X304342Y-127600D01*
G01X115167Y-147100D02*
Y-143100D01*
X116333D01*
X116800Y-143300D01*
X117150Y-143567D01*
X117442Y-143967D01*
X117675Y-144433D01*
X117733Y-145100D01*
X117675Y-145767D01*
X117442Y-146233D01*
X117150Y-146633D01*
X116800Y-146900D01*
X116333Y-147100D01*
X115167D01*
G01X119792D02*
X121250Y-143100D01*
X122708Y-147100D01*
G01X122183Y-145700D02*
X120317D01*
G01X126050Y-143100D02*
Y-147100D01*
G01X124708Y-143100D02*
X127392D01*
G01X132017Y-147100D02*
X129683D01*
Y-143100D01*
X132017D01*
G01X131083Y-145033D02*
X129683D01*
G01X129405Y-116100D02*
X132695Y-109800D01*
G01X129405D02*
X132695Y-116100D01*
G01X124700Y-116433D02*
X128200D01*
G01X129500D02*
X133000D01*
G01X134300D02*
X137800D01*
G01X144308Y-115100D02*
Y-111100D01*
X146992Y-115100D01*
Y-111100D01*
G01X149750D02*
X151150D01*
G01X150450D02*
Y-115100D01*
G01X149750D02*
X151150D01*
G01X153967Y-111100D02*
Y-113967D01*
X154200Y-114567D01*
X154667Y-114967D01*
X155250Y-115100D01*
X155833Y-114967D01*
X156300Y-114567D01*
X156533Y-113967D01*
Y-111100D01*
G01X160050Y-115100D02*
X159583Y-115033D01*
X159175Y-114767D01*
X158825Y-114367D01*
X158592Y-113900D01*
X158475Y-113367D01*
Y-112833D01*
X158592Y-112300D01*
X158825Y-111833D01*
X159175Y-111433D01*
X159583Y-111167D01*
X160050Y-111100D01*
X160517Y-111167D01*
X160925Y-111433D01*
X161275Y-111833D01*
X161508Y-112300D01*
X161625Y-112833D01*
Y-113367D01*
X161508Y-113900D01*
X161275Y-114367D01*
X160925Y-114767D01*
X160517Y-115033D01*
X160050Y-115100D01*
G01X169358Y-116433D02*
X168775Y-115767D01*
X168483Y-115100D01*
Y-112433D01*
X168775Y-111767D01*
X169358Y-111100D01*
G01X173108Y-115100D02*
Y-111100D01*
X175792Y-115100D01*
Y-111100D01*
G01X178025Y-115100D02*
X180475Y-111100D01*
G01X178025D02*
X180475Y-115100D01*
G01X182883D02*
Y-111100D01*
X184283D01*
X184750Y-111300D01*
X185100Y-111767D01*
X185217Y-112300D01*
X185100Y-112833D01*
X184808Y-113233D01*
X184283Y-113433D01*
X182883D01*
G01X192950Y-111100D02*
X194350D01*
G01X193650D02*
Y-115100D01*
G01X192950D02*
X194350D01*
G01X197108D02*
Y-111100D01*
X199792Y-115100D01*
Y-111100D01*
G01X203250D02*
Y-115100D01*
G01X201908Y-111100D02*
X204592D01*
G01X209217Y-115100D02*
X206883D01*
Y-111100D01*
X209217D01*
G01X208283Y-113033D02*
X206883D01*
G01X211683Y-115100D02*
Y-111100D01*
X213142D01*
X213608Y-111300D01*
X213900Y-111567D01*
X214017Y-112100D01*
X213900Y-112633D01*
X213550Y-112967D01*
X213142Y-113167D01*
X211683D01*
G01X213142D02*
X214017Y-115100D01*
G01X216308D02*
Y-111100D01*
X218992Y-115100D01*
Y-111100D01*
G01X220992Y-115100D02*
X222450Y-111100D01*
X223908Y-115100D01*
G01X223383Y-113700D02*
X221517D01*
G01X226083Y-111100D02*
Y-115100D01*
X228417D01*
G01X235567Y-111100D02*
Y-113967D01*
X235800Y-114567D01*
X236267Y-114967D01*
X236850Y-115100D01*
X237433Y-114967D01*
X237900Y-114567D01*
X238133Y-113967D01*
Y-111100D01*
G01X240425Y-114567D02*
X240892Y-114900D01*
X241417Y-115100D01*
X241883D01*
X242350Y-114900D01*
X242700Y-114567D01*
X242875Y-114100D01*
X242758Y-113633D01*
X242467Y-113233D01*
X241942Y-112967D01*
X241242Y-112833D01*
X240833Y-112567D01*
X240658Y-112100D01*
X240775Y-111633D01*
X241067Y-111300D01*
X241475Y-111100D01*
X241883D01*
X242292Y-111233D01*
X242642Y-111567D01*
G01X247617Y-115100D02*
X245283D01*
Y-111100D01*
X247617D01*
G01X246683Y-113033D02*
X245283D01*
G01X256050Y-115100D02*
X255583Y-115033D01*
X255175Y-114767D01*
X254825Y-114367D01*
X254592Y-113900D01*
X254475Y-113367D01*
Y-112833D01*
X254592Y-112300D01*
X254825Y-111833D01*
X255175Y-111433D01*
X255583Y-111167D01*
X256050Y-111100D01*
X256517Y-111167D01*
X256925Y-111433D01*
X257275Y-111833D01*
X257508Y-112300D01*
X257625Y-112833D01*
Y-113367D01*
X257508Y-113900D01*
X257275Y-114367D01*
X256925Y-114767D01*
X256517Y-115033D01*
X256050Y-115100D01*
G01X259508D02*
Y-111100D01*
X262192Y-115100D01*
Y-111100D01*
G01X264483D02*
Y-115100D01*
X266817D01*
G01X270450D02*
Y-113300D01*
X269283Y-111100D01*
G01X271617D02*
X270450Y-113300D01*
G01X275542Y-116433D02*
X276125Y-115767D01*
X276417Y-115100D01*
Y-112433D01*
X276125Y-111767D01*
X275542Y-111100D01*
G01X124700Y-100433D02*
X128200D01*
G01X129500D02*
X133000D01*
G01X134300D02*
X137800D01*
G01X144483Y-99100D02*
Y-95100D01*
X145883D01*
X146350Y-95300D01*
X146700Y-95767D01*
X146817Y-96300D01*
X146700Y-96833D01*
X146408Y-97233D01*
X145883Y-97433D01*
X144483D01*
G01X149167Y-95100D02*
Y-97967D01*
X149400Y-98567D01*
X149867Y-98967D01*
X150450Y-99100D01*
X151033Y-98967D01*
X151500Y-98567D01*
X151733Y-97967D01*
Y-95100D01*
G01X155717Y-96967D02*
X155950Y-96767D01*
X156125Y-96433D01*
X156242Y-95967D01*
X156125Y-95567D01*
X155892Y-95300D01*
X155483Y-95100D01*
X153908D01*
Y-99100D01*
X155833D01*
X156242Y-98833D01*
X156475Y-98433D01*
X156592Y-97967D01*
X156475Y-97500D01*
X156125Y-97100D01*
X155717Y-96967D01*
X153908D01*
G01X159350Y-95100D02*
X160750D01*
G01X160050D02*
Y-99100D01*
G01X159350D02*
X160750D01*
G01X169358Y-100433D02*
X168775Y-99767D01*
X168483Y-99100D01*
Y-96433D01*
X168775Y-95767D01*
X169358Y-95100D01*
G01X173283Y-99100D02*
Y-95100D01*
X174683D01*
X175150Y-95300D01*
X175500Y-95767D01*
X175617Y-96300D01*
X175500Y-96833D01*
X175208Y-97233D01*
X174683Y-97433D01*
X173283D01*
G01X177967Y-95100D02*
Y-97967D01*
X178200Y-98567D01*
X178667Y-98967D01*
X179250Y-99100D01*
X179833Y-98967D01*
X180300Y-98567D01*
X180533Y-97967D01*
Y-95100D01*
G01X184517Y-96967D02*
X184750Y-96767D01*
X184925Y-96433D01*
X185042Y-95967D01*
X184925Y-95567D01*
X184692Y-95300D01*
X184283Y-95100D01*
X182708D01*
Y-99100D01*
X184633D01*
X185042Y-98833D01*
X185275Y-98433D01*
X185392Y-97967D01*
X185275Y-97500D01*
X184925Y-97100D01*
X184517Y-96967D01*
X182708D01*
G01X187683Y-95100D02*
Y-99100D01*
X190017D01*
G01X192950Y-95100D02*
X194350D01*
G01X193650D02*
Y-99100D01*
G01X192950D02*
X194350D01*
G01X199733Y-95433D02*
X199383Y-95233D01*
X198975Y-95100D01*
X198508D01*
X197983Y-95300D01*
X197575Y-95633D01*
X197283Y-96033D01*
X197050Y-96700D01*
X196992Y-97300D01*
X197108Y-97900D01*
X197283Y-98300D01*
X197633Y-98700D01*
X198042Y-98967D01*
X198450Y-99100D01*
X198858D01*
X199267Y-98967D01*
X199617Y-98767D01*
X199908Y-98500D01*
G01X207350Y-95100D02*
X208750D01*
G01X208050D02*
Y-99100D01*
G01X207350D02*
X208750D01*
G01X211508D02*
Y-95100D01*
X214192Y-99100D01*
Y-95100D01*
G01X216542Y-99100D02*
Y-95100D01*
X218758D01*
G01X217942Y-97033D02*
X216542D01*
G01X222450Y-99100D02*
X221983Y-99033D01*
X221575Y-98767D01*
X221225Y-98367D01*
X220992Y-97900D01*
X220875Y-97367D01*
Y-96833D01*
X220992Y-96300D01*
X221225Y-95833D01*
X221575Y-95433D01*
X221983Y-95167D01*
X222450Y-95100D01*
X222917Y-95167D01*
X223325Y-95433D01*
X223675Y-95833D01*
X223908Y-96300D01*
X224025Y-96833D01*
Y-97367D01*
X223908Y-97900D01*
X223675Y-98367D01*
X223325Y-98767D01*
X222917Y-99033D01*
X222450Y-99100D01*
G01X226083D02*
Y-95100D01*
X227542D01*
X228008Y-95300D01*
X228300Y-95567D01*
X228417Y-96100D01*
X228300Y-96633D01*
X227950Y-96967D01*
X227542Y-97167D01*
X226083D01*
G01X227542D02*
X228417Y-99100D01*
G01X230533D02*
Y-95100D01*
X232050Y-98433D01*
X233567Y-95100D01*
Y-99100D01*
G01X235392D02*
X236850Y-95100D01*
X238308Y-99100D01*
G01X237783Y-97700D02*
X235917D01*
G01X241650Y-95100D02*
Y-99100D01*
G01X240308Y-95100D02*
X242992D01*
G01X245750D02*
X247150D01*
G01X246450D02*
Y-99100D01*
G01X245750D02*
X247150D01*
G01X251250D02*
X250783Y-99033D01*
X250375Y-98767D01*
X250025Y-98367D01*
X249792Y-97900D01*
X249675Y-97367D01*
Y-96833D01*
X249792Y-96300D01*
X250025Y-95833D01*
X250375Y-95433D01*
X250783Y-95167D01*
X251250Y-95100D01*
X251717Y-95167D01*
X252125Y-95433D01*
X252475Y-95833D01*
X252708Y-96300D01*
X252825Y-96833D01*
Y-97367D01*
X252708Y-97900D01*
X252475Y-98367D01*
X252125Y-98767D01*
X251717Y-99033D01*
X251250Y-99100D01*
G01X254708D02*
Y-95100D01*
X257392Y-99100D01*
Y-95100D01*
G01X261142Y-100433D02*
X261725Y-99767D01*
X262017Y-99100D01*
Y-96433D01*
X261725Y-95767D01*
X261142Y-95100D01*
G01X115108Y-67100D02*
Y-63100D01*
X117792Y-67100D01*
Y-63100D01*
G01X119792Y-67100D02*
X121250Y-63100D01*
X122708Y-67100D01*
G01X122183Y-65700D02*
X120317D01*
G01X124533Y-67100D02*
Y-63100D01*
X126050Y-66433D01*
X127567Y-63100D01*
Y-67100D01*
G01X132017D02*
X129683D01*
Y-63100D01*
X132017D01*
G01X131083Y-65033D02*
X129683D01*
G01X165108Y-147100D02*
Y-143100D01*
X167792Y-147100D01*
Y-143100D01*
G01X169967D02*
Y-145967D01*
X170200Y-146567D01*
X170667Y-146967D01*
X171250Y-147100D01*
X171833Y-146967D01*
X172300Y-146567D01*
X172533Y-145967D01*
Y-143100D01*
G01X174533Y-147100D02*
Y-143100D01*
X176050Y-146433D01*
X177567Y-143100D01*
Y-147100D01*
G01X181317Y-144967D02*
X181550Y-144767D01*
X181725Y-144433D01*
X181842Y-143967D01*
X181725Y-143567D01*
X181492Y-143300D01*
X181083Y-143100D01*
X179508D01*
Y-147100D01*
X181433D01*
X181842Y-146833D01*
X182075Y-146433D01*
X182192Y-145967D01*
X182075Y-145500D01*
X181725Y-145100D01*
X181317Y-144967D01*
X179508D01*
G01X186817Y-147100D02*
X184483D01*
Y-143100D01*
X186817D01*
G01X185883Y-145033D02*
X184483D01*
G01X189283Y-147100D02*
Y-143100D01*
X190742D01*
X191208Y-143300D01*
X191500Y-143567D01*
X191617Y-144100D01*
X191500Y-144633D01*
X191150Y-144967D01*
X190742Y-145167D01*
X189283D01*
G01X190742D02*
X191617Y-147100D01*
G01X200050Y-154100D02*
Y-147800D01*
X199110Y-149060D01*
G01Y-154100D02*
X200990D01*
G01X206193D02*
X206350Y-152735D01*
X206585Y-151580D01*
X206898Y-150530D01*
X207290Y-149375D01*
X207917Y-147800D01*
X204783D01*
G01X212650D02*
X212023Y-148010D01*
X211553Y-148535D01*
X211240Y-149165D01*
X211005Y-150005D01*
X210927Y-150950D01*
X211005Y-151895D01*
X211240Y-152735D01*
X211553Y-153365D01*
X212023Y-153890D01*
X212650Y-154100D01*
X213277Y-153890D01*
X213747Y-153365D01*
X214060Y-152735D01*
X214295Y-151895D01*
X214373Y-150950D01*
X214295Y-150005D01*
X214060Y-149165D01*
X213747Y-148535D01*
X213277Y-148010D01*
X212650Y-147800D01*
G01X217932Y-152000D02*
X219968D01*
G01X223762Y-148850D02*
X224232Y-148220D01*
X224780Y-147905D01*
X225407Y-147800D01*
X226190Y-148010D01*
X226738Y-148535D01*
X226895Y-149165D01*
X226817Y-149795D01*
X226503Y-150320D01*
X224937Y-151370D01*
X224232Y-152105D01*
X223762Y-153155D01*
X223605Y-154100D01*
X226895D01*
G01X230218Y-153365D02*
X230767Y-153890D01*
X231393Y-154100D01*
X232020Y-153890D01*
X232568Y-153260D01*
X232960Y-152315D01*
X233117Y-151370D01*
Y-150215D01*
X232960Y-149270D01*
X232568Y-148430D01*
X232098Y-148010D01*
X231550Y-147800D01*
X230923Y-148010D01*
X230453Y-148430D01*
X230140Y-149060D01*
X229983Y-149900D01*
X230140Y-150635D01*
X230532Y-151370D01*
X231002Y-151790D01*
X231550Y-151895D01*
X232177Y-151685D01*
X232647Y-151160D01*
X233117Y-150215D01*
G01X237850Y-154100D02*
Y-147800D01*
X236910Y-149060D01*
G01Y-154100D02*
X238790D01*
G01X244150Y-147800D02*
X243523Y-148010D01*
X243053Y-148535D01*
X242740Y-149165D01*
X242505Y-150005D01*
X242427Y-150950D01*
X242505Y-151895D01*
X242740Y-152735D01*
X243053Y-153365D01*
X243523Y-153890D01*
X244150Y-154100D01*
X244777Y-153890D01*
X245247Y-153365D01*
X245560Y-152735D01*
X245795Y-151895D01*
X245873Y-150950D01*
X245795Y-150005D01*
X245560Y-149165D01*
X245247Y-148535D01*
X244777Y-148010D01*
X244150Y-147800D01*
G01X248962Y-148850D02*
X249432Y-148220D01*
X249980Y-147905D01*
X250607Y-147800D01*
X251390Y-148010D01*
X251938Y-148535D01*
X252095Y-149165D01*
X252017Y-149795D01*
X251703Y-150320D01*
X250137Y-151370D01*
X249432Y-152105D01*
X248962Y-153155D01*
X248805Y-154100D01*
X252095D01*
G01X261483D02*
Y-147800D01*
X263442D01*
X264068Y-148115D01*
X264460Y-148535D01*
X264617Y-149375D01*
X264460Y-150215D01*
X263990Y-150740D01*
X263442Y-151055D01*
X261483D01*
G01X263442D02*
X264617Y-154100D01*
G01X270917D02*
X267783D01*
Y-147800D01*
X270917D01*
G01X269663Y-150845D02*
X267783D01*
G01X273692Y-147800D02*
X275650Y-154100D01*
X277608Y-147800D01*
G01X289973Y-148325D02*
X289503Y-148010D01*
X288955Y-147800D01*
X288328D01*
X287623Y-148115D01*
X287075Y-148640D01*
X286683Y-149270D01*
X286370Y-150320D01*
X286292Y-151265D01*
X286448Y-152210D01*
X286683Y-152840D01*
X287153Y-153470D01*
X287702Y-153890D01*
X288250Y-154100D01*
X288798D01*
X289347Y-153890D01*
X289817Y-153575D01*
X290208Y-153155D01*
G01X294550Y-154100D02*
Y-147800D01*
X293610Y-149060D01*
G01Y-154100D02*
X295490D01*
G01X182862Y-79900D02*
Y-73600D01*
X185838D01*
G01X184742Y-76645D02*
X182862D01*
G01X189083Y-79900D02*
Y-73600D01*
X191042D01*
X191668Y-73915D01*
X192060Y-74335D01*
X192217Y-75175D01*
X192060Y-76015D01*
X191590Y-76540D01*
X191042Y-76855D01*
X189083D01*
G01X191042D02*
X192217Y-79900D01*
G01X195227D02*
Y-73600D01*
X196793D01*
X197420Y-73915D01*
X197890Y-74335D01*
X198282Y-74965D01*
X198595Y-75700D01*
X198673Y-76750D01*
X198595Y-77800D01*
X198282Y-78535D01*
X197890Y-79165D01*
X197420Y-79585D01*
X196793Y-79900D01*
X195227D01*
G01X201213D02*
Y-73600D01*
X203250Y-78850D01*
X205287Y-73600D01*
Y-79900D01*
G01X208532Y-77800D02*
X210568D01*
G01X214127Y-79900D02*
Y-73600D01*
G01X217103D02*
X214127Y-77485D01*
G01X217573Y-79900D02*
X215458Y-75700D01*
G01X219800Y-73600D02*
X220897Y-79900D01*
X222150Y-73600D01*
X223403Y-79900D01*
X224500Y-73600D01*
G01X229390Y-79900D02*
Y-73600D01*
X226492Y-78115D01*
X230408D01*
G01X234750Y-79900D02*
Y-73600D01*
X233810Y-74860D01*
G01Y-79900D02*
X235690D01*
G01X239562Y-73600D02*
X242538D01*
X239562Y-79900D01*
X242538D01*
M02*
